<svg xmlns="http://www.w3.org/2000/svg" width="357" height="357" viewBox="0 0 357 357" fill="none"><path d="M293.526 184.569C357.072 221.268 357.072 280.744 293.526 317.444C229.98 354.144 126.95 354.144 63.4036 317.444C-0.142359 280.744 -0.142359 221.268 63.4036 184.569C127.021 147.869 229.98 147.869 293.526 184.569Z" fill="#FAFAFA"></path><path d="M324.084 274.033C343.219 285.028 343.219 302.95 324.084 313.945C304.949 324.941 274.032 324.941 254.897 313.945C235.762 302.95 235.762 285.028 254.897 274.033C274.032 263.037 305.02 263.037 324.084 274.033Z" fill="#EBEBEB"></path><path d="M91.5341 339.292L38.4125 308.59C36.8417 307.662 36.8417 306.234 38.4125 305.306L171.788 228.265C173.358 227.337 175.929 227.337 177.5 228.265L230.621 258.967C232.192 259.896 232.192 261.324 230.621 262.252L97.2461 339.292C95.6753 340.221 93.1049 340.221 91.5341 339.292Z" fill="#EBEBEB"></path><path d="M161.149 228.337L19.8488 303.878C18.2066 304.806 18.2066 306.306 19.8488 307.234L30.6302 313.446C32.2724 314.374 34.8428 314.374 36.485 313.446L177.786 237.904C179.428 236.976 179.428 235.477 177.786 234.549L167.004 228.337C165.362 227.409 162.72 227.409 161.149 228.337Z" fill="#EBEBEB"></path><path d="M207.632 64.9736L208.917 65.6876L233.836 51.3362L232.622 50.5508L207.632 64.9736Z" fill="#FAFAFA"></path><path d="M232.622 50.5513L208.917 64.2601V39.4129L232.622 25.7041V50.5513Z" fill="white"></path><path d="M236.12 21.0625L206.561 38.1271V69.6859L236.12 52.6213V21.0625ZM233.835 51.3361L208.845 65.7589V39.4837L233.835 25.0609V51.3361Z" fill="#F0F0F0"></path><path d="M233.835 51.3359L232.621 50.5505V25.7033L233.835 24.9893V51.3359Z" fill="#E0E0E0"></path><path d="M236.12 21.0626L234.906 20.3486L205.347 37.4132L206.56 38.1272L236.12 21.0626Z" fill="#FAFAFA"></path><path d="M205.347 37.4131L206.56 38.1271V69.6859L205.347 68.9719V37.4131Z" fill="#E0E0E0"></path><path d="M231.693 49.8372L209.845 62.475V56.1918L215.271 43.554L218.698 46.6956L217.485 51.9792L225.053 35.8428L231.693 43.554V49.8372Z" fill="#F0F0F0"></path><path d="M218.484 37.4135C217.556 37.9133 216.842 39.1985 216.842 40.1981C216.842 41.1977 217.556 41.6261 218.484 41.1263C219.412 40.6265 220.126 39.3413 220.126 38.3417C220.126 37.3421 219.412 36.9137 218.484 37.4135Z" fill="#F0F0F0"></path><path d="M207.632 103.815L208.917 104.529L233.836 90.178L232.622 89.3926L207.632 103.815Z" fill="#FAFAFA"></path><path d="M232.622 89.3931L208.917 103.102V78.2547L232.622 64.5459V89.3931Z" fill="white"></path><path d="M236.12 59.9043L206.561 76.9689V108.528L236.12 91.4631V59.9043ZM233.835 90.1779L208.845 104.601V78.3255L233.835 63.9027V90.1779Z" fill="#F0F0F0"></path><path d="M233.835 90.1777L232.621 89.3923V64.5451L233.835 63.8311V90.1777Z" fill="#E0E0E0"></path><path d="M236.12 59.9044L234.906 59.1904L205.347 76.255L206.56 76.969L236.12 59.9044Z" fill="#FAFAFA"></path><path d="M205.347 76.2549L206.56 76.9689V108.528L205.347 107.814V76.2549Z" fill="#E0E0E0"></path><path d="M231.693 88.679L209.845 101.317V94.9622L215.271 82.3244L218.698 85.5374L217.485 90.821L225.053 74.6846L231.693 82.3244V88.679Z" fill="#F0F0F0"></path><path d="M218.484 76.2553C217.556 76.7551 216.842 78.0403 216.842 79.0399C216.842 80.0395 217.556 80.4679 218.484 79.9681C219.412 79.4683 220.126 78.1831 220.126 77.1835C220.126 76.1839 219.412 75.7555 218.484 76.2553Z" fill="#F0F0F0"></path><path d="M208.131 256.683C208.131 256.683 204.561 241.19 212.415 226.124C216.77 217.699 225.124 213.129 229.479 212.844C234.335 212.487 238.976 216.842 234.335 222.411C229.979 227.695 222.054 229.694 216.556 243.474C212.986 252.614 213.057 259.397 213.057 259.397L208.131 256.683Z" fill="#00B77E"></path><path opacity="0.5" d="M208.131 256.683C208.131 256.683 204.561 241.19 212.415 226.124C216.77 217.699 225.124 213.129 229.479 212.844C234.335 212.487 238.976 216.842 234.335 222.411C229.979 227.695 222.054 229.694 216.556 243.474C212.986 252.614 213.057 259.397 213.057 259.397L208.131 256.683Z" fill="white"></path><path d="M211.201 252.828C211.344 252.828 211.487 252.685 211.487 252.542C210.487 235.478 221.626 221.483 229.837 216.985C229.98 216.914 229.98 216.771 229.908 216.628C229.837 216.485 229.623 216.485 229.48 216.557C221.126 221.126 209.845 235.335 210.844 252.542C210.916 252.756 211.059 252.828 211.201 252.828Z" fill="white"></path><path d="M212.986 259.397C213.915 255.47 216.913 250.757 222.982 246.616C229.051 242.475 237.262 238.762 236.334 234.906C235.406 231.122 229.051 230.979 224.482 232.979C219.912 234.978 209.345 244.046 210.345 257.969L212.986 259.397Z" fill="#00B77E"></path><path opacity="0.65" d="M212.986 259.397C213.915 255.47 216.913 250.757 222.982 246.616C229.051 242.475 237.262 238.762 236.334 234.906C235.406 231.122 229.051 230.979 224.482 232.979C219.912 234.978 209.345 244.046 210.345 257.969L212.986 259.397Z" fill="white"></path><path d="M212.058 254.256C212.201 254.256 212.344 254.185 212.344 254.042C213.701 245.759 226.338 235.692 231.979 234.264C232.122 234.193 232.193 234.121 232.193 233.978C232.122 233.836 231.979 233.764 231.836 233.836C225.981 235.335 213.272 245.474 211.844 254.042C211.773 254.113 211.844 254.256 212.058 254.256Z" fill="white"></path><path d="M26.8467 306.02C26.8467 305.378 27.2751 304.735 28.0605 304.235L148.655 228.408V117.453L163.649 98.9602C166.005 96.0328 167.862 90.6778 167.862 86.965V24.4186C167.862 20.7058 165.291 19.2778 162.15 21.2056L28.0605 104.601C27.2751 105.101 26.8467 105.743 26.8467 106.386V306.02Z" fill="#00B77E"></path><path opacity="0.3" d="M159.651 41.0547C159.651 37.3419 157.009 35.7711 153.724 37.5561L30.9164 105.529C29.774 106.172 28.2746 106.314 26.918 106.1C26.918 106.172 26.918 106.243 26.918 106.314V305.806C26.9894 305.235 27.3464 304.664 28.1318 304.235L148.726 228.408V117.453L159.722 103.887V41.0547H159.651Z" fill="black"></path><path d="M27.9177 307.663C29.4171 308.519 31.9875 308.519 33.6297 307.591L156.438 239.618C159.722 237.833 162.364 233.335 162.364 229.622V43.4111C162.364 39.6983 159.722 38.1275 156.438 39.9125L33.6297 107.885C31.9875 108.814 29.4171 108.814 27.9177 107.957C27.2037 107.528 26.8467 106.957 26.8467 106.386V306.092C26.8467 306.663 27.2037 307.234 27.9177 307.663Z" fill="#00B77E"></path><path opacity="0.3" d="M27.9177 307.663C29.4171 308.519 31.9875 308.519 33.6297 307.591L156.438 239.618C159.722 237.833 162.364 233.335 162.364 229.622V43.4111C162.364 39.6983 159.722 38.1275 156.438 39.9125L33.6297 107.885C31.9875 108.814 29.4171 108.814 27.9177 107.957C27.2037 107.528 26.8467 106.957 26.8467 106.386V306.092C26.8467 306.663 27.2037 307.234 27.9177 307.663Z" fill="white"></path><path opacity="0.3" d="M30.7022 108.599C29.7026 108.599 28.703 108.385 27.989 107.957C27.275 107.528 26.918 106.957 26.918 106.386V306.092C26.918 306.663 27.275 307.234 27.989 307.662C28.703 308.091 29.7026 308.305 30.7022 308.305V108.599Z" fill="white"></path><path d="M47.124 106.314C46.9098 106.314 46.767 106.457 46.767 106.671V293.597C46.767 293.811 46.9098 293.954 47.124 293.954C47.3382 293.954 47.481 293.811 47.481 293.597V106.671C47.481 106.457 47.3382 106.314 47.124 106.314ZM36.1998 112.669C35.9856 112.669 35.8428 112.812 35.8428 113.026V299.951C35.8428 300.165 35.9856 300.308 36.1998 300.308C36.414 300.308 36.5568 300.165 36.5568 299.951V113.026C36.4854 112.812 36.3426 112.669 36.1998 112.669ZM41.6262 109.456C41.412 109.456 41.2692 109.599 41.2692 109.813V296.738C41.2692 296.952 41.412 297.095 41.6262 297.095C41.8404 297.095 41.9832 296.952 41.9832 296.738V109.813C41.9832 109.67 41.8404 109.456 41.6262 109.456Z" fill="#00B77E"></path><path d="M58.477 117.024L55.6924 115.454L182.427 42.2686L185.283 43.8394L58.477 117.024Z" fill="#F0F0F0"></path><path d="M58.8341 117.239L184.926 44.4824V238.333L58.7627 311.161L58.8341 117.239Z" fill="#FAFAFA"></path><path d="M184.569 45.0536V238.191L59.1193 310.59L59.1907 117.453L184.569 45.0536ZM185.283 43.8398L58.4767 117.025L58.4053 311.733L185.212 238.548V43.8398H185.283Z" fill="#EBEBEB"></path><path d="M58.477 117.024V311.732L55.6924 310.161V115.453L58.477 117.024Z" fill="#E0E0E0"></path><path d="M220.769 255.898V259.182L93.963 332.367L92.535 331.582C75.1848 321.514 64.332 302.807 64.332 282.744V131.662L191.138 58.4766L193.994 60.1188V209.559C193.994 228.694 204.205 246.33 220.769 255.898Z" fill="#F0F0F0"></path><path d="M193.995 209.559V60.1191L67.2598 133.304V282.744C67.2598 301.88 77.47 319.515 94.0348 329.083L220.77 255.898C204.205 246.33 193.995 228.695 193.995 209.559ZM67.831 282.744V133.661L193.352 61.1901V209.559C193.352 228.48 203.348 246.116 219.485 255.898L93.9634 328.369C77.827 318.944 67.831 301.451 67.831 282.744Z" fill="#E0E0E0"></path><path d="M219.556 255.898L93.9635 328.369C77.8271 318.944 67.8311 301.451 67.8311 282.745V133.661L193.352 61.1904V209.56C193.352 228.481 203.348 246.116 219.556 255.898Z" fill="#FAFAFA"></path><path d="M67.2593 282.744V133.303L64.4033 131.661V282.744C64.4033 302.807 75.1847 321.514 92.6063 331.581L94.0343 332.367V329.082C77.3981 319.515 67.2593 301.879 67.2593 282.744Z" fill="#E0E0E0"></path><path opacity="0.15" d="M93.9629 329.082V332.367L220.769 259.182V255.897L93.9629 329.082Z" fill="black"></path><path d="M154.51 99.6029L184.784 82.1099C185.498 81.6815 186.14 81.9671 186.14 82.8239C186.14 83.6093 185.569 84.6089 184.784 85.0373L154.51 102.53C153.796 102.959 153.153 102.673 153.153 101.816C153.153 101.031 153.725 100.031 154.51 99.6029Z" fill="#E0E0E0"></path><path d="M154.51 111.313L184.784 93.8199C185.498 93.3915 186.14 93.6771 186.14 94.5339C186.14 95.3907 185.569 96.3189 184.784 96.7473L154.51 114.24C153.796 114.669 153.153 114.383 153.153 113.526C153.153 112.669 153.725 111.741 154.51 111.313Z" fill="#E0E0E0"></path><path d="M165.791 98.8886L184.712 87.9644C185.426 87.536 186.069 87.8216 186.069 88.6784C186.069 89.4638 185.498 90.4634 184.712 90.8918L165.791 101.816C165.077 102.244 164.435 101.959 164.435 101.102C164.435 100.245 165.077 99.317 165.791 98.8886Z" fill="#E0E0E0"></path><path d="M82.1818 176.001L181.071 118.953C181.785 118.524 182.427 118.81 182.427 119.667C182.427 120.452 181.856 121.452 181.071 121.88L82.1818 178.929C81.4678 179.357 80.8252 179.071 80.8252 178.215C80.8252 177.429 81.3964 176.43 82.1818 176.001Z" fill="#E0E0E0"></path><path d="M82.1818 181.856L181.071 124.807C181.785 124.379 182.427 124.664 182.427 125.521C182.427 126.378 181.856 127.306 181.071 127.735L82.1818 184.783C81.4678 185.212 80.8252 184.926 80.8252 184.069C80.8252 183.212 81.3964 182.284 82.1818 181.856Z" fill="#E0E0E0"></path><path d="M82.1818 187.711L181.071 130.663C181.785 130.234 182.427 130.52 182.427 131.377C182.427 132.233 181.856 133.162 181.071 133.59L82.1818 190.639C81.4678 191.067 80.8252 190.781 80.8252 189.925C80.8252 189.068 81.3964 188.14 82.1818 187.711Z" fill="#E0E0E0"></path><path d="M82.1818 193.566L181.071 136.517C181.785 136.089 182.427 136.374 182.427 137.231C182.427 138.017 181.856 139.016 181.071 139.445L82.1818 196.493C81.4678 196.922 80.8252 196.636 80.8252 195.779C80.8252 194.994 81.3964 193.994 82.1818 193.566Z" fill="#E0E0E0"></path><path d="M82.1818 205.347L181.071 148.298C181.785 147.87 182.427 148.156 182.427 149.012C182.427 149.869 181.856 150.797 181.071 151.226L82.1818 208.274C81.4678 208.703 80.8252 208.417 80.8252 207.56C80.8252 206.704 81.3964 205.775 82.1818 205.347Z" fill="#E0E0E0"></path><path d="M82.1818 211.201L181.071 154.153C181.785 153.724 182.427 154.01 182.427 154.867C182.427 155.652 181.856 156.652 181.071 157.08L82.1818 214.129C81.4678 214.557 80.8252 214.272 80.8252 213.415C80.8252 212.558 81.3964 211.63 82.1818 211.201Z" fill="#E0E0E0"></path><path d="M82.1818 217.057L181.071 160.008C181.785 159.58 182.427 159.866 182.427 160.722C182.427 161.508 181.856 162.507 181.071 162.936L82.1818 219.984C81.4678 220.413 80.8252 220.127 80.8252 219.27C80.8252 218.485 81.3964 217.485 82.1818 217.057Z" fill="#E0E0E0"></path><path d="M82.1818 222.911L181.071 165.863C181.785 165.434 182.427 165.72 182.427 166.577C182.427 167.434 181.856 168.362 181.071 168.79L82.1818 225.839C81.4678 226.267 80.8252 225.982 80.8252 225.125C80.8252 224.339 81.3964 223.34 82.1818 222.911Z" fill="#E0E0E0"></path><path d="M82.1818 234.763L181.071 177.714C181.785 177.286 182.427 177.572 182.427 178.428C182.427 179.285 181.856 180.213 181.071 180.642L82.1818 237.69C81.4678 238.119 80.8252 237.833 80.8252 236.976C80.8252 236.12 81.3964 235.191 82.1818 234.763Z" fill="#E0E0E0"></path><path d="M82.1819 240.618L181 183.498C181.714 183.069 182.356 183.355 182.356 184.212C182.356 184.997 181.785 185.997 181 186.425L82.1105 243.474C81.3965 243.902 80.7539 243.616 80.7539 242.76C80.8253 242.046 81.3965 241.046 82.1819 240.618Z" fill="#E0E0E0"></path><path d="M82.1818 246.473L135.161 215.842C135.875 215.414 136.517 215.7 136.517 216.556C136.517 217.413 135.946 218.341 135.161 218.77L82.1818 249.4C81.4678 249.829 80.8252 249.543 80.8252 248.686C80.8252 247.83 81.3964 246.901 82.1818 246.473Z" fill="#E0E0E0"></path><path d="M82.1818 256.826L117.382 236.477C118.096 236.049 118.739 236.334 118.739 237.191C118.739 237.976 118.167 238.976 117.382 239.404L82.1818 259.753C81.4678 260.182 80.8252 259.896 80.8252 259.039C80.8252 258.254 81.3964 257.254 82.1818 256.826Z" fill="#00B77E"></path><path d="M88.5371 155.795C88.5371 155.652 88.6085 155.509 88.6799 155.438C88.7513 155.295 88.8227 155.224 88.8941 155.224L89.7509 154.724C89.8223 154.652 89.8937 154.652 89.9651 154.724C90.0365 154.795 90.0365 154.867 90.0365 155.009C90.0365 155.509 89.9651 156.009 89.8223 156.509C89.6795 157.009 89.5367 157.58 89.2511 158.08C88.9655 158.579 88.6799 159.079 88.2515 159.579C87.8231 160.079 87.3947 160.436 86.8235 160.793C86.3237 161.078 85.8953 161.221 85.4669 161.221C85.1099 161.221 84.7529 161.078 84.4673 160.864C84.1817 160.579 83.9675 160.222 83.8247 159.793C83.6819 159.293 83.6105 158.722 83.5391 158.08C83.5391 157.651 83.5391 157.223 83.5391 156.723C83.5391 156.223 83.5391 155.723 83.5391 155.295C83.5391 154.581 83.6819 153.938 83.8247 153.296C83.9675 152.653 84.1817 152.011 84.4673 151.439C84.7529 150.868 85.0385 150.368 85.4669 149.94C85.8239 149.512 86.3237 149.155 86.8235 148.869C87.3947 148.512 87.8945 148.369 88.2515 148.369C88.6799 148.369 88.9655 148.512 89.2511 148.726C89.5367 148.94 89.6795 149.226 89.8223 149.654C89.9651 150.011 90.0365 150.44 90.0365 150.868C90.0365 151.011 90.0365 151.154 89.9651 151.225C89.8937 151.368 89.8223 151.439 89.7509 151.439L88.8941 151.939C88.8227 152.011 88.7513 152.011 88.6799 151.939C88.6085 151.939 88.6085 151.796 88.5371 151.654C88.5371 151.439 88.4657 151.225 88.3943 151.082C88.3229 150.94 88.1801 150.797 88.0373 150.725C87.8945 150.654 87.7517 150.583 87.5375 150.583C87.3233 150.583 87.1091 150.654 86.8235 150.868C86.5379 151.011 86.3237 151.225 86.1095 151.511C85.8953 151.796 85.7525 152.011 85.6097 152.368C85.4669 152.653 85.3955 153.01 85.2527 153.367C85.1813 153.724 85.1099 154.081 85.1099 154.438C85.1099 154.867 85.1099 155.366 85.1099 155.866C85.1099 156.366 85.1099 156.866 85.1099 157.223C85.1099 157.58 85.1813 157.865 85.2527 158.151C85.3241 158.437 85.4669 158.651 85.6097 158.722C85.7525 158.865 85.8953 158.936 86.1095 158.936C86.3237 158.936 86.5379 158.865 86.8235 158.722C87.1091 158.579 87.3233 158.365 87.5375 158.151C87.7517 157.937 87.8945 157.651 88.0373 157.437C88.1801 157.223 88.3229 156.937 88.3943 156.652C88.4657 156.295 88.5371 156.009 88.5371 155.795Z" fill="#00B77E"></path><path d="M91.0361 150.725C91.0361 150.083 91.1075 149.44 91.2503 148.798C91.3931 148.155 91.6073 147.584 91.8215 147.013C92.1071 146.441 92.3927 145.942 92.8211 145.513C93.1781 145.013 93.6779 144.656 94.1777 144.371C94.6775 144.085 95.1773 143.942 95.5343 143.942C95.8913 143.942 96.2483 144.085 96.5339 144.371C96.8195 144.656 96.9623 145.013 97.1051 145.442C97.2479 145.942 97.3193 146.441 97.3193 147.084C97.3193 147.298 97.3193 147.512 97.3193 147.798C97.3193 148.084 97.3193 148.298 97.3193 148.583C97.3193 148.869 97.3193 149.155 97.3193 149.369C97.3193 149.654 97.3193 149.869 97.3193 150.083C97.3193 150.725 97.2479 151.368 97.1051 152.011C96.9623 152.653 96.7481 153.224 96.5339 153.796C96.2483 154.367 95.9627 154.867 95.5343 155.295C95.1059 155.723 94.6775 156.152 94.1777 156.437C93.6779 156.723 93.1781 156.866 92.8211 156.866C92.4641 156.866 92.1071 156.723 91.8215 156.437C91.5359 156.152 91.3931 155.795 91.2503 155.366C91.1075 154.867 91.0361 154.367 91.0361 153.724C91.0361 153.51 91.0361 153.296 91.0361 153.01C91.0361 152.725 91.0361 152.51 91.0361 152.225C91.0361 151.939 91.0361 151.654 91.0361 151.439C91.0361 151.225 91.0361 150.94 91.0361 150.725ZM95.9627 148.012C95.9627 147.227 95.7485 146.727 95.4629 146.441C95.1773 146.156 94.7489 146.227 94.2491 146.513C93.7493 146.798 93.3209 147.227 93.0353 147.869C92.7497 148.512 92.5355 149.226 92.5355 150.011C92.5355 150.44 92.5355 150.94 92.5355 151.439C92.5355 151.939 92.5355 152.439 92.5355 152.867C92.5355 153.653 92.7497 154.153 93.0353 154.438C93.3209 154.724 93.7493 154.652 94.2491 154.367C94.7489 154.081 95.1773 153.653 95.4629 153.01C95.7485 152.368 95.9627 151.654 95.9627 150.868C95.9627 150.44 95.9627 149.94 95.9627 149.44C95.9627 148.869 95.9627 148.369 95.9627 148.012Z" fill="#00B77E"></path><path d="M103.745 150.726C103.602 150.797 103.531 150.797 103.459 150.726C103.388 150.654 103.317 150.583 103.317 150.583L100.246 145.371V152.225C100.246 152.368 100.246 152.439 100.175 152.582C100.104 152.725 100.032 152.796 99.9608 152.868L99.104 153.368C99.0326 153.439 98.9612 153.439 98.8898 153.368C98.8184 153.296 98.8184 153.225 98.8184 153.082V142.301C98.8184 142.158 98.8184 142.086 98.8898 141.944C98.9612 141.801 99.0326 141.729 99.104 141.658L99.8894 141.23C100.032 141.158 100.104 141.158 100.175 141.23C100.246 141.301 100.318 141.372 100.318 141.372L103.388 146.585V139.73C103.388 139.587 103.388 139.516 103.459 139.373C103.531 139.23 103.602 139.159 103.674 139.088L104.53 138.588C104.602 138.516 104.673 138.516 104.745 138.588C104.816 138.659 104.816 138.731 104.816 138.873V149.655C104.816 149.798 104.816 149.869 104.745 150.012C104.673 150.155 104.602 150.226 104.53 150.297L103.745 150.726Z" fill="#00B77E"></path><path d="M111.599 134.517C111.671 134.446 111.742 134.446 111.814 134.517C111.885 134.589 111.885 134.66 111.885 134.803V136.017C111.885 136.16 111.885 136.231 111.814 136.374C111.742 136.517 111.671 136.588 111.599 136.659L109.672 137.802V146.941C109.672 147.084 109.672 147.155 109.6 147.298C109.529 147.441 109.457 147.512 109.386 147.584L108.529 148.083C108.458 148.155 108.386 148.155 108.315 148.083C108.244 148.012 108.244 147.941 108.244 147.798V138.659L106.316 139.801C106.244 139.872 106.173 139.872 106.102 139.801C106.03 139.73 106.03 139.658 106.03 139.515V138.302C106.03 138.159 106.03 138.087 106.102 137.945C106.173 137.802 106.244 137.73 106.316 137.659L111.599 134.517Z" fill="#00B77E"></path><path d="M116.026 131.947C116.954 131.447 117.597 131.376 118.097 131.733C118.597 132.09 118.811 132.875 118.811 134.018C118.811 134.803 118.668 135.588 118.454 136.302C118.24 137.016 117.883 137.659 117.383 138.23L118.882 141.515C118.882 141.586 118.882 141.657 118.882 141.657C118.882 141.729 118.882 141.872 118.811 141.943C118.739 142.014 118.739 142.086 118.668 142.157L117.74 142.657C117.597 142.728 117.454 142.728 117.454 142.657C117.383 142.586 117.311 142.514 117.311 142.443L115.883 139.373L114.455 140.229V144.156C114.455 144.299 114.455 144.371 114.384 144.513C114.313 144.656 114.241 144.728 114.17 144.799L113.313 145.299C113.242 145.37 113.17 145.37 113.099 145.299C113.027 145.227 113.027 145.156 113.027 145.013V134.232C113.027 134.089 113.027 134.018 113.099 133.875C113.17 133.732 113.242 133.661 113.313 133.589L116.026 131.947ZM114.384 138.159L115.955 137.231C116.383 137.016 116.669 136.659 116.954 136.302C117.169 135.945 117.311 135.446 117.311 134.803C117.311 134.16 117.169 133.803 116.954 133.732C116.74 133.661 116.383 133.732 115.955 134.018L114.384 134.946V138.159Z" fill="#00B77E"></path><path d="M123.809 127.449C123.951 127.378 124.023 127.378 124.094 127.449C124.166 127.52 124.237 127.592 124.237 127.806L126.879 136.802C126.879 136.802 126.879 136.874 126.879 136.945C126.879 137.088 126.879 137.159 126.807 137.302C126.736 137.445 126.665 137.516 126.593 137.588L125.808 138.016C125.665 138.088 125.594 138.088 125.522 138.016C125.451 137.945 125.451 137.873 125.379 137.802L124.88 136.231L121.452 138.23L120.953 140.372C120.953 140.444 120.881 140.587 120.81 140.729C120.738 140.872 120.667 140.944 120.524 141.015L119.739 141.443C119.667 141.515 119.596 141.515 119.525 141.443C119.453 141.372 119.453 141.301 119.453 141.158C119.453 141.086 119.453 141.086 119.453 141.015L122.095 128.948C122.166 128.734 122.166 128.591 122.238 128.449C122.309 128.306 122.381 128.234 122.523 128.163L123.809 127.449ZM124.38 134.446L123.166 130.376L121.952 135.803L124.38 134.446Z" fill="#00B77E"></path><path d="M132.377 130.519C132.377 130.377 132.448 130.234 132.52 130.162C132.591 130.02 132.663 129.948 132.734 129.948L133.591 129.448C133.662 129.377 133.734 129.377 133.805 129.448C133.876 129.52 133.876 129.591 133.876 129.734C133.876 130.234 133.805 130.734 133.662 131.233C133.519 131.733 133.377 132.304 133.091 132.804C132.805 133.304 132.52 133.804 132.091 134.304C131.663 134.803 131.235 135.16 130.663 135.517C130.164 135.803 129.735 135.946 129.307 135.946C128.95 135.946 128.593 135.803 128.307 135.589C128.022 135.303 127.807 134.946 127.665 134.518C127.522 134.018 127.45 133.447 127.379 132.804C127.379 132.376 127.379 131.947 127.379 131.448C127.379 130.948 127.379 130.448 127.379 130.02C127.379 129.306 127.522 128.663 127.665 128.02C127.807 127.378 128.022 126.735 128.307 126.164C128.593 125.593 128.878 125.093 129.307 124.665C129.664 124.236 130.164 123.879 130.663 123.594C131.235 123.237 131.734 123.094 132.091 123.094C132.52 123.094 132.805 123.237 133.091 123.451C133.377 123.665 133.519 123.951 133.662 124.379C133.805 124.736 133.876 125.164 133.876 125.593C133.876 125.736 133.876 125.878 133.805 125.95C133.734 126.093 133.662 126.164 133.591 126.164L132.734 126.664C132.663 126.735 132.591 126.735 132.52 126.664C132.448 126.664 132.448 126.521 132.377 126.378C132.377 126.164 132.306 125.95 132.234 125.807C132.163 125.664 132.02 125.521 131.877 125.45C131.734 125.379 131.592 125.307 131.377 125.307C131.163 125.307 130.949 125.379 130.663 125.593C130.378 125.736 130.164 125.95 129.949 126.235C129.735 126.521 129.592 126.735 129.45 127.092C129.307 127.378 129.164 127.735 129.093 128.092C129.021 128.449 128.95 128.806 128.95 129.163C128.95 129.591 128.95 130.091 128.95 130.591C128.95 131.091 128.95 131.59 128.95 131.947C128.95 132.304 129.021 132.59 129.093 132.876C129.164 133.161 129.307 133.375 129.45 133.447C129.592 133.59 129.735 133.661 129.949 133.661C130.164 133.661 130.378 133.59 130.663 133.447C130.949 133.304 131.163 133.09 131.377 132.876C131.592 132.661 131.734 132.376 131.877 132.162C132.02 131.947 132.163 131.662 132.234 131.376C132.306 130.948 132.377 130.734 132.377 130.519Z" fill="#00B77E"></path><path d="M140.159 118.024C140.23 117.953 140.302 117.953 140.373 118.024C140.445 118.096 140.445 118.167 140.445 118.31V119.524C140.445 119.666 140.445 119.738 140.373 119.881C140.302 120.023 140.23 120.095 140.159 120.166L138.231 121.309V130.448C138.231 130.591 138.231 130.662 138.16 130.805C138.088 130.948 138.017 131.019 137.946 131.09L137.089 131.59C137.017 131.662 136.946 131.662 136.875 131.59C136.803 131.519 136.803 131.447 136.803 131.305V122.165L134.875 123.308C134.804 123.379 134.733 123.379 134.661 123.308C134.59 123.236 134.59 123.165 134.59 123.022V121.808C134.59 121.666 134.59 121.594 134.661 121.451C134.733 121.309 134.804 121.237 134.875 121.166L140.159 118.024Z" fill="#00B77E"></path><path opacity="0.2" d="M169.79 217.913V214.842C163.007 218.769 157.509 229.265 157.509 238.262L159.794 236.905C159.794 229.622 164.292 221.054 169.79 217.913ZM178.644 226.052C178.644 219.555 174.645 216.556 169.79 219.341C164.935 222.125 160.937 229.693 160.937 236.191C160.937 242.688 164.935 245.687 169.79 242.903C174.645 240.118 178.644 232.55 178.644 226.052ZM162.079 235.62C162.079 229.979 165.506 223.339 169.79 220.911C170.076 220.769 170.361 220.626 170.647 220.483L162.15 236.762C162.15 236.405 162.079 235.977 162.079 235.62ZM162.436 238.404L172.004 220.126C174.503 219.697 176.43 221.197 177.144 224.053L167.577 242.26C165.149 242.688 163.15 241.26 162.436 238.404ZM177.43 225.695C177.43 226.052 177.501 226.409 177.501 226.766C177.501 232.407 174.074 239.047 169.79 241.475C169.505 241.617 169.219 241.76 169.005 241.903L177.43 225.695ZM169.79 211.772C161.793 216.413 155.225 228.837 155.225 239.547C155.225 250.257 161.722 255.183 169.79 250.542C177.787 245.901 184.356 233.478 184.356 222.768C184.356 212.058 177.787 207.131 169.79 211.772ZM169.79 249.043C162.436 253.327 156.367 248.757 156.367 238.904C156.367 229.051 162.365 217.555 169.79 213.343C177.144 209.059 183.213 213.629 183.213 223.482C183.213 233.264 177.144 244.759 169.79 249.043ZM179.786 225.41C179.786 232.764 175.288 241.26 169.79 244.473V247.544C176.573 243.617 182.071 233.121 182.071 224.124L179.786 225.41Z" fill="#00B77E"></path><path d="M145.157 268.249L90.6072 299.737C90.036 300.094 89.322 299.808 89.1078 299.165V299.094C88.8936 298.451 89.2506 297.595 89.8218 297.309L144.371 265.822C144.943 265.465 145.585 265.75 145.799 266.393V266.464C146.085 267.107 145.728 267.892 145.157 268.249Z" fill="#E0E0E0"></path><path d="M132.02 283.243L93.8205 305.377C93.2493 305.734 92.5353 305.52 92.2497 304.877C92.2497 304.877 92.2497 304.877 92.2497 304.806C91.9641 304.163 92.2497 303.378 92.8209 303.021L131.02 280.887C131.591 280.53 132.305 280.816 132.591 281.387C132.591 281.387 132.591 281.387 132.591 281.458C132.876 282.101 132.662 282.886 132.02 283.243Z" fill="#E0E0E0"></path><path d="M194.708 247.258L156.509 269.392C155.938 269.749 155.224 269.535 154.938 268.892C154.938 268.892 154.938 268.892 154.938 268.821C154.653 268.178 154.938 267.393 155.509 267.036L193.708 244.902C194.28 244.545 194.994 244.83 195.279 245.401C195.279 245.401 195.279 245.401 195.279 245.473C195.565 246.187 195.279 246.972 194.708 247.258Z" fill="#E0E0E0"></path><path d="M122.737 264.894C122.023 266.607 120.952 268.107 119.667 269.106C119.524 269.249 119.382 269.392 119.239 269.392C118.953 269.463 118.882 269.249 118.882 268.892C118.81 268.392 118.882 267.892 118.953 267.393C119.096 266.393 119.239 265.465 119.382 264.465C119.667 262.894 119.953 261.324 120.238 259.824C120.524 259.182 120.81 258.468 121.024 257.825C121.738 255.897 122.38 253.898 122.809 251.827C123.309 249.828 123.737 247.686 123.38 245.616C123.38 245.401 123.094 245.259 122.952 245.473C122.095 247.401 121.809 249.685 121.381 251.756C120.881 254.184 120.381 256.611 119.881 259.039C119.881 259.182 119.81 259.396 119.81 259.539C119.31 260.681 118.81 261.823 118.239 262.894C117.882 263.537 117.597 264.18 117.24 264.751C116.883 265.322 116.597 265.965 116.169 266.464C115.597 267.107 114.883 266.893 114.598 266.107C114.526 265.965 114.455 265.75 114.455 265.536C114.955 265.108 115.383 264.394 115.74 263.751C116.169 263.037 116.454 262.252 116.74 261.466C117.025 260.61 117.24 259.753 117.382 258.896C117.454 258.325 117.668 257.468 117.311 256.968C116.954 256.397 116.454 256.897 116.169 257.397C115.74 258.111 115.383 258.896 115.026 259.753C114.455 261.324 113.884 263.251 113.884 265.036C113.884 265.108 113.884 265.179 113.884 265.251C113.812 265.322 113.741 265.322 113.741 265.393C113.098 265.822 112.099 265.679 112.099 264.537C112.099 264.251 111.742 264.108 111.67 264.394C111.313 265.251 111.242 266.322 110.814 267.107C110.599 267.464 110.171 267.892 109.885 267.678C109.743 267.535 109.6 267.321 109.6 267.036C109.671 266.893 109.671 266.75 109.743 266.679C109.814 266.393 109.457 266.179 109.314 266.393C109.171 266.536 109.1 266.75 109.1 266.964C108.886 267.607 108.672 268.249 108.386 268.821C108.243 268.178 108.243 267.535 108.386 266.821C108.457 266.536 107.958 266.393 107.958 266.679C107.743 267.535 107.529 268.392 107.244 269.249C107.101 269.677 106.887 270.106 106.744 270.463C106.53 270.891 106.315 271.462 105.958 271.748C105.816 271.891 105.601 272.034 105.459 271.891C105.244 271.748 105.244 271.32 105.244 271.034C105.244 270.534 105.244 270.106 105.244 269.606C105.316 268.678 105.459 267.75 105.673 266.893C105.744 266.607 105.316 266.393 105.244 266.679C104.816 268.107 104.316 269.535 103.674 270.82C103.388 271.462 103.102 272.105 102.745 272.748C102.603 273.033 102.174 273.676 101.817 273.676C101.889 273.533 101.96 273.39 102.031 273.319C102.817 271.891 103.459 270.391 104.031 268.821C104.53 267.321 105.03 265.608 105.173 263.965C105.244 263.466 105.102 262.966 104.745 262.752C104.887 261.895 104.959 261.038 104.816 260.181C104.53 258.682 103.459 258.111 102.317 258.468C101.032 258.896 99.9609 260.181 99.1041 261.395C97.3905 263.751 95.9625 266.536 94.9629 269.463C94.4631 270.963 94.0347 272.533 93.6777 274.104C93.3921 275.604 92.9637 277.389 93.4635 278.888C94.6773 282.387 98.0331 279.174 99.3897 277.46C100.175 276.46 100.889 275.318 101.532 274.176C101.889 274.318 102.317 274.104 102.603 273.819C103.102 273.319 103.388 272.605 103.674 271.962C104.031 271.177 104.388 270.391 104.745 269.535C104.745 269.82 104.745 270.177 104.745 270.463C104.745 270.963 104.673 271.605 104.887 272.034C105.03 272.319 105.387 272.462 105.673 272.462C106.458 272.391 106.887 271.177 107.244 270.391C107.529 269.82 107.743 269.178 107.886 268.606C107.958 268.892 108.029 269.249 108.1 269.535C108.172 269.749 108.386 269.749 108.529 269.606C108.814 268.963 109.1 268.321 109.314 267.678C109.528 268.035 109.957 268.249 110.314 268.178C111.385 267.892 111.528 266.464 111.885 265.251C112.027 265.536 112.242 265.75 112.527 265.893C113.027 266.179 113.527 266.107 114.027 265.75C114.169 266.25 114.384 266.679 114.669 266.964C115.098 267.393 115.669 267.464 116.169 267.036C116.74 266.536 117.168 265.679 117.525 265.036C117.954 264.251 118.382 263.466 118.81 262.68C118.953 262.395 119.096 262.038 119.239 261.752C118.953 263.109 118.739 264.394 118.525 265.75C118.453 266.322 118.382 266.893 118.311 267.464C118.239 267.964 118.168 268.464 118.239 268.892C118.311 269.677 118.81 270.106 119.453 269.892C119.81 269.749 120.167 269.392 120.453 269.106C120.81 268.749 121.167 268.321 121.524 267.892C122.166 267.036 122.666 266.107 123.166 265.036C123.309 264.822 122.88 264.608 122.737 264.894ZM121.738 252.327C121.952 251.185 122.238 249.971 122.452 248.829C122.595 248.043 122.809 247.329 123.023 246.544C123.094 247.829 122.88 249.114 122.595 250.328C122.309 251.756 121.881 253.255 121.524 254.612C121.309 255.397 121.024 256.183 120.738 256.968C121.095 255.397 121.452 253.827 121.738 252.327ZM100.175 275.532C99.3897 276.675 98.6043 277.817 97.6047 278.602C97.1049 279.031 96.6051 279.388 96.1053 279.602C95.6055 279.888 95.0343 280.102 94.5345 279.673C93.6063 278.817 93.6777 277.174 93.8919 275.889C94.1061 274.533 94.3917 273.247 94.7487 271.962C95.4627 269.392 96.4623 266.964 97.6761 264.751C98.3187 263.608 99.0327 262.537 99.7467 261.538C100.532 260.467 101.532 259.253 102.745 259.039C104.459 258.682 104.53 260.681 104.245 262.68C103.745 262.752 103.245 263.109 102.888 263.537C101.96 264.608 101.389 266.25 101.032 267.75C100.889 268.249 100.818 268.749 100.746 269.249C100.318 269.535 99.8181 269.749 99.3183 269.749C98.6043 269.749 98.6757 268.464 98.7471 267.821C98.8185 267.107 99.0327 266.393 99.3183 265.679C99.3897 265.536 99.1041 265.251 99.0327 265.465C98.7471 266.179 98.4615 267.036 98.3901 267.892C98.3187 268.535 98.2473 269.392 98.6043 269.892C98.9613 270.391 99.6039 270.249 100.104 270.106C100.318 270.034 100.461 269.963 100.675 269.892C100.603 270.748 100.675 271.677 100.818 272.533C100.889 272.962 100.96 273.462 101.175 273.89C100.889 274.461 100.532 275.032 100.175 275.532ZM104.102 263.323C103.888 264.394 103.531 265.465 103.317 265.965C102.817 267.107 102.174 268.107 101.389 268.821C101.603 267.75 101.889 266.679 102.317 265.679C102.603 265.036 102.888 264.394 103.317 263.965C103.531 263.751 103.745 263.537 104.031 263.394C104.031 263.323 104.102 263.323 104.102 263.323ZM101.532 273.319C101.46 273.105 101.46 272.89 101.389 272.676C101.317 272.319 101.246 271.962 101.246 271.605C101.175 270.891 101.175 270.249 101.246 269.535C101.46 269.392 101.674 269.249 101.889 269.035C102.96 268.035 103.674 266.607 104.173 265.036C104.316 264.537 104.459 264.037 104.602 263.466C104.602 263.537 104.602 263.537 104.602 263.608C104.602 263.751 104.602 263.965 104.602 264.108C104.459 265.536 104.102 266.893 103.674 268.178C103.102 270.034 102.388 271.748 101.532 273.319ZM114.526 263.466C114.741 262.038 115.169 260.61 115.74 259.324C116.026 258.682 116.311 257.968 116.74 257.468C116.811 257.397 116.954 257.182 117.025 257.254C117.097 257.254 117.097 257.468 117.097 257.539C117.097 257.682 117.097 257.896 117.097 258.039C117.025 258.396 116.954 258.825 116.883 259.182C116.597 260.752 116.026 262.252 115.312 263.537C115.026 263.965 114.741 264.465 114.455 264.894C114.384 264.394 114.455 263.965 114.526 263.466ZM137.517 256.611C137.446 256.611 137.374 256.611 137.303 256.54C137.374 255.397 137.374 254.326 137.374 253.184C137.303 251.042 137.232 248.971 136.946 246.901C136.946 246.687 136.875 246.472 136.875 246.258C136.946 245.616 137.089 244.973 137.16 244.33C137.303 243.045 137.374 241.474 136.446 240.76C136.303 240.689 136.161 240.689 136.089 240.903C135.875 242.403 136.089 243.831 136.303 245.259C136.303 245.473 136.375 245.758 136.375 245.973C136.232 246.972 136.018 248.043 135.732 249.043C135.375 250.328 134.947 251.613 134.518 252.827C134.304 253.47 134.019 254.041 133.733 254.612C133.447 255.255 133.019 255.897 132.519 256.183C132.376 255.969 132.376 255.683 132.376 255.397C132.376 255.112 132.019 254.969 131.948 255.255C131.948 255.326 131.877 255.397 131.877 255.469C131.948 254.755 132.019 254.041 132.091 253.327C132.162 253.113 131.734 252.898 131.662 253.113C131.448 253.969 131.163 254.755 130.877 255.469C130.663 255.897 130.52 256.254 130.234 256.611C130.092 256.825 129.806 257.325 129.592 257.254C129.092 257.182 129.449 255.112 129.592 254.683C129.592 254.541 129.663 254.398 129.663 254.326C129.949 253.684 130.163 253.041 130.377 252.399C130.449 252.113 130.092 251.899 130.02 252.113C129.806 252.541 129.663 252.97 129.52 253.398C128.878 254.898 128.164 256.397 127.307 257.682C126.807 258.468 126.093 259.753 125.236 259.896C124.737 259.967 124.594 259.539 124.594 258.967C125.451 258.039 126.236 256.968 126.879 255.826C127.378 254.969 129.592 250.328 127.521 250.542C126.593 250.614 126.022 251.827 125.665 252.756C125.165 253.898 124.808 255.112 124.522 256.397C124.38 256.968 124.308 257.611 124.237 258.253C124.237 258.396 124.237 258.61 124.237 258.825C123.594 259.539 122.809 260.181 122.023 260.752C121.881 260.895 122.095 261.181 122.238 261.109C122.952 260.61 123.594 260.11 124.237 259.467C124.237 259.61 124.308 259.753 124.38 259.896C124.879 260.895 125.95 260.395 126.522 259.753C127.378 258.825 128.092 257.539 128.735 256.326C128.878 256.111 128.949 255.897 129.092 255.612C129.021 256.326 128.949 257.325 129.449 257.539C130.092 257.896 130.591 256.968 130.877 256.397C131.091 256.04 131.305 255.612 131.448 255.183C131.448 255.397 131.448 255.683 131.377 255.897C131.377 256.111 131.591 256.254 131.662 256.183C131.805 256.111 131.877 255.969 131.948 255.897C132.019 256.111 132.091 256.254 132.162 256.397C132.234 256.468 132.305 256.54 132.448 256.54C133.662 256.183 134.304 254.326 134.804 253.041C135.375 251.685 135.875 250.257 136.232 248.757C136.303 248.329 136.446 247.972 136.518 247.543C136.589 248.4 136.66 249.328 136.732 250.185C136.875 252.184 136.875 254.255 136.803 256.254C135.804 256.183 134.875 256.611 134.019 257.254C132.948 257.968 131.805 258.896 130.948 260.038C130.163 261.109 129.663 262.395 129.735 263.894C129.806 265.179 130.449 266.322 131.448 266.679C133.59 267.321 135.447 264.608 136.232 262.252C136.875 260.538 137.16 258.682 137.232 256.825C137.303 256.825 137.374 256.825 137.446 256.825C137.803 257.111 137.731 256.683 137.517 256.611ZM124.737 257.111C124.951 256.111 125.165 255.112 125.522 254.184C125.879 253.255 126.236 252.113 126.95 251.47C127.093 251.328 127.45 251.042 127.593 251.185C127.878 251.328 127.807 251.685 127.735 252.042C127.664 252.613 127.521 253.113 127.307 253.612C126.95 254.541 126.522 255.469 125.95 256.326C125.522 257.111 124.951 257.825 124.451 258.468C124.594 257.825 124.737 257.325 124.737 257.111ZM136.589 244.473C136.446 243.474 136.375 242.403 136.446 241.403C136.875 242.188 136.732 243.545 136.589 244.473ZM136.446 259.61C136.018 262.109 134.947 264.965 133.09 266.036C132.162 266.536 131.091 266.464 130.591 265.251C130.092 264.037 130.306 262.537 130.877 261.395C131.591 259.967 132.805 259.039 133.947 258.182C134.875 257.539 135.804 256.968 136.875 256.897C136.732 257.896 136.589 258.753 136.446 259.61Z" fill="#455A64"></path><path d="M64.7607 285.885C64.9035 289.884 65.4033 293.811 66.4029 297.595L81.7539 288.741L85.8237 276.818L81.7539 276.032L64.7607 285.885Z" fill="#E0E0E0"></path><path d="M80.3965 273.748L50.1943 291.17V303.807L80.3965 286.386L85.8943 276.89L80.3965 273.748Z" fill="#00B77E"></path><path d="M61.7613 287.457C61.8327 287.457 61.8327 287.457 61.9041 287.457C61.9041 287.457 61.9755 287.528 61.9755 287.6V293.669C61.9755 293.74 61.9755 293.812 61.9041 293.883C61.9041 293.954 61.8327 294.026 61.7613 294.026L61.2615 294.311C61.1901 294.311 61.1901 294.311 61.1187 294.311C61.1187 294.311 61.0473 294.24 61.0473 294.169V291.67L59.1909 292.741V295.24C59.1909 295.311 59.1909 295.382 59.1195 295.454C59.1195 295.525 59.0481 295.597 58.9767 295.597L58.4769 295.882C58.4055 295.882 58.4055 295.882 58.3341 295.882C58.3341 295.882 58.2627 295.811 58.2627 295.739V289.67C58.2627 289.599 58.2627 289.528 58.3341 289.456C58.3341 289.385 58.4055 289.313 58.4769 289.313L58.9767 289.028C59.0481 289.028 59.0481 289.028 59.1195 289.028C59.1195 289.028 59.1909 289.099 59.1909 289.171V291.598L61.0473 290.527V288.1C61.0473 288.028 61.0473 287.957 61.1187 287.885C61.1187 287.814 61.1901 287.743 61.2615 287.743L61.7613 287.457Z" fill="white"></path><path d="M65.688 290.527C65.7594 290.527 65.7594 290.527 65.8308 290.527C65.8308 290.527 65.9022 290.598 65.9022 290.67V291.312C65.9022 291.384 65.9022 291.455 65.8308 291.526C65.8308 291.598 65.7594 291.669 65.688 291.669L63.0462 293.24C62.9748 293.24 62.9748 293.24 62.9034 293.24C62.9034 293.24 62.832 293.169 62.832 293.097V287.028C62.832 286.957 62.832 286.885 62.9034 286.814C62.9034 286.743 62.9748 286.671 63.0462 286.671L65.688 285.172C65.7594 285.172 65.7594 285.172 65.8308 285.172C65.8308 285.172 65.9022 285.243 65.9022 285.315V285.957C65.9022 286.029 65.9022 286.1 65.8308 286.171C65.8308 286.243 65.7594 286.314 65.688 286.314L63.6888 287.457V288.956L65.5452 287.885C65.6166 287.885 65.6166 287.885 65.688 287.885C65.688 287.885 65.7594 287.956 65.7594 288.028V288.67C65.7594 288.742 65.7594 288.813 65.688 288.885C65.688 288.956 65.6166 289.027 65.5452 289.027L63.6888 290.098V291.669L65.688 290.527Z" fill="white"></path><path d="M68.3299 283.601C68.8297 283.316 69.1867 283.244 69.4723 283.459C69.7579 283.673 69.9007 284.101 69.9007 284.744C69.9007 285.172 69.8293 285.601 69.6865 286.029C69.5437 286.457 69.3295 286.814 69.1153 287.1L69.9721 288.956V289.028C69.9721 289.099 69.9721 289.171 69.9007 289.171C69.9007 289.242 69.8293 289.242 69.8293 289.313L69.3295 289.599C69.2581 289.67 69.1867 289.67 69.1153 289.599C69.0439 289.528 69.0439 289.528 69.0439 289.456L68.2585 287.743L67.4731 288.242V290.456C67.4731 290.527 67.4731 290.599 67.4017 290.67C67.4017 290.741 67.3303 290.813 67.2589 290.813L66.7591 291.098C66.6877 291.098 66.6877 291.098 66.6163 291.098C66.6163 291.098 66.5449 291.027 66.5449 290.956V284.887C66.5449 284.815 66.5449 284.744 66.6163 284.672C66.6163 284.601 66.6877 284.53 66.7591 284.53L68.3299 283.601ZM67.4731 287.1L68.3299 286.6C68.5441 286.457 68.7583 286.315 68.9011 286.1C69.0439 285.886 69.1153 285.601 69.1153 285.244C69.1153 284.887 69.0439 284.672 68.9011 284.672C68.7583 284.601 68.5441 284.672 68.3299 284.815L67.4731 285.315V287.1Z" fill="white"></path><path d="M73.5425 286.029C73.6139 286.029 73.6139 286.029 73.6853 286.029C73.6853 286.029 73.7567 286.1 73.7567 286.172V286.814C73.7567 286.886 73.7567 286.957 73.6853 287.028C73.6853 287.1 73.6139 287.171 73.5425 287.171L70.9007 288.742C70.8293 288.742 70.8293 288.742 70.7579 288.742C70.7579 288.742 70.6865 288.671 70.6865 288.599V282.53C70.6865 282.459 70.6865 282.387 70.7579 282.316C70.7579 282.245 70.8293 282.173 70.9007 282.173L73.5425 280.674C73.6139 280.674 73.6139 280.674 73.6853 280.674C73.6853 280.674 73.7567 280.745 73.7567 280.817V281.459C73.7567 281.531 73.7567 281.602 73.6853 281.673C73.6853 281.745 73.6139 281.816 73.5425 281.816L71.6147 282.959V284.458L73.4711 283.387C73.5425 283.387 73.5425 283.387 73.6139 283.387C73.6139 283.387 73.6853 283.458 73.6853 283.53V284.172C73.6853 284.244 73.6853 284.315 73.6139 284.387C73.6139 284.458 73.5425 284.529 73.4711 284.529L71.6147 285.6V287.171L73.5425 286.029Z" fill="white"></path><path d="M275.676 287.6L271.464 285.958L272.892 283.102L275.462 285.529L275.676 287.6Z" fill="black"></path><path d="M280.103 279.96C280.103 279.96 280.246 282.745 280.317 283.601C280.317 284.458 276.604 287.171 275.676 287.6L275.462 285.529C274.677 286.315 274.177 287.314 273.32 288.814C272.606 290.027 271.678 292.384 269.679 293.954C266.751 296.311 262.182 297.524 257.541 297.667C252.9 297.81 250.258 296.668 248.973 295.668C247.687 294.668 247.259 293.455 247.616 292.312C247.973 291.17 280.103 279.96 280.103 279.96Z" fill="#263238"></path><path d="M267.751 270.463L267.679 268.893C266.822 268.893 266.68 271.177 265.466 273.248C263.752 275.961 261.325 279.388 258.897 281.53C254.185 285.814 249.972 288.456 247.901 290.384C245.117 292.954 249.972 297.096 257.54 296.667C261.325 296.453 267.965 294.597 269.821 292.383C271.678 290.17 272.891 286.743 274.391 285.1C275.89 283.53 279.103 281.887 280.103 279.96C280.603 278.889 280.388 276.39 280.031 274.248C279.746 272.32 279.746 269.321 278.603 269.535L278.532 270.535C278.104 271.392 277.033 272.82 274.034 273.319C272.534 273.534 268.036 273.676 267.751 270.463Z" fill="#37474F"></path><path opacity="0.15" d="M271.606 273.391C270.178 273.248 268.608 272.748 268.036 271.463C268.036 271.463 268.036 271.463 268.036 271.392C268.036 271.392 268.394 272.891 267.037 274.462C265.68 276.033 257.112 287.171 257.112 287.171C257.112 287.171 265.109 278.032 266.608 276.247C268.822 273.748 269.536 273.462 271.606 273.391Z" fill="black"></path><path opacity="0.15" d="M270.178 276.675C270.415 276.675 270.607 276.483 270.607 276.247C270.607 276.01 270.415 275.818 270.178 275.818C269.942 275.818 269.75 276.01 269.75 276.247C269.75 276.483 269.942 276.675 270.178 276.675Z" fill="black"></path><path opacity="0.15" d="M267.965 279.174C268.202 279.174 268.394 278.982 268.394 278.746C268.394 278.509 268.202 278.317 267.965 278.317C267.729 278.317 267.537 278.509 267.537 278.746C267.537 278.982 267.729 279.174 267.965 279.174Z" fill="black"></path><path opacity="0.15" d="M265.68 281.602C265.917 281.602 266.109 281.41 266.109 281.173C266.109 280.937 265.917 280.745 265.68 280.745C265.444 280.745 265.252 280.937 265.252 281.173C265.252 281.41 265.444 281.602 265.68 281.602Z" fill="black"></path><path opacity="0.15" d="M263.467 284.03C263.704 284.03 263.896 283.838 263.896 283.601C263.896 283.365 263.704 283.173 263.467 283.173C263.231 283.173 263.039 283.365 263.039 283.601C263.039 283.838 263.231 284.03 263.467 284.03Z" fill="black"></path><path opacity="0.15" d="M261.182 286.529C261.419 286.529 261.611 286.337 261.611 286.1C261.611 285.864 261.419 285.672 261.182 285.672C260.946 285.672 260.754 285.864 260.754 286.1C260.754 286.337 260.946 286.529 261.182 286.529Z" fill="black"></path><path d="M270.178 276.461C270.249 276.461 270.249 276.461 270.321 276.389C270.392 276.318 270.392 276.175 270.321 276.104C270.249 276.032 268.036 273.89 265.109 274.033C265.037 274.033 264.966 274.105 264.966 274.247C264.966 274.319 265.037 274.462 265.18 274.39C267.893 274.247 270.107 276.389 270.107 276.389C270.107 276.461 270.107 276.461 270.178 276.461Z" fill="#263238"></path><path d="M267.965 278.889C268.037 278.889 268.037 278.889 268.108 278.817C268.179 278.746 268.179 278.603 268.108 278.532C268.037 278.46 265.823 276.318 262.896 276.461C262.824 276.461 262.753 276.532 262.753 276.675C262.753 276.747 262.824 276.889 262.967 276.818C265.68 276.675 267.894 278.817 267.894 278.817C267.822 278.889 267.894 278.889 267.965 278.889Z" fill="#263238"></path><path d="M265.68 281.388C265.751 281.388 265.751 281.388 265.823 281.316C265.894 281.245 265.894 281.102 265.823 281.031C265.751 280.959 263.538 278.817 260.611 278.96C260.539 278.96 260.468 279.031 260.468 279.174C260.468 279.246 260.539 279.388 260.682 279.317C263.395 279.174 265.609 281.316 265.609 281.316C265.609 281.388 265.68 281.388 265.68 281.388Z" fill="#263238"></path><path d="M263.467 283.815C263.538 283.815 263.538 283.815 263.61 283.744C263.681 283.672 263.681 283.53 263.61 283.458C263.538 283.387 261.325 281.245 258.398 281.388C258.326 281.388 258.255 281.459 258.255 281.602C258.255 281.673 258.326 281.816 258.469 281.745C261.182 281.602 263.396 283.744 263.396 283.744C263.324 283.815 263.396 283.815 263.467 283.815Z" fill="#263238"></path><path d="M261.182 286.243C261.253 286.243 261.253 286.243 261.325 286.172C261.396 286.1 261.396 285.957 261.325 285.886C261.253 285.815 259.04 283.673 256.113 283.815C256.041 283.815 255.97 283.887 255.97 284.03C255.97 284.101 256.041 284.244 256.184 284.172C258.897 284.03 261.111 286.172 261.111 286.172C261.111 286.243 261.182 286.314 261.182 286.243Z" fill="#263238"></path><path d="M310.376 300.951C311.019 304.593 311.875 306.877 313.446 308.877C315.017 310.876 317.802 311.09 319.801 310.662C322.728 310.019 325.513 308.02 326.655 303.879C327.298 301.38 326.869 298.524 325.87 295.239L310.376 300.951Z" fill="#263238"></path><path d="M318.373 273.177C319.372 273.105 320.301 277.96 321.443 282.816C322.728 287.956 324.656 290.741 325.584 294.168C326.869 298.952 326.798 301.237 325.441 304.378C324.085 307.52 316.945 311.447 313.446 307.52C310.59 304.378 310.019 300.523 309.662 295.596C309.305 290.527 309.091 286.885 308.377 283.101C307.734 279.46 307.092 275.89 307.877 275.39C308.02 275.89 308.163 276.604 308.305 277.104C308.377 277.532 308.734 279.46 309.305 279.46C309.305 278.96 309.234 278.532 309.162 278.103C309.091 277.675 309.091 277.246 309.305 276.889C309.519 276.532 309.948 276.39 310.376 276.247C311.376 275.961 312.304 275.604 313.375 275.39C313.875 275.319 314.374 275.176 314.874 275.176C315.303 275.104 317.159 274.89 317.516 274.962C317.802 275.033 318.016 275.176 318.159 275.39C318.23 275.533 318.23 275.747 318.301 275.961C318.373 276.318 318.444 276.604 318.516 276.961C318.587 277.104 318.658 277.246 318.801 277.246C318.944 277.175 318.944 277.032 318.944 276.961C318.873 276.39 318.73 275.961 318.658 275.247C318.587 274.962 318.516 274.533 318.444 274.176C318.516 273.819 318.444 273.462 318.373 273.177Z" fill="#37474F"></path><path opacity="0.15" d="M321.729 296.31C321.926 296.31 322.086 296.15 322.086 295.953C322.086 295.756 321.926 295.596 321.729 295.596C321.532 295.596 321.372 295.756 321.372 295.953C321.372 296.15 321.532 296.31 321.729 296.31Z" fill="black"></path><path opacity="0.15" d="M320.943 292.954C321.14 292.954 321.3 292.794 321.3 292.597C321.3 292.4 321.14 292.24 320.943 292.24C320.746 292.24 320.586 292.4 320.586 292.597C320.586 292.794 320.746 292.954 320.943 292.954Z" fill="black"></path><path opacity="0.15" d="M320.229 289.813C320.426 289.813 320.586 289.653 320.586 289.456C320.586 289.258 320.426 289.099 320.229 289.099C320.032 289.099 319.872 289.258 319.872 289.456C319.872 289.653 320.032 289.813 320.229 289.813Z" fill="black"></path><path opacity="0.15" d="M319.586 286.671C319.784 286.671 319.943 286.511 319.943 286.314C319.943 286.117 319.784 285.957 319.586 285.957C319.389 285.957 319.229 286.117 319.229 286.314C319.229 286.511 319.389 286.671 319.586 286.671Z" fill="black"></path><path opacity="0.15" d="M311.589 288.099C311.787 288.099 311.946 287.939 311.946 287.742C311.946 287.545 311.787 287.385 311.589 287.385C311.392 287.385 311.232 287.545 311.232 287.742C311.232 287.939 311.392 288.099 311.589 288.099Z" fill="black"></path><path opacity="0.15" d="M312.232 291.24C312.429 291.24 312.589 291.081 312.589 290.883C312.589 290.686 312.429 290.526 312.232 290.526C312.035 290.526 311.875 290.686 311.875 290.883C311.875 291.081 312.035 291.24 312.232 291.24Z" fill="black"></path><path opacity="0.15" d="M312.947 294.454C313.144 294.454 313.304 294.294 313.304 294.097C313.304 293.9 313.144 293.74 312.947 293.74C312.75 293.74 312.59 293.9 312.59 294.097C312.59 294.294 312.75 294.454 312.947 294.454Z" fill="black"></path><path opacity="0.15" d="M313.732 297.81C313.929 297.81 314.089 297.65 314.089 297.453C314.089 297.256 313.929 297.096 313.732 297.096C313.535 297.096 313.375 297.256 313.375 297.453C313.375 297.65 313.535 297.81 313.732 297.81Z" fill="black"></path><path opacity="0.15" d="M317.23 298.595L311.661 275.247L313.018 275.104L317.23 298.595Z" fill="black"></path><path d="M321.728 296.096C319.229 295.882 315.302 296.596 313.802 297.524C313.731 297.596 313.588 297.524 313.517 297.453C313.445 297.382 313.517 297.239 313.588 297.167C315.159 296.168 319.157 295.454 321.656 295.668C321.728 295.668 321.799 295.739 321.799 295.882C321.871 296.025 321.799 296.096 321.728 296.096Z" fill="#263238"></path><path d="M321.014 292.74H320.943C319.015 292.098 314.802 293.097 313.089 294.168C313.017 294.24 312.874 294.168 312.803 294.097C312.732 294.026 312.803 293.883 312.874 293.811C314.659 292.669 319.015 291.669 321.014 292.312C321.085 292.312 321.157 292.455 321.157 292.526C321.085 292.74 321.014 292.74 321.014 292.74Z" fill="#263238"></path><path d="M320.3 289.599H320.229C318.301 288.956 314.088 289.956 312.375 291.027C312.303 291.098 312.161 291.027 312.089 290.955C312.018 290.884 312.089 290.741 312.161 290.67C313.946 289.527 318.301 288.528 320.3 289.17C320.372 289.17 320.443 289.313 320.443 289.385C320.372 289.527 320.372 289.599 320.3 289.599Z" fill="#263238"></path><path d="M319.586 286.457H319.515C317.587 285.815 313.374 286.814 311.661 287.885C311.589 287.957 311.447 287.885 311.375 287.814C311.304 287.742 311.375 287.6 311.447 287.528C313.232 286.386 317.587 285.386 319.586 286.029C319.658 286.029 319.729 286.172 319.729 286.243C319.729 286.457 319.658 286.457 319.586 286.457Z" fill="#263238"></path><path d="M312.875 154.224C315.232 184.284 316.731 225.196 316.731 225.196C316.945 227.481 319.159 237.191 320.23 248.472C321.372 260.325 322.372 282.601 322.372 282.601C322.372 282.601 314.089 287.1 307.306 284.815C307.306 284.815 300.095 247.33 296.668 233.335C293.383 220.055 288.314 194.994 288.314 194.994L284.815 219.841C284.815 219.841 285.244 228.409 285.029 234.406C284.744 241.404 280.317 274.89 280.317 274.89C280.317 274.89 271.249 280.245 264.252 274.89C264.252 274.89 263.038 228.694 262.824 220.269C262.467 203.847 264.395 171.931 264.966 150.654L312.875 154.224Z" fill="#263238"></path><path d="M300.666 188.854C301.309 196.065 302.023 203.276 302.737 210.416C303.094 213.986 303.522 217.628 303.95 221.198L304.593 226.553L304.879 229.266C304.95 230.194 305.164 231.051 305.307 231.979C306.521 239.119 308.306 252.043 309.591 259.183C310.876 266.323 312.233 273.391 313.732 280.46C312.804 273.32 311.804 266.108 310.662 258.968C309.52 251.828 307.806 238.834 306.592 231.765C306.449 230.908 306.235 229.98 306.164 229.123L305.807 226.41L305.093 221.055C304.664 217.485 304.165 213.915 303.665 210.274C302.808 203.134 301.737 195.994 300.666 188.854Z" fill="black"></path><path d="M267.393 186.782C266.608 193.494 266.251 200.277 265.965 206.988C265.68 213.7 265.394 220.554 265.68 227.266C265.823 234.049 266.037 245.33 266.251 252.113C266.465 258.896 266.822 265.608 267.179 272.391C267.251 265.608 267.322 258.896 267.251 252.113C267.179 245.33 267.108 234.049 266.965 227.266L266.822 222.197V220.911V219.626V217.127L266.965 206.988L267.108 196.85C267.179 193.565 267.251 190.209 267.393 186.782Z" fill="black"></path><path d="M288.243 195.066L285.315 178.572C285.315 178.572 277.175 177.358 272.963 173.646C272.963 173.646 275.676 178.644 283.387 180.571L286.315 195.137L284.815 219.913L288.243 195.066Z" fill="black"></path><path d="M252.756 102.816C252.828 101.388 253.47 100.245 255.184 99.1031C256.897 97.9607 257.754 97.3181 258.682 96.0329C259.611 94.7477 261.253 92.3915 262.252 91.6061C263.252 90.8207 262.038 89.6783 260.325 89.8925C258.611 90.1067 254.755 92.0345 253.827 94.1051C252.899 96.1757 252.328 100.531 252.756 102.816Z" fill="#F28F8F"></path><path d="M274.962 96.0332C271.035 96.3188 266.322 96.3188 262.252 103.816C258.04 111.598 254.541 117.667 254.541 117.667C254.541 117.667 253.256 112.17 252.899 106.743C252.542 101.388 252.685 99.032 254.398 95.8904C256.612 93.0344 260.753 85.9658 260.967 85.3232C258.325 85.3232 252.97 86.2514 251.971 86.537C251.542 86.6798 251.043 86.894 250.828 87.3224C250.686 87.608 250.686 87.965 250.543 88.322C250.329 88.7504 249.9 89.036 249.472 89.2502C248.544 89.6786 247.544 90.0356 247.116 90.9638C246.901 91.4636 246.901 92.0348 246.687 92.5346C246.33 93.3914 245.545 93.9626 244.902 94.5338C244.117 95.3192 243.831 96.3188 243.546 97.3898C242.189 102.959 241.832 108.6 241.832 117.168C241.832 123.165 242.189 131.305 244.26 135.803C246.33 140.301 250.4 145.442 256.398 139.373C262.395 133.375 272.962 116.596 272.962 116.596L274.962 96.0332Z" fill="#FFA8A7"></path><path d="M255.113 94.8906C253.113 95.7474 252.328 96.5328 252.328 96.5328C252.328 96.5328 253.113 97.7466 252.328 99.5316C251.614 101.388 250.257 102.102 250.614 103.816C250.543 102.388 251.4 101.602 252.185 101.102C254.184 99.8886 255.327 96.033 255.113 94.8906Z" fill="#F28F8F"></path><path d="M274.534 95.748C270.821 96.1764 266.965 96.3192 263.324 101.389C259.611 106.458 254.47 117.097 254.47 117.097L254.613 117.668C254.613 117.668 257.683 121.523 258.254 129.163C258.826 136.803 254.113 141.301 254.113 141.301C254.113 141.301 253.613 141.658 252.328 142.087C252.328 142.087 253.828 143.158 256.041 141.658C258.183 140.087 274.962 116.097 274.962 116.097L274.534 95.748Z" fill="#F0F0F0"></path><path d="M254.327 116.668L254.542 117.739C254.542 117.739 256.541 124.665 253.97 129.949C251.471 135.232 247.83 135.732 245.902 135.589C243.832 135.375 243.118 132.876 243.118 132.876L242.761 131.091C242.761 131.091 241.904 131.662 242.261 132.876C242.618 134.09 243.974 137.16 245.117 139.302C246.259 141.373 250.115 144.371 253.399 142.586C256.684 140.73 258.754 136.232 258.754 130.306C258.754 124.379 257.398 120.524 256.469 119.239C255.541 117.953 253.899 115.24 253.899 115.24L254.327 116.668Z" fill="#E0E0E0"></path><path d="M313.661 98.8894C313.661 98.8894 318.944 103.245 316.445 113.955C314.518 122.38 313.375 131.448 313.09 135.161C312.733 140.801 313.304 159.794 313.304 159.794C304.807 170.004 269.107 167.362 264.68 158.08C264.68 158.08 264.181 122.023 267.394 109.242C269.25 102.031 271.82 97.8184 274.534 95.7478L286.672 92.8918L297.667 92.749L313.661 98.8894Z" fill="#E6E6E6"></path><path d="M308.734 37.9137C309.876 36.1287 309.305 33.7725 307.449 32.6301C305.664 31.4877 303.307 32.0589 302.165 33.9153L300.166 37.1997C299.88 37.6995 299.88 38.3421 300.309 39.1275C301.094 40.6269 303.165 41.9121 304.95 41.9835C305.806 41.9835 306.449 41.6979 306.735 41.2695L308.734 37.9137Z" fill="#455A64"></path><path d="M304.95 41.9124C305.807 41.9124 306.449 41.6268 306.735 41.1984L308.734 37.914C309.448 36.7716 309.448 35.3436 308.877 34.2012C309.234 35.2008 308.234 36.7716 307.092 38.628C305.949 40.413 304.593 41.3412 301.808 39.7704C299.809 38.628 300.023 37.4142 300.309 36.843L300.095 37.2C299.809 37.6998 299.809 38.3424 300.237 39.1278C301.094 40.6272 303.165 41.841 304.95 41.9124Z" fill="#37474F"></path><path d="M308.52 53.6219C311.947 48.0527 310.234 40.6985 304.665 37.2713C299.095 33.8441 291.741 35.5577 288.314 41.1269C287.386 42.6263 287.457 44.6969 288.742 47.0531C291.313 51.7655 297.667 55.6925 303.094 55.9067C305.664 55.9781 307.592 55.1213 308.52 53.6219Z" fill="#307BC1"></path><path d="M308.092 47.6243C305.521 42.9119 299.167 38.9849 293.74 38.7707C291.027 38.6993 289.171 39.5561 288.242 41.0555L243.76 113.312C242.832 114.812 242.903 116.882 244.189 119.239C246.759 123.951 253.114 127.878 258.54 128.092C261.253 128.164 263.11 127.307 264.038 125.807L308.52 53.5505C309.448 52.1225 309.377 49.9805 308.092 47.6243Z" fill="#307BC1"></path><path opacity="0.2" d="M308.092 47.6243C305.521 42.9119 299.167 38.9849 293.74 38.7707C291.027 38.6993 289.171 39.5561 288.242 41.0555L243.76 113.312C242.832 114.812 242.903 116.882 244.189 119.239C246.759 123.951 253.114 127.878 258.54 128.092C261.253 128.164 263.11 127.307 264.038 125.807L308.52 53.5505C309.448 52.1225 309.377 49.9805 308.092 47.6243Z" fill="#307BC1"></path><path d="M255.969 132.732C250.472 132.59 243.903 128.52 241.261 123.665C239.976 121.237 239.904 119.095 240.832 117.524L244.26 111.955C245.188 110.384 247.187 109.527 249.9 109.599C255.398 109.742 261.967 113.811 264.609 118.667C265.894 121.094 265.965 123.236 265.037 124.807L261.61 130.376C260.682 131.876 258.683 132.804 255.969 132.732Z" fill="#307BC1"></path><path opacity="0.35" d="M255.969 132.732C250.472 132.59 243.903 128.52 241.261 123.665C239.976 121.237 239.904 119.095 240.832 117.524L244.26 111.955C245.188 110.384 247.187 109.527 249.9 109.599C255.398 109.742 261.967 113.811 264.609 118.667C265.894 121.094 265.965 123.236 265.037 124.807L261.61 130.376C260.682 131.876 258.683 132.804 255.969 132.732Z" fill="white"></path><path d="M246.473 115.168C251.971 115.311 258.54 119.381 261.181 124.236C262.467 126.664 262.538 128.806 261.61 130.376C260.682 131.947 258.683 132.804 255.969 132.733C250.472 132.59 243.903 128.52 241.261 123.665C239.976 121.237 239.904 119.095 240.832 117.524C241.761 115.954 243.689 115.097 246.473 115.168Z" fill="#307BC1"></path><path opacity="0.15" d="M246.473 115.168C251.971 115.311 258.54 119.381 261.181 124.236C262.467 126.664 262.538 128.806 261.61 130.376C260.682 131.947 258.683 132.804 255.969 132.733C250.472 132.59 243.903 128.52 241.261 123.665C239.976 121.237 239.904 119.095 240.832 117.524C241.761 115.954 243.689 115.097 246.473 115.168Z" fill="black"></path><path d="M201.277 184.855C202.062 183.499 203.776 182.713 206.203 182.785C210.987 182.928 216.699 186.426 218.984 190.639C220.126 192.709 220.198 194.637 219.341 195.922L216.628 198.636C215.771 199.492 214.414 199.992 212.558 199.921C208.131 199.778 202.919 196.565 200.777 192.709C199.92 191.139 199.706 189.639 200.134 188.497L201.277 184.855Z" fill="#307BC1"></path><g opacity="0.15"><path d="M201.277 184.855C202.062 183.499 203.776 182.713 206.203 182.785C210.987 182.928 216.699 186.426 218.984 190.639C220.126 192.709 220.198 194.637 219.341 195.922L216.628 198.636C215.771 199.492 214.414 199.992 212.558 199.921C208.131 199.778 202.919 196.565 200.777 192.709C199.92 191.139 199.706 189.639 200.134 188.497L201.277 184.855Z" fill="black"></path></g><path d="M206.203 182.784C210.987 182.927 216.699 186.426 218.984 190.638C220.126 192.709 220.197 194.637 219.341 195.922L259.467 130.734C260.253 129.377 260.253 127.521 259.11 125.45C256.826 121.238 251.114 117.739 246.33 117.596C243.974 117.525 242.26 118.31 241.403 119.667L201.276 184.855C202.062 183.498 203.775 182.713 206.203 182.784Z" fill="#307BC1"></path><path d="M216.199 198.849C216.985 197.636 216.913 195.993 215.914 194.066C213.914 190.281 208.702 187.14 204.418 187.068C202.276 186.997 200.777 187.711 200.063 188.925C200.063 188.925 200.063 188.925 200.063 188.996C197.492 193.209 192.494 205.847 193.066 212.13L193.208 212.201C193.208 212.487 193.28 212.844 193.494 213.201C194.279 214.629 196.136 215.771 197.778 215.771C198.135 215.771 198.492 215.7 198.778 215.628C204.561 213.272 213.7 202.991 216.199 198.849Z" fill="#307BC1"></path><path opacity="0.2" d="M259.111 125.45C258.682 124.664 258.183 123.95 257.611 123.308L217.413 188.496C217.984 189.21 218.556 189.924 218.913 190.638C218.984 190.781 219.055 190.924 219.127 191.066L259.254 125.878C259.182 125.735 259.182 125.593 259.111 125.45ZM265.608 121.309C265.537 121.094 265.537 120.88 265.465 120.666C265.465 120.666 300.237 64.2599 305.092 56.4059C310.305 47.9807 310.233 44.4107 308.377 40.9121C309.519 44.3393 304.735 52.0505 304.093 53.0501C299.095 61.1897 264.18 117.881 264.18 117.881C264.323 118.167 264.537 118.453 264.68 118.738L261.253 124.307C261.681 125.164 262.038 126.021 262.252 126.949L265.608 121.309ZM195.779 215.2L197.85 214.271C197.85 214.271 199.349 214.414 203.847 210.344C208.345 206.203 211.059 201.776 215.842 194.065C215.343 193.208 214.7 192.352 213.986 191.566C213.915 191.638 208.631 201.919 201.991 209.131C199.563 211.772 197.278 213.7 195.351 214.985C195.565 215.128 195.708 215.2 195.779 215.2Z" fill="white"></path><path d="M194.708 212.344L193.066 215.057C192.352 216.199 191.138 219.555 192.138 220.126C193.066 220.697 195.494 218.198 196.279 216.985L197.921 214.271C197.921 214.271 197.921 213.557 196.636 212.843C195.351 212.058 194.708 212.344 194.708 212.344Z" fill="#455A64"></path><path d="M193.352 219.912C193.28 219.555 193.066 219.27 192.78 219.127C192.495 218.913 192.138 218.913 191.781 218.984C191.709 219.555 191.852 219.984 192.138 220.198C192.423 220.341 192.852 220.198 193.352 219.912Z" fill="#263238"></path><path d="M260.967 85.3945C261.967 85.4659 263.895 86.4655 265.323 87.4651C266.822 88.3933 268.179 88.5361 267.679 89.6071C267.465 90.1069 266.608 90.5353 265.68 90.5353C264.68 90.5353 263.68 90.2497 263.252 90.1069C264.966 91.6063 265.394 92.1775 264.894 92.7487C264.18 93.5341 262.895 93.3913 261.824 92.8915C262.395 93.4627 263.109 93.8197 262.752 94.3909C262.395 94.9621 261.396 95.1763 260.11 94.8907C258.825 94.6765 258.468 94.3909 257.826 94.1053C256.469 94.4623 255.041 94.9621 255.041 94.9621C256.398 91.6063 258.325 88.3933 260.967 85.3945Z" fill="#FFA8A7"></path><path d="M261.896 92.8205C261.182 92.3921 260.468 91.8923 259.754 91.4639C259.04 91.0355 258.254 91.1069 257.397 91.1783C256.541 91.2497 255.755 91.4639 254.898 91.6067C254.042 91.7495 253.256 91.8923 252.399 92.0351C253.185 91.8209 254.042 91.6067 254.827 91.3925C255.612 91.1783 256.469 91.0355 257.326 90.8927C257.754 90.8213 258.183 90.8213 258.611 90.8213C259.04 90.8213 259.468 91.0355 259.825 91.2497C260.61 91.7495 261.253 92.3207 261.896 92.8205Z" fill="#F28F8F"></path><path d="M263.324 90.0354C262.681 89.607 262.039 89.25 261.396 88.8216C261.039 88.6788 260.753 88.4646 260.396 88.3218C260.039 88.179 259.682 88.179 259.325 88.2504C258.611 88.2504 257.826 88.3932 257.112 88.4646C256.398 88.536 255.613 88.6788 254.827 88.7502C255.541 88.536 256.327 88.3932 257.041 88.2504C257.755 88.1076 258.54 87.9648 259.325 87.9648C259.682 87.9648 260.111 87.9648 260.468 88.1076C260.825 88.2504 261.182 88.4646 261.467 88.6788C262.181 89.1072 262.824 89.5356 263.324 90.0354Z" fill="#F28F8F"></path><path d="M300.523 60.6191C300.523 60.6191 302.879 60.6191 304.664 63.5465C305.521 64.9745 306.306 67.6877 304.664 75.6131C303.593 80.7539 302.094 83.0387 301.451 84.4667C300.809 85.8947 299.309 86.3945 299.309 86.3945L299.095 80.3969L299.024 76.1843C299.024 76.1843 296.096 72.6857 295.596 69.6869C294.954 65.8313 295.668 64.1891 295.668 64.1891L300.523 60.6191Z" fill="#37474F"></path><path d="M301.38 60.7619C300.594 57.4061 296.025 53.6933 287.742 53.7647C280.959 53.8361 277.175 56.4065 275.033 60.5477C272.962 64.6175 274.819 69.6869 274.819 69.6869L296.025 66.9023L301.38 60.7619Z" fill="#37474F"></path><path d="M304.664 81.8252C302.379 83.1818 300.094 81.1826 300.094 81.1826L300.451 93.6062C300.451 93.6062 300.38 96.0338 296.667 98.3186C291.455 101.603 289.17 102.531 287.028 105.816C284.957 100.603 282.815 97.7474 286.028 93.4634L285.886 90.6074C285.886 90.6074 283.815 90.893 282.173 90.7502C279.388 90.4646 277.532 88.394 276.532 85.4666C275.033 81.1112 274.105 74.114 275.318 66.4742C275.533 64.9748 276.247 63.6182 277.389 62.6186C282.53 58.049 288.884 60.7622 293.597 62.2616C295.525 62.9042 298.238 62.5472 299.38 61.9046C297.881 63.761 297.238 65.546 297.667 74.114C298.166 74.8994 298.595 75.3278 298.952 75.6134C300.023 76.3988 300.665 74.114 301.451 73.1858C302.236 72.2576 305.378 71.258 306.949 74.114C308.448 76.8986 307.448 80.183 304.664 81.8252Z" fill="#FFA8A7"></path><path d="M288.813 69.1878L291.955 70.3302C292.241 69.402 291.812 68.4738 290.955 68.1168C290.099 67.7598 289.099 68.2596 288.813 69.1878Z" fill="#37474F"></path><path d="M277.318 70.0441L280.46 68.9017C280.174 68.0449 279.246 67.5451 278.389 67.8307C277.461 68.1877 277.032 69.1873 277.318 70.0441Z" fill="#37474F"></path><path d="M289.456 73.7571C290.205 73.7571 290.813 73.1498 290.813 72.4005C290.813 71.6513 290.205 71.0439 289.456 71.0439C288.707 71.0439 288.1 71.6513 288.1 72.4005C288.1 73.1498 288.707 73.7571 289.456 73.7571Z" fill="#263238"></path><path d="M280.745 72.4717C280.745 73.1857 280.174 73.8283 279.46 73.8283C278.746 73.8283 278.104 73.2571 278.104 72.5431C278.104 71.8291 278.675 71.1865 279.389 71.1865C280.174 71.1865 280.674 71.6149 280.745 72.4717Z" fill="#263238"></path><path d="M285.672 69.6875L285.101 78.3269L280.46 76.9703C281.888 73.8287 283.602 71.4011 285.672 69.6875Z" fill="#F28F8F"></path><path d="M297.595 73.3994C297.381 79.3256 295.382 79.754 293.24 80.111C290.455 80.6108 289.098 79.1114 284.1 79.1828C281.102 79.2542 280.173 80.111 278.46 80.825C277.175 81.3962 276.175 81.2534 275.675 80.111C275.104 78.8258 274.604 75.827 274.676 73.7564C274.461 75.6842 274.604 80.6822 275.033 83.4668C275.461 86.2514 276.532 88.6076 278.103 89.8928C280.245 91.6778 284.672 92.3204 290.241 91.0352C295.667 89.75 297.881 87.3938 298.523 85.466C300.594 79.04 299.737 76.0412 300.451 74.8274C301.094 73.5422 297.595 73.3994 297.595 73.3994Z" fill="#37474F"></path><path d="M284.814 80.8971C287.67 80.8257 288.599 81.3255 288.741 83.2533C288.956 86.0379 288.813 86.9661 287.813 87.1089C286.528 87.3231 285.671 87.3945 285.6 86.6091C285.528 85.8237 285.528 85.1097 285.743 84.8241C286.171 84.2529 286.028 84.1815 284.743 84.2529C283.458 84.3243 283.529 84.5385 283.886 84.8955C284.172 85.1811 284.172 86.1093 284.172 86.6805C284.172 87.2517 284.029 87.5373 282.244 87.3945C280.673 87.2517 280.959 86.0379 280.959 83.6103C280.959 81.9681 281.601 81.0399 284.814 80.8971Z" fill="#FFA8A7"></path><path d="M287.528 81.3252L282.887 82.0392C283.03 83.3244 284.243 84.2526 285.457 84.0384C286.814 83.8242 287.671 82.6104 287.528 81.3252Z" fill="#B16668"></path><path d="M286.957 82.0391C287.171 82.0391 287.314 82.0391 287.528 82.1105C287.314 83.1101 286.6 83.9669 285.529 84.1097C285.244 84.1811 285.029 84.1097 284.815 84.1097C284.744 82.9673 285.743 82.0391 286.957 82.0391Z" fill="#F28F8F"></path><path d="M284.815 105.386C284.815 105.386 282.744 101.531 282.744 99.9601L285.172 97.3896L285.957 103.744L284.815 105.386Z" fill="#307BC1"></path><path opacity="0.2" d="M284.815 105.386C284.815 105.386 282.744 101.531 282.744 99.9601L285.172 97.3896L285.957 103.744L284.815 105.386Z" fill="black"></path><path d="M288.17 104.03L292.383 101.174L295.881 103.459L289.455 106.814L288.17 104.03Z" fill="#307BC1"></path><path opacity="0.2" d="M288.17 104.03L292.383 101.174L295.881 103.459L289.455 106.814L288.17 104.03Z" fill="black"></path><path d="M291.169 143.014C290.74 129.448 287.742 112.241 287.956 108.956L285.671 108.742C284.1 112.741 280.602 134.66 280.744 144.085C280.673 147.37 283.815 153.367 286.028 153.439C288.17 153.51 291.169 145.013 291.169 143.014Z" fill="#307BC1"></path><path opacity="0.1" d="M291.169 143.014C290.74 129.448 287.742 112.241 287.956 108.956L285.671 108.742C284.1 112.741 280.602 134.66 280.744 144.085C280.673 147.37 283.815 153.367 286.028 153.439C288.17 153.51 291.169 145.013 291.169 143.014Z" fill="white"></path><path opacity="0.5" d="M285.457 109.242C285.528 109.028 285.6 108.885 285.6 108.742L287.885 108.956C287.885 109.242 287.885 109.528 287.885 109.956C287.099 110.099 285.885 109.599 285.457 109.242Z" fill="black"></path><path d="M288.242 103.744C287.242 103.53 286.1 103.673 286.1 103.673C286.1 103.673 285.314 104.387 284.814 105.458C284.814 105.458 284.886 107.457 285.671 108.742C285.671 108.742 286.599 109.385 287.956 108.956C287.956 108.956 289.241 108.028 289.598 106.743C289.67 105.6 288.741 104.03 288.242 103.744Z" fill="#307BC1"></path><path opacity="0.1" d="M288.242 103.744C287.242 103.53 286.1 103.673 286.1 103.673C286.1 103.673 285.314 104.387 284.814 105.458C284.814 105.458 284.886 107.457 285.671 108.742C285.671 108.742 286.599 109.385 287.956 108.956C287.956 108.956 289.241 108.028 289.598 106.743C289.67 105.6 288.741 104.03 288.242 103.744Z" fill="white"></path><path d="M288.171 103.673C288.242 103.673 288.314 103.816 288.385 103.887C289.956 103.031 290.241 102.674 290.67 102.816C291.455 103.031 293.454 106.386 293.883 107.457C294.383 108.528 294.311 108.528 295.739 107.529C298.595 105.601 301.023 103.031 302.379 100.96C304.307 98.104 304.95 95.605 304.95 95.605C304.95 95.605 303.236 93.3202 302.736 92.392C301.737 90.6784 301.237 89.9644 300.237 90.1786V91.321C300.095 92.8204 298.524 94.2484 296.453 96.1048C294.383 97.9612 291.027 99.6748 290.241 100.46C289.742 101.031 288.885 102.388 288.171 103.673Z" fill="#F5F5F5"></path><path d="M280.602 105.03C280.816 105.672 282.744 100.817 283.672 100.888C284.101 100.888 285.172 102.174 286.029 103.602C286.029 103.602 286.6 103.602 286.671 103.602C286.1 102.174 285.743 100.96 285.672 99.9602C285.457 98.318 286.029 93.4628 286.029 93.4628L285.886 91.6064C285.6 91.6064 285.386 91.6064 285.029 91.6064C284.815 91.8206 284.458 92.3204 284.244 92.7488C283.315 94.3196 280.959 97.8896 280.674 99.6746C280.174 102.602 280.459 104.815 280.602 105.03Z" fill="#F5F5F5"></path><path d="M294.954 131.876C293.811 130.519 293.097 129.734 292.169 127.949C291.241 126.164 290.884 124.879 290.17 123.379C289.956 122.879 289.67 122.38 289.456 121.951C289.384 121.808 289.313 121.737 289.242 121.594C289.027 121.38 288.67 121.451 288.385 121.594C287.528 122.094 287.1 123.094 287.1 124.093C287.1 125.093 287.314 126.021 287.528 127.021C287.671 127.663 288.313 129.948 288.313 129.948L294.954 131.876Z" fill="#F28F8F"></path><path d="M324.87 107.243C322.514 101.674 319.587 100.888 311.733 98.6035C307.52 105.886 310.662 119.952 310.662 119.952L314.232 136.588C314.232 136.588 302.022 136.231 299.88 135.232C297.738 134.232 291.598 129.234 289.599 127.806C286.886 125.807 285.672 126.307 284.458 126.664C280.531 127.806 279.674 128.306 278.889 128.949C278.103 129.591 278.318 130.662 278.318 130.662C277.247 130.948 275.676 131.162 275.676 132.947C275.676 134.161 275.819 134.375 275.819 134.375C275.819 134.375 275.462 134.446 275.176 134.875C274.462 136.017 276.461 139.373 277.532 140.158C278.318 140.658 279.246 140.587 280.531 140.301C281.602 140.016 280.959 138.945 280.959 138.945L282.459 138.802C286.029 140.658 286.886 144.942 291.312 145.371C292.241 145.442 294.168 145.442 296.739 145.942C306.521 147.798 316.088 153.439 324.513 153.01C332.724 152.582 331.868 148.298 331.368 143.3C331.011 138.802 327.584 113.598 324.87 107.243Z" fill="#FFA8A7"></path><path d="M313.946 134.946L314.303 136.588C318.159 137.017 322.514 139.159 323.657 141.015C322.514 137.945 320.658 135.803 313.946 134.946Z" fill="#F28F8F"></path><path d="M311.59 98.1035C314.446 98.9603 319.515 99.8171 321.657 101.959C323.871 104.173 325.299 105.458 327.084 112.669C328.797 119.952 330.939 137.088 331.867 140.158C332.796 143.228 333.51 145.228 331.867 147.155C329.797 141.658 323.942 136.945 314.303 136.588C312.732 136.588 313.089 134.589 312.518 132.804C311.947 130.948 309.876 120.166 308.948 116.525C307.948 112.955 306.735 101.888 311.59 98.1035Z" fill="#F0F0F0"></path><path d="M313.089 135.803L312.875 136.517C312.875 136.517 318.016 137.802 321.8 141.444C325.584 145.085 326.441 148.013 326.655 149.94C326.869 151.868 326.655 152.939 325.227 153.011L323.942 153.082C323.942 153.082 324.228 153.796 326.655 153.582C328.797 153.439 330.868 152.796 331.867 150.583C332.867 148.37 332.867 146.87 332.153 144.871C331.439 142.872 329.583 139.373 323.656 136.946C318.801 134.875 313.089 135.803 313.089 135.803Z" fill="#E0E0E0"></path><path d="M278.389 130.662L283.03 129.02L278.389 129.948C278.317 130.162 278.317 130.448 278.389 130.662Z" fill="#F28F8F"></path><path d="M275.89 134.303L281.316 132.804L275.818 133.661C275.818 133.875 275.818 134.089 275.89 134.303Z" fill="#F28F8F"></path><path d="M276.961 136.659C277.175 136.945 277.461 137.088 277.818 137.23C278.103 137.373 278.46 137.373 278.817 137.445L278.746 137.373C278.96 137.659 279.103 137.873 279.317 138.159L279.389 138.016C279.032 138.016 278.746 138.159 278.532 138.373C278.318 138.587 278.175 138.873 278.175 139.158C278.246 138.873 278.46 138.658 278.675 138.444C278.889 138.301 279.174 138.159 279.389 138.23H279.603L279.46 138.087C279.246 137.802 279.103 137.587 278.889 137.302V137.23H278.817C278.532 137.23 278.175 137.159 277.889 137.088C277.532 136.945 277.175 136.873 276.961 136.659Z" fill="#F28F8F"></path><path d="M278.531 137.159C279.102 137.231 280.53 137.017 280.53 137.017C280.53 137.017 280.602 137.374 281.387 138.016C281.816 138.302 282.601 138.73 282.601 138.73L281.102 138.873C281.102 138.873 280.673 138.23 279.245 138.159L278.531 137.159Z" fill="#F28F8F"></path></svg>