<svg xmlns="http://www.w3.org/2000/svg" width="392" height="392" viewBox="0 0 392 392" fill="none"><path d="M324.207 199.379C395.096 240.304 395.096 306.662 324.207 347.594C253.318 388.519 138.383 388.519 67.4941 347.594C-3.39517 306.67 -3.39517 240.312 67.4941 199.379C138.383 158.454 253.318 158.447 324.207 199.379Z" fill="#F4F4F4"></path><path d="M253.938 301.111C253.993 299.472 253.428 297.622 252.487 296.015C252.291 295.685 252.088 295.364 251.868 295.058C251.86 295.043 251.844 295.027 251.837 295.011C251.625 294.721 251.398 294.439 251.155 294.18C251.131 294.157 251.115 294.133 251.092 294.11C250.857 293.859 250.614 293.616 250.355 293.396C250.331 293.38 250.308 293.357 250.284 293.341C250.026 293.122 249.751 292.918 249.477 292.745C249.32 292.643 249.163 292.557 249.006 292.479C248.936 292.44 248.865 292.416 248.795 292.385C248.716 292.346 248.63 292.306 248.552 292.275C248.434 292.228 248.316 292.197 248.207 292.165C248.175 292.157 248.144 292.142 248.113 292.134C247.979 292.095 247.838 292.071 247.713 292.055C247.705 292.055 247.697 292.055 247.689 292.048C247.133 291.977 246.623 292.055 246.192 292.275H246.184C242.037 294.353 218.14 309.562 207.141 316.414L201.692 319.723C201.535 319.809 201.402 319.942 201.292 320.107C201.276 320.123 201.261 320.146 201.253 320.17C201.206 320.24 201.167 320.319 201.128 320.405C201.104 320.46 201.088 320.515 201.073 320.57C201.049 320.64 201.026 320.703 201.01 320.781C201.002 320.828 200.994 320.875 200.986 320.922C200.735 321.056 200.43 321.228 200.085 321.416L199.277 321.855C197.552 320.193 195.475 318.641 193.06 317.245C185.518 312.894 175.53 310.495 164.93 310.495C154.331 310.495 144.342 312.894 136.8 317.245C128.992 321.753 124.688 327.845 124.688 334.391C124.688 340.938 128.992 347.03 136.8 351.538C144.342 355.889 154.331 358.288 164.93 358.288C175.53 358.288 185.518 355.889 193.06 351.538C200.869 347.03 205.173 340.938 205.173 334.391C205.173 331.436 204.295 328.582 202.617 325.916L203.338 325.524C203.934 325.854 204.475 325.893 204.883 325.673L204.914 325.658C208.646 323.604 245.024 308.096 252.464 304.113C252.464 304.113 252.464 304.113 252.472 304.113C253.326 303.659 253.883 302.616 253.938 301.111ZM189.611 345.595C183.103 349.35 174.33 351.42 164.922 351.42C155.514 351.42 146.741 349.35 140.234 345.595C134.644 342.365 131.563 338.39 131.563 334.407C131.563 330.417 134.644 326.442 140.234 323.219C146.741 319.464 155.514 317.394 164.922 317.394C174.338 317.394 183.103 319.464 189.611 323.219C195.2 326.45 198.282 330.424 198.282 334.407C198.282 338.39 195.2 342.365 189.611 345.595Z" fill="#E0E0E0"></path><path d="M259.489 209.014L222.586 187.666C220.712 186.584 217.67 186.584 215.796 187.666L28.3575 295.889C26.4837 296.971 26.4837 298.727 28.3575 299.809L65.2603 321.158C67.1341 322.24 70.176 322.24 72.0498 321.158L142.296 280.601L153.092 286.881C158.807 290.182 168.082 290.182 173.797 286.881L205.988 268.434C211.704 265.133 211.704 259.786 205.988 256.485L195.201 250.213L259.496 212.942C261.37 211.852 261.37 210.096 259.489 209.014Z" fill="#E0E0E0"></path><path d="M346.983 274.416C361.111 282.577 361.111 295.804 346.983 303.957C332.856 312.119 309.947 312.119 295.812 303.957C281.684 295.796 281.684 282.57 295.812 274.416C309.939 266.255 332.848 266.255 346.983 274.416Z" fill="#E0E0E0"></path><path d="M173.797 283.77L201.528 267.737C204.389 266.083 205.816 263.927 205.816 261.763C205.816 259.599 205.832 257.905 205.832 257.905L179.732 243.096C178.211 242.218 176.973 240.077 176.973 238.313V204.123L128.529 232.112V266.302C128.529 268.066 129.768 270.206 131.289 271.084L153.092 283.777C158.807 287.07 168.082 287.07 173.797 283.77Z" fill="#37474F"></path><path d="M140.164 272.346V276.188L131.289 271.068C129.776 270.19 128.529 268.058 128.529 266.286V232.096L137.757 226.772C137.945 229.117 138.157 231.539 138.345 233.899L131.877 237.647V264.357C131.877 266.129 133.108 268.262 134.637 269.14L140.164 272.346Z" fill="#263238"></path><path d="M131.877 264.374C131.877 266.138 133.116 268.278 134.637 269.156L153.092 279.912C158.807 283.213 168.082 283.213 173.797 279.912L201.543 263.88C207.259 260.579 207.259 255.232 201.543 251.931L183.072 241.167C181.551 240.289 180.313 238.149 180.313 236.385V209.666L131.869 237.655V264.374H131.877Z" fill="#455A64"></path><path opacity="0.15" d="M188.701 244.413L183.08 241.159C181.551 240.281 180.32 238.141 180.32 236.377V209.658L131.877 237.647V264.366C131.877 266.13 133.116 268.27 134.637 269.148L140.164 272.339L188.701 244.413Z" fill="black"></path><path d="M205.824 257.897C205.824 257.897 205.824 259.583 205.824 261.755C205.824 263.919 204.389 266.075 201.535 267.729L173.797 283.754C171.053 285.345 167.502 286.145 163.919 286.208V282.366C167.502 282.319 171.061 281.488 173.797 279.912L201.535 263.872C204.389 262.233 205.824 260.069 205.824 257.897Z" fill="#37474F"></path><path d="M54.0963 301.26C55.8838 302.295 58.8787 302.24 60.7838 301.135C84.6018 287.383 224.311 206.726 248.121 192.982C250.026 191.884 251.57 189.203 251.57 187.008V23.0265C251.57 20.8235 250.12 18.2049 248.332 17.17C246.545 16.1352 243.55 16.19 241.645 17.2955L54.308 125.456C52.4029 126.554 50.8584 129.235 50.8584 131.43V295.404C50.8584 297.607 52.3088 300.225 54.0963 301.26Z" fill="#455A64"></path><path d="M60.7836 301.127L248.12 192.974C250.026 191.877 251.57 189.195 251.57 187V23.0265C251.57 20.8235 250.026 19.9376 248.12 21.0352L60.7836 129.188C58.8785 130.286 57.334 132.967 57.334 135.162V299.136C57.334 301.339 58.8785 302.232 60.7836 301.127Z" fill="#37474F"></path><path d="M63.8105 277.473V137.31C63.8105 135.993 64.7357 134.385 65.8803 133.727L243.025 31.4541C244.17 30.7955 245.095 31.3287 245.095 32.6458L245.103 172.809C245.103 174.126 244.178 175.734 243.033 176.392L65.8803 278.673C64.7357 279.331 63.8105 278.798 63.8105 277.473Z" fill="#27DEBF"></path><path opacity="0.7" d="M63.457 278.031V137.867C63.457 136.55 64.3822 134.943 65.5268 134.285L242.672 32.0117C243.816 31.3532 244.741 31.8863 244.741 33.2034L244.749 173.367C244.749 174.684 243.824 176.291 242.679 176.95L65.5268 279.23C64.3822 279.889 63.457 279.356 63.457 278.031Z" fill="white"></path><path d="M154.096 240.414C153.719 240.414 153.366 240.328 153.061 240.147C152.324 239.724 151.916 238.854 151.916 237.709C151.916 235.483 153.421 232.872 155.35 231.759C156.346 231.186 157.294 231.108 158.031 231.531C158.768 231.955 159.176 232.825 159.176 233.969C159.176 236.196 157.671 238.807 155.742 239.92C155.17 240.249 154.613 240.414 154.096 240.414ZM156.988 232.049C156.612 232.049 156.189 232.182 155.742 232.441C154.064 233.405 152.7 235.773 152.7 237.709C152.7 238.564 152.967 239.183 153.453 239.465C153.939 239.748 154.613 239.661 155.35 239.238C157.028 238.266 158.392 235.906 158.392 233.969C158.392 233.115 158.125 232.496 157.639 232.213C157.451 232.104 157.232 232.049 156.988 232.049Z" fill="#27DEBF"></path><path d="M275.867 57.8271L93.4219 163.04V297.504C93.4219 299.291 95.3584 300.42 96.9107 299.526L100.164 297.653L272.464 198.304C274.338 197.222 275.867 194.588 275.867 192.416V57.8271Z" fill="#F0F0F0"></path><path d="M275.083 59.1835V192.409C275.083 194.29 273.703 196.674 272.072 197.622L99.7723 296.971L96.5187 298.844C96.2756 298.986 96.0248 299.056 95.7582 299.056C95.3662 299.056 94.9664 298.899 94.6763 298.617C94.3705 298.327 94.2059 297.935 94.2059 297.504V163.487L275.083 59.1835ZM275.867 57.8271L93.4219 163.04V297.504C93.4219 298.86 94.5352 299.84 95.7582 299.84C96.1424 299.84 96.5422 299.738 96.9107 299.527L100.164 297.653L272.464 198.304C274.338 197.222 275.867 194.588 275.867 192.416V57.8271Z" fill="#E0E0E0"></path><path opacity="0.8" d="M271.538 55.334L89.0781 160.531L93.4215 163.04L275.866 57.8271L271.538 55.334Z" fill="#455A64"></path><path d="M94.6445 299.558C94.6445 299.558 93.4215 298.962 93.4215 297.504V166.913C93.4215 165.839 93.4215 163.04 93.4215 163.04L89.086 160.539L89.0781 294.258C89.0781 294.423 89.086 294.587 89.1095 294.752C89.2663 295.857 89.917 296.837 90.8813 297.386L94.4642 299.456L94.6445 299.558Z" fill="#EBEBEB"></path><path d="M89.0781 160.594V151.523C89.0781 150.441 89.8386 149.124 90.7716 148.575L269.845 45.3384C270.778 44.7896 272.299 44.7896 273.232 45.3305L274.165 45.8715C275.106 46.4124 275.866 47.7296 275.866 48.8115V57.898L93.4215 163.095L89.0781 160.594Z" fill="#27DEBF"></path><path opacity="0.3" d="M89.0781 160.594V151.523C89.0781 150.441 89.8386 149.124 90.7716 148.575L269.845 45.3384C270.778 44.7896 272.299 44.7896 273.232 45.3305L274.165 45.8715C275.106 46.4124 275.866 47.7296 275.866 48.8115V57.898L93.4215 163.095L89.0781 160.594Z" fill="black"></path><path d="M93.4219 154.024C93.4219 152.942 94.1824 151.625 95.1153 151.076L274.173 47.8392C275.106 47.2904 275.867 47.7294 275.867 48.8114V57.8979L93.4219 163.095V154.024Z" fill="#27DEBF"></path><path opacity="0.4" d="M93.4219 154.024C93.4219 152.942 94.1824 151.625 95.1153 151.076L274.173 47.8392C275.106 47.2904 275.866 47.7294 275.866 48.8114V57.8979L93.4219 163.095V154.024Z" fill="black"></path><path d="M93.9154 152.347C93.6096 152.88 93.4215 153.483 93.4215 154.024V163.095L89.0859 160.594V151.516C89.0859 150.975 89.2741 150.379 89.5799 149.846L93.9154 152.347Z" fill="#27DEBF"></path><path opacity="0.5" d="M93.9154 152.347C93.6096 152.88 93.4215 153.483 93.4215 154.024V163.095L89.0859 160.594V151.516C89.0859 150.975 89.2741 150.379 89.5799 149.846L93.9154 152.347Z" fill="black"></path><path d="M267.901 57.4908C267.901 58.51 268.615 58.9177 269.493 58.4081C270.371 57.8985 271.084 56.6676 271.084 55.6484C271.084 54.6292 270.371 54.2215 269.493 54.7311C268.615 55.2407 267.901 56.4716 267.901 57.4908Z" fill="#FAFAFA"></path><path d="M261.535 61.1675C261.535 62.1867 262.249 62.5944 263.127 62.0848C264.005 61.5752 264.718 60.3443 264.718 59.3251C264.718 58.3059 264.005 57.8983 263.127 58.4079C262.249 58.9175 261.535 60.1483 261.535 61.1675Z" fill="#FAFAFA"></path><path d="M255.161 64.8443C255.161 65.8635 255.875 66.2712 256.753 65.7616C257.631 65.252 258.344 64.0211 258.344 63.0019C258.344 61.9827 257.631 61.575 256.753 62.0846C255.875 62.5942 255.161 63.8251 255.161 64.8443Z" fill="#FAFAFA"></path><path d="M93.4219 163.103V297.512C93.4219 299.3 95.3584 300.429 96.9107 299.535L100.164 297.661L140.031 274.674V136.22L93.4219 163.103Z" fill="#FAFAFA"></path><path d="M143.214 138.493V269.037L272.041 194.659V64.1152L143.214 138.493Z" fill="#FAFAFA"></path><path d="M129.361 151.994L99.6236 169.179C99.0748 169.5 98.6279 170.269 98.6279 170.904V174.001C98.6279 174.636 99.0748 174.894 99.6236 174.573L129.361 157.388C129.91 157.066 130.356 156.298 130.356 155.663V152.566C130.356 151.939 129.91 151.68 129.361 151.994Z" fill="#27DEBF"></path><path opacity="0.8" d="M129.361 151.994L99.6236 169.179C99.0748 169.5 98.6279 170.269 98.6279 170.904V174.001C98.6279 174.636 99.0748 174.894 99.6236 174.573L129.361 157.388C129.91 157.066 130.356 156.298 130.356 155.663V152.566C130.356 151.939 129.91 151.68 129.361 151.994Z" fill="#FAFAFA"></path><path d="M135.978 153.225L135.1 152.378C135.272 151.939 135.382 151.453 135.382 150.974C135.382 150.261 135.147 149.712 134.723 149.469C134.41 149.289 134.026 149.305 133.657 149.516C132.889 149.963 132.277 151.21 132.277 152.362C132.277 153.076 132.513 153.624 132.936 153.867C133.085 153.954 133.242 153.993 133.406 153.993C133.602 153.993 133.806 153.938 134.002 153.82C134.292 153.656 134.559 153.373 134.778 153.021L135.5 153.711C135.562 153.773 135.649 153.805 135.735 153.805C135.829 153.805 135.915 153.765 135.986 153.703C136.127 153.577 136.119 153.358 135.978 153.225ZM133.665 153.232C133.516 153.319 133.383 153.334 133.289 153.279C133.148 153.193 132.975 152.911 132.975 152.37C132.975 151.476 133.445 150.441 134.01 150.12C134.104 150.065 134.182 150.041 134.261 150.041C134.308 150.041 134.347 150.049 134.386 150.073C134.527 150.159 134.7 150.441 134.7 150.982C134.692 151.876 134.222 152.903 133.665 153.232Z" fill="#455A64"></path><path d="M99.3571 183.66L98.6907 184.044C98.6515 184.067 98.6201 184.044 98.6201 183.989V182.186C98.6201 182.131 98.6515 182.076 98.6907 182.052L99.3571 181.668C99.3963 181.645 99.4276 181.668 99.4276 181.723V183.526C99.4276 183.573 99.3963 183.636 99.3571 183.66Z" fill="#455A64"></path><path d="M100.353 183.08L99.6868 183.464C99.6476 183.487 99.6162 183.464 99.6162 183.409V181.606C99.6162 181.551 99.6476 181.496 99.6868 181.472L100.353 181.088C100.392 181.065 100.424 181.088 100.424 181.143V182.946C100.424 182.993 100.392 183.056 100.353 183.08Z" fill="#455A64"></path><path d="M101.356 182.507L100.69 182.891C100.65 182.915 100.619 182.891 100.619 182.837V181.033C100.619 180.978 100.65 180.924 100.69 180.9L101.356 180.516C101.395 180.492 101.427 180.516 101.427 180.571V182.374C101.427 182.421 101.395 182.484 101.356 182.507Z" fill="#455A64"></path><path d="M99.3571 185.989L98.6907 186.373C98.6515 186.396 98.6201 186.373 98.6201 186.318V184.515C98.6201 184.46 98.6515 184.405 98.6907 184.382L99.3571 183.997C99.3963 183.974 99.4276 183.997 99.4276 184.052V185.855C99.4276 185.902 99.3963 185.965 99.3571 185.989Z" fill="#455A64"></path><path d="M100.353 185.408L99.6868 185.792C99.6476 185.815 99.6162 185.792 99.6162 185.737V183.934C99.6162 183.879 99.6476 183.824 99.6868 183.8L100.353 183.416C100.392 183.393 100.424 183.416 100.424 183.471V185.274C100.424 185.321 100.392 185.384 100.353 185.408Z" fill="#455A64"></path><path d="M101.356 184.828L100.69 185.212C100.65 185.235 100.619 185.212 100.619 185.157V183.354C100.619 183.299 100.65 183.244 100.69 183.22L101.356 182.836C101.395 182.813 101.427 182.836 101.427 182.891V184.694C101.427 184.749 101.395 184.812 101.356 184.828Z" fill="#455A64"></path><path d="M99.459 192.135L98.6358 191.633C98.6045 191.617 98.6045 191.539 98.6358 191.484L99.459 190.034C99.4982 189.963 99.5531 189.971 99.5531 190.049V192.002C99.5609 192.088 99.4982 192.158 99.459 192.135Z" fill="#455A64"></path><path d="M99.1139 191.03L100.196 190.402V190.92L99.1139 191.547C99.0198 191.602 98.9492 191.531 98.9492 191.39C98.9492 191.241 99.0276 191.084 99.1139 191.03Z" fill="#455A64"></path><path d="M100.399 190.293L100.768 190.081V190.591L100.399 190.802V190.293Z" fill="#455A64"></path><path d="M101.763 189.759V191.649C101.763 191.79 101.685 191.947 101.599 192.002C101.505 192.057 101.434 191.986 101.434 191.845V190.214L100.979 190.481V189.963L101.607 189.603C101.685 189.548 101.763 189.618 101.763 189.759Z" fill="#455A64"></path><path d="M99.7805 196.376C99.0122 196.901 98.4948 198.359 98.6437 199.433C98.777 200.421 99.365 200.382 99.4277 200.837C99.4356 200.884 99.4669 200.907 99.5061 200.884L100.235 200.468C100.274 200.445 100.306 200.39 100.314 200.335C100.392 199.731 101.137 199.002 101.145 197.544C101.137 196.415 100.518 195.866 99.7805 196.376Z" fill="#455A64"></path><path d="M100.22 201.644L99.514 202.052C99.4669 202.083 99.4277 202.052 99.4277 201.989V201.339C99.4277 201.276 99.4669 201.197 99.514 201.174L100.22 200.766C100.267 200.735 100.306 200.766 100.306 200.829V201.48C100.306 201.542 100.267 201.613 100.22 201.644Z" fill="#455A64"></path><path d="M99.9527 181.119C99.302 181.652 98.7767 182.766 98.6748 183.824C98.612 184.443 98.6904 184.945 98.8629 185.306L98.6277 186.537C98.612 186.639 98.6669 186.693 98.7218 186.631L99.4352 185.855C99.7332 185.949 100.086 185.862 100.47 185.549C101.121 185.008 101.646 183.902 101.748 182.836C101.905 181.119 101.011 180.249 99.9527 181.119ZM100.204 185.165C99.5528 185.541 99.0197 185.031 99.0197 184.02C99.0197 183.016 99.5528 181.888 100.204 181.511C100.854 181.135 101.387 181.644 101.387 182.656C101.395 183.659 100.862 184.788 100.204 185.165Z" fill="#455A64"></path><path d="M99.9527 204.914C99.302 205.447 98.7767 206.561 98.6748 207.619C98.612 208.238 98.6904 208.74 98.8629 209.101L98.6277 210.332C98.612 210.433 98.6669 210.488 98.7218 210.426L99.4352 209.649C99.7332 209.744 100.086 209.657 100.47 209.344C101.121 208.803 101.646 207.697 101.748 206.631C101.905 204.914 101.011 204.044 99.9527 204.914ZM100.204 208.96C99.5528 209.336 99.0197 208.826 99.0197 207.815C99.0197 206.811 99.5528 205.682 100.204 205.306C100.854 204.93 101.387 205.439 101.387 206.451C101.395 207.454 100.862 208.583 100.204 208.96Z" fill="#455A64"></path><path d="M100.957 213.632C100.957 214.165 100.674 214.761 100.329 214.957C99.9844 215.153 99.7021 214.886 99.7021 214.353C99.7021 213.82 99.9844 213.224 100.329 213.028C100.674 212.832 100.957 213.099 100.957 213.632Z" fill="#455A64"></path><path d="M102.03 213.82C102.03 214.173 101.842 214.572 101.615 214.706C101.387 214.839 101.199 214.659 101.199 214.306C101.199 213.953 101.387 213.553 101.615 213.42C101.842 213.287 102.03 213.467 102.03 213.82Z" fill="#455A64"></path><path d="M101.066 217.435L99.584 218.289V216.415C99.584 216.023 99.827 215.561 100.117 215.396L100.525 215.161C100.823 214.989 101.058 215.169 101.058 215.569V217.435H101.066Z" fill="#455A64"></path><path d="M101.678 214.925L101.271 215.161V217.317L102.039 216.87V215.192C102.039 214.925 101.874 214.808 101.678 214.925Z" fill="#455A64"></path><path d="M98.6279 215.788C98.6279 216.141 98.8161 216.321 99.0434 216.188C99.2708 216.055 99.459 215.663 99.459 215.302C99.459 214.949 99.2708 214.769 99.0434 214.902C98.8161 215.036 98.6279 215.435 98.6279 215.788Z" fill="#455A64"></path><path d="M98.9808 216.477L99.3884 216.242V218.398L98.6201 218.845V217.167C98.6201 216.901 98.7769 216.595 98.9808 216.477Z" fill="#455A64"></path><path d="M105.849 179.426L123.261 169.375C123.732 169.101 124.108 169.297 124.108 169.806C124.108 170.316 123.732 170.943 123.261 171.218L105.849 181.269C105.378 181.543 105.002 181.347 105.002 180.837C105.002 180.328 105.378 179.701 105.849 179.426Z" fill="#E0E0E0"></path><path d="M105.849 187.618L123.261 177.568C123.732 177.293 124.108 177.489 124.108 177.999C124.108 178.508 123.732 179.136 123.261 179.41L105.849 189.461C105.378 189.735 105.002 189.539 105.002 189.03C105.002 188.52 105.378 187.893 105.849 187.618Z" fill="#E0E0E0"></path><path d="M105.849 195.82L123.261 185.769C123.732 185.494 124.108 185.69 124.108 186.2C124.108 186.71 123.732 187.337 123.261 187.611L105.849 197.662C105.378 197.936 105.002 197.74 105.002 197.231C105.002 196.721 105.378 196.086 105.849 195.82Z" fill="#E0E0E0"></path><path d="M105.849 204.012L123.261 193.961C123.732 193.687 124.108 193.883 124.108 194.392C124.108 194.902 123.732 195.529 123.261 195.804L105.849 205.854C105.378 206.129 105.002 205.933 105.002 205.423C105.002 204.914 105.378 204.279 105.849 204.012Z" fill="#E0E0E0"></path><path d="M105.849 212.205L123.261 202.155C123.732 201.88 124.108 202.076 124.108 202.586C124.108 203.095 123.732 203.723 123.261 203.997L105.849 214.048C105.378 214.322 105.002 214.126 105.002 213.617C105.002 213.107 105.378 212.48 105.849 212.205Z" fill="#E0E0E0"></path><path d="M109.031 218.901L126.444 208.85C126.914 208.575 127.291 208.771 127.291 209.281C127.291 209.791 126.914 210.418 126.444 210.692L109.031 220.743C108.561 221.018 108.185 220.822 108.185 220.312C108.185 219.802 108.561 219.167 109.031 218.901Z" fill="#455A64"></path><path d="M109.031 224.436L126.444 214.385C126.914 214.111 127.291 214.307 127.291 214.816C127.291 215.326 126.914 215.953 126.444 216.227L109.031 226.278C108.561 226.553 108.185 226.357 108.185 225.847C108.185 225.337 108.561 224.702 109.031 224.436Z" fill="#E0E0E0"></path><path d="M109.031 229.971L126.444 219.92C126.914 219.646 127.291 219.842 127.291 220.351C127.291 220.861 126.914 221.488 126.444 221.763L109.031 231.813C108.561 232.088 108.185 231.892 108.185 231.382C108.185 230.873 108.561 230.238 109.031 229.971Z" fill="#E0E0E0"></path><path d="M112.419 233.491L129.832 223.44C130.302 223.165 130.678 223.361 130.678 223.871C130.678 224.38 130.302 225.008 129.832 225.282L112.419 235.333C111.949 235.607 111.572 235.411 111.572 234.902C111.572 234.392 111.956 233.757 112.419 233.491Z" fill="#E0E0E0"></path><path d="M108.349 238.25L109.76 235.757C109.815 235.663 109.815 235.537 109.76 235.506L108.349 234.644C108.279 234.604 108.185 234.738 108.185 234.863V238.219C108.185 238.352 108.286 238.376 108.349 238.25Z" fill="#455A64"></path><path d="M112.419 239.002L129.832 228.951C130.302 228.677 130.678 228.873 130.678 229.383C130.678 229.892 130.302 230.519 129.832 230.794L112.419 240.845C111.949 241.119 111.572 240.923 111.572 240.413C111.572 239.904 111.956 239.277 112.419 239.002Z" fill="#E0E0E0"></path><path d="M108.349 243.769L109.76 241.276C109.815 241.181 109.815 241.056 109.76 241.025L108.349 240.162C108.279 240.123 108.185 240.256 108.185 240.382V243.737C108.185 243.871 108.286 243.886 108.349 243.769Z" fill="#455A64"></path><path d="M112.419 244.522L129.832 234.471C130.302 234.197 130.678 234.393 130.678 234.902C130.678 235.412 130.302 236.039 129.832 236.313L112.419 246.364C111.949 246.639 111.572 246.443 111.572 245.933C111.572 245.423 111.956 244.796 112.419 244.522Z" fill="#E0E0E0"></path><path d="M108.349 249.288L109.76 246.795C109.815 246.701 109.815 246.576 109.76 246.544L108.349 245.682C108.279 245.643 108.185 245.776 108.185 245.901V249.257C108.185 249.39 108.286 249.406 108.349 249.288Z" fill="#455A64"></path><path d="M112.419 250.041L129.832 239.99C130.302 239.716 130.678 239.912 130.678 240.422C130.678 240.931 130.302 241.558 129.832 241.833L112.419 251.884C111.949 252.158 111.572 251.962 111.572 251.453C111.572 250.943 111.956 250.308 112.419 250.041Z" fill="#E0E0E0"></path><path d="M108.349 254.8L109.76 252.307C109.815 252.213 109.815 252.087 109.76 252.056L108.349 251.193C108.279 251.154 108.185 251.288 108.185 251.413V254.769C108.185 254.902 108.286 254.925 108.349 254.8Z" fill="#455A64"></path><path d="M112.419 255.552L129.832 245.501C130.302 245.227 130.678 245.423 130.678 245.932C130.678 246.442 130.302 247.069 129.832 247.344L112.419 257.394C111.949 257.669 111.572 257.473 111.572 256.963C111.572 256.454 111.956 255.826 112.419 255.552Z" fill="#E0E0E0"></path><path d="M108.349 260.319L109.76 257.826C109.815 257.732 109.815 257.607 109.76 257.575L108.349 256.713C108.279 256.674 108.185 256.807 108.185 256.933V260.288C108.185 260.421 108.286 260.437 108.349 260.319Z" fill="#455A64"></path><path d="M112.419 261.072L129.832 251.021C130.302 250.746 130.678 250.942 130.678 251.452C130.678 251.962 130.302 252.589 129.832 252.863L112.419 262.914C111.949 263.188 111.572 262.992 111.572 262.483C111.572 261.973 111.956 261.346 112.419 261.072Z" fill="#E0E0E0"></path><path d="M108.349 265.839L109.76 263.346C109.815 263.252 109.815 263.126 109.76 263.095L108.349 262.233C108.279 262.193 108.185 262.327 108.185 262.452V265.808C108.185 265.941 108.286 265.957 108.349 265.839Z" fill="#455A64"></path><path d="M112.419 266.591L129.832 256.54C130.302 256.266 130.678 256.462 130.678 256.971C130.678 257.481 130.302 258.108 129.832 258.383L112.419 268.434C111.949 268.708 111.572 268.512 111.572 268.002C111.572 267.493 111.956 266.858 112.419 266.591Z" fill="#E0E0E0"></path><path d="M108.349 271.35L109.76 268.857C109.815 268.762 109.815 268.637 109.76 268.606L108.349 267.743C108.279 267.704 108.185 267.837 108.185 267.963V271.318C108.185 271.452 108.286 271.475 108.349 271.35Z" fill="#455A64"></path><path d="M112.419 272.103L129.832 262.052C130.302 261.778 130.678 261.974 130.678 262.483C130.678 262.993 130.302 263.62 129.832 263.894L112.419 273.945C111.949 274.22 111.572 274.024 111.572 273.514C111.572 273.004 111.956 272.377 112.419 272.103Z" fill="#E0E0E0"></path><path d="M108.349 276.869L109.76 274.376C109.815 274.282 109.815 274.157 109.76 274.125L108.349 273.263C108.279 273.224 108.185 273.357 108.185 273.482V276.838C108.185 276.971 108.286 276.987 108.349 276.869Z" fill="#455A64"></path><path d="M147.251 156.393L204.475 123.355C204.946 123.081 205.322 122.43 205.322 121.881V107.291C205.322 106.75 204.946 106.53 204.475 106.797L147.251 139.827C146.781 140.101 146.404 140.752 146.404 141.293V155.891C146.397 156.448 146.781 156.667 147.251 156.393Z" fill="#F0F0F0"></path><path d="M153.059 145.392C153.059 145.384 153.059 145.376 153.067 145.36L153.443 143.792L152.926 144.09C152.91 144.098 152.902 144.098 152.895 144.09C152.887 144.082 152.879 144.067 152.879 144.043V143.761C152.879 143.737 152.887 143.722 152.895 143.698C152.902 143.675 152.918 143.667 152.926 143.659L153.757 143.181C153.773 143.173 153.781 143.173 153.788 143.181C153.796 143.189 153.804 143.204 153.804 143.228V143.479C153.804 143.51 153.796 143.557 153.773 143.628L153.396 145.196C153.389 145.211 153.389 145.235 153.381 145.25C153.373 145.266 153.365 145.282 153.349 145.29L153.106 145.431C153.098 145.439 153.083 145.439 153.075 145.431C153.067 145.423 153.059 145.407 153.059 145.392Z" fill="#455A64"></path><path d="M154.447 142.758C154.533 142.711 154.612 142.688 154.674 142.688C154.737 142.688 154.792 142.711 154.831 142.758C154.87 142.797 154.902 142.86 154.925 142.938C154.949 143.017 154.957 143.103 154.957 143.197C154.957 143.276 154.957 143.354 154.957 143.44C154.957 143.526 154.957 143.605 154.957 143.675C154.957 143.777 154.941 143.871 154.925 143.973C154.902 144.075 154.87 144.169 154.831 144.255C154.792 144.342 154.737 144.428 154.674 144.506C154.612 144.585 154.533 144.648 154.447 144.695C154.361 144.742 154.282 144.765 154.22 144.765C154.157 144.765 154.102 144.742 154.063 144.695C154.024 144.655 153.992 144.593 153.969 144.514C153.945 144.436 153.938 144.35 153.93 144.255C153.93 144.185 153.93 144.107 153.93 144.02C153.93 143.934 153.93 143.856 153.93 143.777C153.93 143.675 153.945 143.581 153.969 143.479C153.992 143.377 154.016 143.283 154.063 143.197C154.102 143.103 154.157 143.025 154.22 142.946C154.29 142.868 154.361 142.805 154.447 142.758ZM154.635 143.84C154.643 143.683 154.643 143.534 154.635 143.393C154.635 143.346 154.627 143.315 154.62 143.275C154.612 143.244 154.604 143.213 154.588 143.197C154.573 143.181 154.557 143.166 154.533 143.166C154.51 143.166 154.478 143.174 154.447 143.189C154.416 143.213 154.384 143.236 154.361 143.26C154.337 143.291 154.322 143.323 154.306 143.362C154.29 143.401 154.282 143.432 154.275 143.479C154.267 143.519 154.267 143.566 154.267 143.613C154.259 143.762 154.259 143.911 154.267 144.059C154.267 144.107 154.275 144.146 154.275 144.177C154.282 144.208 154.29 144.24 154.306 144.255C154.322 144.271 154.337 144.287 154.361 144.287C154.384 144.287 154.416 144.279 154.447 144.263C154.478 144.24 154.51 144.216 154.533 144.193C154.557 144.161 154.573 144.13 154.588 144.091C154.604 144.052 154.612 144.012 154.62 143.973C154.627 143.926 154.635 143.879 154.635 143.84Z" fill="#455A64"></path><path d="M152.229 141.607L151.657 140.721C151.03 141.795 150.544 143.073 150.301 144.382L151.226 144.311C151.406 143.339 151.767 142.398 152.229 141.607Z" fill="#455A64"></path><path d="M153.852 139.85V138.345C153.029 138.815 152.277 139.662 151.657 140.712L152.23 141.598C152.684 140.83 153.241 140.203 153.852 139.85Z" fill="#455A64"></path><path d="M151.092 145.698C151.092 145.243 151.139 144.773 151.226 144.311L150.3 144.381C150.183 145.008 150.12 145.643 150.12 146.263C150.12 146.882 150.183 147.447 150.3 147.933L151.226 146.929C151.139 146.568 151.092 146.153 151.092 145.698Z" fill="#455A64"></path><path d="M157.404 140.273C157.161 139.246 156.675 138.525 156.047 138.18C155.428 137.843 154.676 137.874 153.852 138.345V139.85C154.456 139.497 155.02 139.481 155.475 139.732C155.938 139.983 156.298 140.516 156.479 141.277C156.565 141.637 156.612 142.053 156.612 142.508C156.612 142.97 156.565 143.433 156.479 143.895C156.298 144.86 155.938 145.808 155.475 146.6C155.02 147.376 154.464 148.004 153.852 148.349C153.249 148.701 152.684 148.717 152.229 148.466C151.767 148.215 151.406 147.682 151.226 146.922L150.301 147.925C150.544 148.952 151.03 149.673 151.657 150.018C152.276 150.356 153.029 150.324 153.852 149.854C154.676 149.383 155.428 148.537 156.047 147.486C156.675 146.412 157.161 145.134 157.404 143.825C157.521 143.198 157.584 142.563 157.584 141.943C157.584 141.324 157.521 140.767 157.404 140.273Z" fill="#56718A"></path><path d="M163.174 136.165L180.587 126.114C181.057 125.84 181.433 126.036 181.433 126.546C181.433 127.055 181.057 127.682 180.587 127.957L163.174 138.008C162.704 138.282 162.327 138.086 162.327 137.577C162.319 137.067 162.704 136.432 163.174 136.165Z" fill="#455A64"></path><path d="M163.174 139.874L193.327 122.469C193.797 122.195 194.173 122.391 194.173 122.9C194.173 123.41 193.797 124.037 193.327 124.311L163.174 141.716C162.704 141.991 162.327 141.795 162.327 141.285C162.319 140.775 162.704 140.14 163.174 139.874Z" fill="#E0E0E0"></path><path d="M150.591 200.237L207.815 167.2C208.286 166.925 208.662 166.275 208.662 165.726V151.136C208.662 150.595 208.286 150.375 207.815 150.642L150.591 183.672C150.121 183.946 149.744 184.597 149.744 185.138V199.736C149.736 200.292 150.121 200.512 150.591 200.237Z" fill="#F0F0F0"></path><path d="M156.196 189.296C156.196 189.288 156.196 189.28 156.204 189.265L156.58 187.697L156.063 187.994C156.047 188.002 156.039 188.002 156.031 187.994C156.023 187.987 156.016 187.971 156.016 187.947V187.665C156.016 187.642 156.023 187.626 156.031 187.602C156.039 187.579 156.055 187.571 156.063 187.563L156.894 187.085C156.909 187.077 156.917 187.077 156.925 187.085C156.933 187.093 156.941 187.108 156.941 187.132V187.383C156.941 187.414 156.933 187.461 156.909 187.532L156.533 189.1C156.525 189.116 156.525 189.139 156.517 189.155C156.51 189.17 156.502 189.186 156.486 189.194L156.243 189.335C156.235 189.343 156.219 189.343 156.212 189.335C156.204 189.327 156.196 189.312 156.196 189.296Z" fill="#455A64"></path><path d="M157.584 186.662C157.67 186.615 157.748 186.592 157.811 186.592C157.874 186.592 157.929 186.615 157.968 186.662C158.007 186.702 158.039 186.764 158.062 186.843C158.086 186.921 158.093 187.007 158.093 187.101C158.093 187.18 158.093 187.258 158.093 187.344C158.093 187.431 158.093 187.509 158.093 187.58C158.093 187.682 158.078 187.776 158.062 187.878C158.039 187.979 158.007 188.074 157.968 188.16C157.929 188.246 157.874 188.332 157.811 188.411C157.748 188.489 157.67 188.552 157.584 188.599C157.498 188.646 157.419 188.669 157.356 188.669C157.294 188.669 157.239 188.646 157.2 188.599C157.16 188.56 157.129 188.497 157.106 188.419C157.082 188.34 157.074 188.254 157.066 188.16C157.066 188.089 157.066 188.011 157.066 187.925C157.066 187.838 157.066 187.76 157.066 187.682C157.066 187.58 157.082 187.486 157.106 187.384C157.129 187.282 157.153 187.188 157.2 187.101C157.239 187.007 157.294 186.929 157.356 186.851C157.427 186.772 157.498 186.709 157.584 186.662ZM157.772 187.744C157.78 187.587 157.78 187.439 157.772 187.297C157.772 187.25 157.764 187.219 157.756 187.18C157.748 187.148 157.741 187.117 157.725 187.101C157.709 187.086 157.694 187.07 157.67 187.07C157.647 187.07 157.615 187.078 157.584 187.094C157.552 187.117 157.521 187.141 157.498 187.164C157.474 187.195 157.458 187.227 157.443 187.266C157.427 187.305 157.419 187.337 157.411 187.384C157.404 187.423 157.404 187.47 157.404 187.517C157.396 187.666 157.396 187.815 157.404 187.964C157.404 188.011 157.411 188.05 157.411 188.081C157.419 188.113 157.427 188.144 157.443 188.16C157.458 188.175 157.474 188.191 157.498 188.191C157.521 188.191 157.552 188.183 157.584 188.168C157.615 188.144 157.647 188.121 157.67 188.097C157.694 188.066 157.709 188.034 157.725 187.995C157.741 187.956 157.748 187.917 157.756 187.878C157.764 187.831 157.772 187.783 157.772 187.744Z" fill="#455A64"></path><path d="M155.569 185.451L154.997 184.565C154.37 185.64 153.884 186.917 153.641 188.227L154.566 188.156C154.746 187.184 155.107 186.243 155.569 185.451Z" fill="#455A64"></path><path d="M157.192 183.695V182.189C156.369 182.66 155.616 183.507 154.997 184.557L155.569 185.443C156.024 184.675 156.581 184.048 157.192 183.695Z" fill="#455A64"></path><path d="M154.432 189.543C154.432 189.088 154.479 188.618 154.565 188.155L153.64 188.226C153.523 188.853 153.46 189.488 153.46 190.107C153.46 190.727 153.523 191.291 153.64 191.777L154.565 190.774C154.479 190.413 154.432 189.998 154.432 189.543Z" fill="#455A64"></path><path d="M160.744 184.118C160.501 183.091 160.015 182.37 159.387 182.025C158.768 181.688 158.015 181.719 157.192 182.189V183.695C157.796 183.342 158.36 183.326 158.815 183.577C159.278 183.828 159.638 184.361 159.819 185.122C159.905 185.482 159.952 185.898 159.952 186.352C159.952 186.815 159.905 187.278 159.819 187.74C159.638 188.704 159.278 189.653 158.815 190.445C158.36 191.221 157.804 191.848 157.192 192.193C156.588 192.546 156.024 192.562 155.569 192.311C155.107 192.06 154.746 191.527 154.566 190.766L153.641 191.77C153.884 192.797 154.37 193.518 154.997 193.863C155.616 194.2 156.369 194.169 157.192 193.699C158.015 193.228 158.768 192.381 159.387 191.331C160.015 190.257 160.501 188.979 160.744 187.67C160.861 187.042 160.924 186.407 160.924 185.788C160.924 185.169 160.861 184.612 160.744 184.118Z" fill="#56718A"></path><path d="M166.514 180.01L183.926 169.959C184.397 169.685 184.773 169.881 184.773 170.39C184.773 170.9 184.397 171.527 183.926 171.802L166.514 181.852C166.043 182.127 165.667 181.931 165.667 181.421C165.659 180.912 166.043 180.277 166.514 180.01Z" fill="#455A64"></path><path d="M166.514 183.719L196.666 166.314C197.137 166.039 197.513 166.235 197.513 166.745C197.513 167.255 197.137 167.882 196.666 168.156L166.514 185.561C166.043 185.835 165.667 185.639 165.667 185.13C165.659 184.62 166.043 183.985 166.514 183.719Z" fill="#E0E0E0"></path><path d="M213.253 165.305L266.555 132.036C266.993 131.76 267.344 131.105 267.344 130.552V115.86C267.344 115.315 266.993 115.094 266.555 115.362L213.253 148.623C212.815 148.9 212.464 149.555 212.464 150.1V164.8C212.457 165.361 212.815 165.582 213.253 165.305Z" fill="#F0F0F0"></path><path d="M218.916 154.016C218.916 154.008 218.916 154 218.924 153.984L219.3 152.416L218.782 152.714C218.767 152.722 218.759 152.722 218.751 152.714C218.743 152.706 218.735 152.691 218.735 152.667V152.385C218.735 152.361 218.743 152.346 218.751 152.322C218.759 152.299 218.775 152.291 218.782 152.283L219.613 151.805C219.629 151.797 219.637 151.797 219.645 151.805C219.653 151.813 219.66 151.828 219.66 151.852V152.103C219.66 152.134 219.653 152.181 219.629 152.252L219.253 153.82C219.245 153.835 219.245 153.859 219.237 153.874C219.229 153.89 219.221 153.906 219.206 153.914L218.963 154.055C218.955 154.063 218.939 154.063 218.931 154.055C218.924 154.047 218.916 154.031 218.916 154.016Z" fill="#455A64"></path><path d="M220.304 151.382C220.39 151.335 220.468 151.312 220.531 151.312C220.594 151.312 220.649 151.335 220.688 151.382C220.727 151.421 220.758 151.484 220.782 151.562C220.805 151.641 220.813 151.727 220.813 151.821C220.813 151.9 220.813 151.978 220.813 152.064C220.813 152.15 220.813 152.229 220.813 152.299C220.813 152.401 220.797 152.495 220.782 152.597C220.758 152.699 220.727 152.793 220.688 152.88C220.649 152.966 220.594 153.052 220.531 153.13C220.468 153.209 220.39 153.272 220.304 153.319C220.217 153.366 220.139 153.389 220.076 153.389C220.014 153.389 219.959 153.366 219.919 153.319C219.88 153.279 219.849 153.217 219.825 153.138C219.802 153.06 219.794 152.974 219.786 152.88C219.786 152.809 219.786 152.731 219.786 152.644C219.786 152.558 219.786 152.48 219.786 152.401C219.786 152.299 219.802 152.205 219.825 152.103C219.849 152.001 219.872 151.907 219.919 151.821C219.959 151.727 220.014 151.649 220.076 151.57C220.147 151.492 220.217 151.429 220.304 151.382ZM220.492 152.464C220.5 152.307 220.5 152.158 220.492 152.017C220.492 151.97 220.484 151.939 220.476 151.9C220.468 151.868 220.46 151.837 220.445 151.821C220.429 151.805 220.413 151.79 220.39 151.79C220.366 151.79 220.335 151.798 220.304 151.813C220.272 151.837 220.241 151.86 220.217 151.884C220.194 151.915 220.178 151.947 220.162 151.986C220.147 152.025 220.139 152.056 220.131 152.103C220.123 152.143 220.123 152.19 220.123 152.237C220.115 152.386 220.115 152.535 220.123 152.684C220.123 152.731 220.131 152.77 220.131 152.801C220.139 152.832 220.147 152.864 220.162 152.88C220.178 152.895 220.194 152.911 220.217 152.911C220.241 152.911 220.272 152.903 220.304 152.887C220.335 152.864 220.366 152.84 220.39 152.817C220.413 152.785 220.429 152.754 220.445 152.715C220.46 152.676 220.468 152.636 220.476 152.597C220.484 152.55 220.492 152.503 220.492 152.464Z" fill="#455A64"></path><path d="M218.289 150.171L217.717 149.285C217.089 150.359 216.603 151.637 216.36 152.946L217.285 152.876C217.466 151.904 217.826 150.963 218.289 150.171Z" fill="#455A64"></path><path d="M219.912 148.414V146.909C219.089 147.38 218.336 148.226 217.717 149.277L218.289 150.163C218.744 149.394 219.3 148.767 219.912 148.414Z" fill="#455A64"></path><path d="M217.152 154.263C217.152 153.808 217.199 153.338 217.285 152.875L216.36 152.946C216.242 153.573 216.18 154.208 216.18 154.827C216.18 155.447 216.242 156.011 216.36 156.497L217.285 155.494C217.199 155.133 217.152 154.717 217.152 154.263Z" fill="#455A64"></path><path d="M223.463 148.838C223.22 147.811 222.734 147.089 222.107 146.745C221.488 146.407 220.735 146.439 219.912 146.909V148.414C220.516 148.062 221.08 148.046 221.535 148.297C221.997 148.548 222.358 149.081 222.538 149.841C222.625 150.202 222.672 150.617 222.672 151.072C222.672 151.535 222.625 151.997 222.538 152.46C222.358 153.424 221.997 154.373 221.535 155.165C221.08 155.941 220.523 156.568 219.912 156.913C219.308 157.266 218.744 157.281 218.289 157.031C217.826 156.78 217.466 156.247 217.285 155.486L216.36 156.49C216.603 157.517 217.089 158.238 217.717 158.583C218.336 158.92 219.089 158.889 219.912 158.418C220.735 157.948 221.488 157.101 222.107 156.051C222.734 154.977 223.22 153.699 223.463 152.389C223.581 151.762 223.644 151.127 223.644 150.508C223.644 149.888 223.581 149.332 223.463 148.838Z" fill="#F06942"></path><path d="M229.234 144.73L246.646 134.679C247.117 134.405 247.493 134.601 247.493 135.11C247.493 135.62 247.117 136.247 246.646 136.521L229.234 146.572C228.763 146.847 228.387 146.651 228.387 146.141C228.379 145.631 228.763 144.996 229.234 144.73Z" fill="#455A64"></path><path d="M229.234 148.438L259.386 131.033C259.857 130.759 260.233 130.955 260.233 131.465C260.233 131.974 259.857 132.601 259.386 132.876L229.234 150.281C228.763 150.555 228.387 150.359 228.387 149.849C228.379 149.34 228.763 148.705 229.234 148.438Z" fill="#E0E0E0"></path><path d="M209.344 120.54L266.568 87.5024C267.038 87.228 267.415 86.5773 267.415 86.0285V71.4383C267.415 70.8973 267.038 70.6778 266.568 70.9443L209.344 103.974C208.873 104.249 208.497 104.899 208.497 105.448V120.046C208.497 120.587 208.873 120.807 209.344 120.54Z" fill="#F0F0F0"></path><path d="M215.6 108.326C215.6 108.224 215.615 108.122 215.639 108.02C215.67 107.918 215.702 107.832 215.756 107.746C215.803 107.66 215.858 107.589 215.921 107.518C215.984 107.456 216.047 107.401 216.109 107.362C216.172 107.322 216.235 107.307 216.297 107.299C216.36 107.291 216.415 107.307 216.462 107.338C216.509 107.369 216.548 107.416 216.58 107.479C216.611 107.542 216.619 107.628 216.619 107.73C216.619 107.785 216.619 107.832 216.611 107.879C216.603 107.926 216.595 107.973 216.58 108.02C216.572 108.067 216.556 108.106 216.54 108.153C216.525 108.193 216.509 108.24 216.493 108.279L216.164 109.173C216.156 109.188 216.148 109.196 216.148 109.22C216.141 109.235 216.133 109.251 216.109 109.259L215.835 109.416C215.827 109.424 215.819 109.424 215.811 109.416C215.803 109.408 215.803 109.392 215.803 109.376C215.803 109.369 215.803 109.361 215.803 109.353C215.803 109.345 215.803 109.337 215.811 109.337L216.031 108.726C215.976 108.749 215.921 108.757 215.866 108.749C215.811 108.741 215.772 108.726 215.733 108.694C215.694 108.663 215.662 108.616 215.639 108.553C215.615 108.498 215.6 108.42 215.6 108.326ZM216.297 107.926C216.297 107.895 216.29 107.863 216.282 107.84C216.274 107.816 216.258 107.801 216.242 107.793C216.227 107.785 216.203 107.777 216.18 107.777C216.156 107.777 216.133 107.785 216.109 107.801C216.086 107.816 216.062 107.832 216.039 107.856C216.015 107.879 215.999 107.91 215.976 107.942C215.96 107.973 215.945 108.004 215.937 108.044C215.929 108.083 215.921 108.114 215.921 108.153C215.921 108.193 215.929 108.216 215.937 108.24C215.945 108.263 215.96 108.279 215.976 108.287C215.992 108.295 216.015 108.302 216.039 108.302C216.062 108.302 216.086 108.295 216.109 108.279C216.133 108.263 216.156 108.248 216.18 108.224C216.203 108.2 216.219 108.169 216.242 108.138C216.258 108.106 216.274 108.075 216.282 108.036C216.29 107.997 216.297 107.957 216.297 107.926Z" fill="#455A64"></path><path d="M217.277 106.696C217.363 106.649 217.442 106.625 217.505 106.625C217.567 106.625 217.622 106.649 217.661 106.696C217.701 106.735 217.732 106.797 217.755 106.876C217.779 106.954 217.787 107.041 217.787 107.135C217.787 107.213 217.787 107.291 217.787 107.378C217.787 107.464 217.787 107.542 217.787 107.613C217.787 107.715 217.771 107.809 217.755 107.911C217.732 108.013 217.701 108.107 217.661 108.193C217.622 108.279 217.567 108.365 217.505 108.444C217.442 108.522 217.363 108.585 217.277 108.632C217.191 108.679 217.113 108.703 217.05 108.703C216.987 108.703 216.932 108.679 216.893 108.632C216.854 108.593 216.822 108.53 216.799 108.452C216.775 108.373 216.768 108.287 216.768 108.193C216.768 108.122 216.768 108.044 216.768 107.958C216.768 107.872 216.768 107.793 216.768 107.715C216.768 107.613 216.783 107.519 216.799 107.417C216.822 107.315 216.854 107.221 216.893 107.135C216.932 107.041 216.987 106.962 217.05 106.884C217.113 106.805 217.191 106.743 217.277 106.696ZM217.457 107.777C217.465 107.621 217.465 107.472 217.457 107.331C217.457 107.284 217.45 107.252 217.442 107.213C217.434 107.182 217.426 107.15 217.41 107.135C217.395 107.119 217.379 107.103 217.356 107.103C217.332 107.103 217.301 107.111 217.269 107.127C217.238 107.15 217.207 107.174 217.183 107.197C217.16 107.229 217.144 107.26 217.128 107.299C217.113 107.338 217.105 107.37 217.097 107.417C217.089 107.456 217.089 107.503 217.089 107.55C217.081 107.699 217.081 107.848 217.089 107.997C217.089 108.044 217.097 108.083 217.097 108.115C217.105 108.146 217.113 108.177 217.128 108.193C217.144 108.209 217.16 108.224 217.183 108.224C217.207 108.224 217.238 108.217 217.269 108.201C217.301 108.177 217.332 108.154 217.356 108.13C217.379 108.099 217.395 108.068 217.41 108.028C217.426 107.989 217.434 107.95 217.442 107.911C217.457 107.864 217.457 107.817 217.457 107.777Z" fill="#455A64"></path><path d="M216.463 103.692V102.187C215.64 102.657 214.887 103.504 214.268 104.554L214.84 105.44C215.295 104.672 215.851 104.045 216.463 103.692Z" fill="#455A64"></path><path d="M220.014 104.115C219.771 103.088 219.285 102.367 218.658 102.022C218.038 101.685 217.286 101.716 216.462 102.186V103.692C217.066 103.339 217.63 103.323 218.085 103.574C218.548 103.825 218.908 104.358 219.089 105.119C219.175 105.479 219.222 105.895 219.222 106.35C219.222 106.804 219.175 107.275 219.089 107.737C218.908 108.702 218.556 109.642 218.085 110.434C217.63 111.202 217.066 111.838 216.462 112.19C215.859 112.543 215.294 112.559 214.839 112.308C214.377 112.057 214.016 111.524 213.836 110.763C213.75 110.403 213.703 109.987 213.703 109.533C213.703 109.078 213.75 108.607 213.836 108.145C214.016 107.181 214.377 106.232 214.839 105.44L214.267 104.554C213.64 105.628 213.154 106.906 212.911 108.215C212.793 108.843 212.73 109.478 212.73 110.097C212.73 110.716 212.793 111.281 212.911 111.767C213.154 112.794 213.64 113.515 214.267 113.86C214.886 114.197 215.639 114.166 216.462 113.696C217.286 113.225 218.038 112.378 218.658 111.328C219.285 110.254 219.771 108.976 220.014 107.667C220.131 107.039 220.194 106.404 220.194 105.785C220.194 105.166 220.131 104.609 220.014 104.115Z" fill="#F06942"></path><path d="M225.769 100.007L243.181 89.9563C243.652 89.6819 244.028 89.8779 244.028 90.3875C244.028 90.8971 243.652 91.5243 243.181 91.7987L225.769 101.85C225.298 102.124 224.922 101.928 224.922 101.418C224.922 100.909 225.298 100.274 225.769 100.007Z" fill="#455A64"></path><path d="M225.769 103.708L255.921 86.303C256.392 86.0286 256.768 86.2246 256.768 86.7342C256.768 87.2438 256.392 87.871 255.921 88.1454L225.769 105.55C225.298 105.825 224.922 105.629 224.922 105.119C224.922 104.609 225.298 103.982 225.769 103.708Z" fill="#E0E0E0"></path><path d="M153.076 160.398L165.291 153.326C165.761 153.052 166.138 153.248 166.138 153.758C166.138 154.267 165.761 154.894 165.291 155.169L153.076 162.24C152.606 162.515 152.229 162.319 152.229 161.809C152.229 161.3 152.606 160.665 153.076 160.398Z" fill="#455A64"></path><path d="M266.631 99.4029V192.675C266.631 192.934 266.403 193.334 266.176 193.467L147.188 262.161V168.889C147.188 168.63 147.416 168.23 147.643 168.097L149.133 167.235C149.838 166.827 150.371 165.902 150.371 165.086V159.692C150.371 159.434 150.599 159.034 150.826 158.901L167.909 149.038V154.056C167.909 154.965 168.537 155.443 169.164 155.443C169.423 155.443 169.681 155.373 169.932 155.224L266.631 99.4029ZM266.944 98.415C266.827 98.415 266.701 98.4542 266.568 98.5326L169.54 154.549C169.407 154.628 169.274 154.667 169.164 154.667C168.882 154.667 168.693 154.448 168.693 154.063V148.669C168.693 148.285 168.505 148.066 168.223 148.066C168.105 148.066 167.98 148.105 167.847 148.183L150.434 158.234C149.964 158.509 149.587 159.159 149.587 159.708V165.102C149.587 165.643 149.211 166.302 148.741 166.576L147.251 167.438C146.781 167.713 146.404 168.364 146.404 168.912V262.561C146.404 262.945 146.592 263.165 146.875 263.165C146.992 263.165 147.118 263.126 147.251 263.047L266.568 194.157C267.038 193.883 267.415 193.232 267.415 192.683V99.0344C267.415 98.6346 267.227 98.415 266.944 98.415Z" fill="#E0E0E0"></path><path d="M154.071 172.958C153.922 172.958 153.781 172.919 153.656 172.848C153.374 172.683 153.209 172.362 153.209 171.962V168.403C153.209 167.728 153.672 166.929 154.252 166.592L163.715 161.135C164.06 160.931 164.428 160.915 164.71 161.072C164.993 161.237 165.157 161.558 165.157 161.958V165.518C165.157 166.192 164.695 166.991 164.114 167.329L154.652 172.785C154.456 172.903 154.26 172.958 154.071 172.958ZM154.652 167.282C154.307 167.485 154.001 168.011 154.001 168.411V171.97C154.001 172.103 154.04 172.174 154.056 172.182C154.071 172.189 154.15 172.189 154.267 172.119L163.73 166.662C164.075 166.458 164.381 165.933 164.381 165.533V161.974C164.381 161.841 164.342 161.77 164.326 161.762C164.31 161.754 164.232 161.754 164.114 161.825L154.652 167.282Z" fill="#E0E0E0"></path><path d="M155.208 168.74L161.378 165.165C161.692 164.985 161.943 165.11 161.943 165.455C161.943 165.8 161.692 166.216 161.378 166.396L155.208 169.971C154.894 170.151 154.644 170.026 154.644 169.681C154.644 169.344 154.894 168.92 155.208 168.74Z" fill="#E0E0E0"></path><path d="M162.813 164.577L163.323 165.306C163.338 165.337 163.378 165.314 163.401 165.259L163.911 163.942C163.934 163.879 163.911 163.816 163.871 163.84L162.852 164.428C162.813 164.459 162.79 164.546 162.813 164.577Z" fill="#455A64"></path><path d="M154.033 219.919C154.056 219.896 154.08 219.872 154.111 219.849C154.143 219.825 154.174 219.802 154.198 219.786C154.37 219.684 154.535 219.637 154.676 219.637C154.825 219.637 154.95 219.692 155.06 219.778C155.17 219.872 155.248 220.006 155.311 220.178C155.374 220.351 155.405 220.562 155.405 220.805C155.405 221.048 155.374 221.291 155.311 221.542C155.248 221.785 155.17 222.02 155.06 222.24C154.95 222.46 154.825 222.656 154.676 222.828C154.527 223 154.37 223.142 154.198 223.236C154.025 223.338 153.86 223.385 153.712 223.385C153.563 223.385 153.437 223.33 153.327 223.236C153.218 223.142 153.139 223.008 153.076 222.836C153.014 222.663 152.982 222.452 152.982 222.209C152.982 222.068 152.99 221.934 153.014 221.801C153.037 221.668 153.061 221.542 153.092 221.417C153.124 221.291 153.163 221.174 153.202 221.048C153.241 220.931 153.28 220.813 153.32 220.703L154.166 218.289C154.182 218.257 154.198 218.218 154.221 218.171C154.237 218.124 154.268 218.093 154.315 218.061L154.582 217.904C154.613 217.889 154.629 217.889 154.652 217.912C154.668 217.936 154.676 217.967 154.676 218.006C154.676 218.03 154.676 218.053 154.668 218.069C154.66 218.085 154.66 218.1 154.652 218.116L154.033 219.919ZM153.429 221.958C153.429 222.099 153.445 222.224 153.484 222.334C153.523 222.444 153.57 222.53 153.633 222.593C153.696 222.656 153.774 222.687 153.876 222.695C153.97 222.703 154.08 222.671 154.198 222.601C154.315 222.53 154.425 222.444 154.519 222.326C154.613 222.209 154.692 222.083 154.762 221.95C154.825 221.809 154.88 221.668 154.911 221.519C154.942 221.37 154.966 221.221 154.966 221.08C154.966 220.939 154.95 220.813 154.911 220.703C154.872 220.594 154.825 220.507 154.762 220.445C154.699 220.382 154.613 220.351 154.519 220.343C154.425 220.335 154.315 220.366 154.198 220.437C154.08 220.507 153.97 220.594 153.876 220.711C153.782 220.829 153.704 220.954 153.633 221.088C153.57 221.229 153.516 221.37 153.484 221.519C153.453 221.668 153.429 221.817 153.429 221.958Z" fill="#455A64"></path><path d="M156.197 220.805C156.213 220.876 156.236 220.939 156.26 220.994C156.291 221.056 156.33 221.095 156.385 221.127C156.44 221.158 156.518 221.158 156.605 221.15C156.699 221.135 156.816 221.088 156.965 221.001C157.059 220.947 157.153 220.876 157.24 220.79C157.326 220.703 157.404 220.602 157.467 220.492C157.53 220.374 157.585 220.257 157.624 220.115C157.663 219.982 157.679 219.833 157.679 219.676C157.679 219.52 157.663 219.402 157.624 219.316C157.585 219.23 157.538 219.175 157.475 219.143C157.412 219.112 157.334 219.112 157.247 219.135C157.161 219.159 157.067 219.198 156.965 219.253L156.581 219.48C156.55 219.504 156.518 219.496 156.495 219.473C156.471 219.449 156.456 219.41 156.456 219.355V219.096C156.456 219.049 156.463 219.01 156.479 218.963C156.495 218.916 156.511 218.877 156.526 218.838L157.365 216.964L156.024 217.74C155.993 217.763 155.962 217.756 155.938 217.732C155.915 217.709 155.899 217.669 155.899 217.614V217.356C155.899 217.301 155.915 217.254 155.938 217.199C155.962 217.144 155.993 217.113 156.024 217.089L157.859 216.031C157.89 216.007 157.922 216.015 157.945 216.039C157.969 216.062 157.984 216.101 157.984 216.156V216.415C157.984 216.462 157.977 216.501 157.961 216.556C157.945 216.603 157.922 216.658 157.898 216.713L157.075 218.563C157.232 218.477 157.373 218.43 157.498 218.43C157.624 218.422 157.734 218.461 157.828 218.532C157.922 218.602 157.992 218.72 158.039 218.869C158.094 219.018 158.118 219.206 158.118 219.433C158.118 219.676 158.086 219.912 158.024 220.147C157.961 220.374 157.875 220.586 157.773 220.782C157.671 220.97 157.545 221.142 157.404 221.299C157.263 221.456 157.114 221.574 156.957 221.668C156.746 221.785 156.573 221.856 156.416 221.864C156.267 221.879 156.142 221.848 156.04 221.785C155.938 221.723 155.868 221.629 155.821 221.503C155.774 221.378 155.75 221.244 155.742 221.088C155.742 221.041 155.75 221.001 155.774 220.954C155.797 220.915 155.821 220.884 155.844 220.868L156.056 220.743C156.087 220.719 156.119 220.719 156.134 220.743C156.173 220.743 156.189 220.774 156.197 220.805Z" fill="#455A64"></path><path d="M158.972 219.206C158.988 219.276 159.012 219.339 159.035 219.402C159.066 219.464 159.106 219.504 159.16 219.535C159.215 219.566 159.294 219.566 159.38 219.551C159.474 219.535 159.592 219.488 159.741 219.402C159.835 219.347 159.929 219.276 160.015 219.19C160.101 219.104 160.18 219.002 160.242 218.892C160.305 218.775 160.36 218.649 160.399 218.516C160.438 218.383 160.454 218.234 160.454 218.077C160.454 217.92 160.438 217.802 160.399 217.716C160.36 217.63 160.313 217.575 160.25 217.544C160.187 217.512 160.109 217.512 160.023 217.536C159.937 217.559 159.843 217.599 159.741 217.653L159.356 217.881C159.325 217.896 159.294 217.896 159.27 217.873C159.247 217.849 159.231 217.81 159.231 217.755V217.497C159.231 217.457 159.239 217.41 159.255 217.363C159.27 217.316 159.286 217.277 159.302 217.238L160.14 215.364L158.8 216.14C158.768 216.164 158.737 216.156 158.714 216.132C158.69 216.109 158.674 216.07 158.674 216.015V215.756C158.674 215.701 158.69 215.654 158.714 215.599C158.737 215.544 158.768 215.513 158.8 215.49L160.634 214.431C160.666 214.408 160.697 214.416 160.721 214.439C160.744 214.463 160.76 214.502 160.76 214.557V214.815C160.76 214.862 160.752 214.902 160.736 214.956C160.721 215.004 160.697 215.058 160.674 215.113L159.85 216.964C160.007 216.877 160.148 216.83 160.274 216.83C160.407 216.822 160.517 216.862 160.603 216.932C160.697 217.003 160.768 217.12 160.815 217.269C160.87 217.418 160.893 217.606 160.893 217.834C160.893 218.077 160.862 218.312 160.799 218.547C160.736 218.775 160.65 218.986 160.548 219.182C160.446 219.378 160.321 219.543 160.18 219.7C160.039 219.856 159.89 219.974 159.733 220.068C159.521 220.186 159.341 220.256 159.192 220.264C159.043 220.28 158.917 220.248 158.816 220.186C158.721 220.123 158.643 220.029 158.596 219.904C158.549 219.778 158.525 219.645 158.518 219.488C158.518 219.441 158.525 219.402 158.549 219.355C158.572 219.316 158.596 219.284 158.62 219.268L158.831 219.143C158.863 219.12 158.894 219.127 158.91 219.143C158.949 219.143 158.964 219.174 158.972 219.206Z" fill="#455A64"></path><path d="M153.343 233.209L180.861 217.262C181.175 217.082 181.426 217.207 181.426 217.544C181.426 217.881 181.175 218.305 180.861 218.485L153.343 234.432C153.029 234.612 152.778 234.487 152.778 234.149C152.778 233.804 153.037 233.389 153.343 233.209Z" fill="#E0E0E0"></path><path d="M153.343 214.808L159.513 211.233C159.826 211.052 160.077 211.178 160.077 211.515C160.077 211.852 159.826 212.275 159.513 212.456L153.343 216.031C153.029 216.211 152.778 216.086 152.778 215.749C152.778 215.411 153.037 214.988 153.343 214.808Z" fill="#E0E0E0"></path><path d="M154.393 244.906C154.393 244.961 154.377 245.008 154.354 245.063C154.33 245.118 154.299 245.149 154.268 245.172L154.079 245.282C154.048 245.306 154.017 245.298 153.993 245.274C153.97 245.251 153.954 245.212 153.954 245.157V241.205L153.201 242.523C153.17 242.577 153.139 242.609 153.107 242.617C153.076 242.624 153.045 242.617 153.021 242.593L152.911 242.436C152.888 242.405 152.88 242.366 152.888 242.303C152.896 242.248 152.911 242.193 152.935 242.146L153.93 240.39C153.954 240.351 153.977 240.32 154.009 240.296C154.032 240.28 154.056 240.265 154.079 240.249L154.268 240.139C154.299 240.116 154.33 240.124 154.354 240.147C154.377 240.171 154.393 240.21 154.393 240.265V244.906Z" fill="#455A64"></path><path d="M156.432 241.284C156.526 241.104 156.596 240.931 156.643 240.766C156.691 240.602 156.714 240.414 156.714 240.202C156.714 239.951 156.667 239.763 156.573 239.645C156.479 239.536 156.322 239.536 156.118 239.653C156.008 239.716 155.914 239.794 155.844 239.881C155.765 239.975 155.703 240.077 155.656 240.186C155.609 240.296 155.562 240.421 155.538 240.547C155.507 240.672 155.483 240.798 155.467 240.923C155.46 240.978 155.444 241.033 155.42 241.072C155.397 241.111 155.373 241.143 155.35 241.158L155.138 241.284C155.107 241.3 155.083 241.3 155.068 241.276C155.044 241.253 155.036 241.221 155.036 241.182C155.036 241.002 155.068 240.806 155.115 240.594C155.162 240.382 155.232 240.178 155.326 239.975C155.42 239.771 155.53 239.583 155.671 239.41C155.805 239.238 155.961 239.097 156.134 239.002C156.306 238.901 156.455 238.861 156.589 238.861C156.722 238.869 156.832 238.916 156.918 239.002C157.004 239.089 157.075 239.214 157.114 239.379C157.161 239.543 157.184 239.724 157.184 239.935C157.184 240.092 157.177 240.233 157.161 240.367C157.145 240.5 157.122 240.633 157.083 240.766C157.043 240.9 157.004 241.033 156.941 241.174C156.887 241.307 156.816 241.456 156.738 241.613L155.695 243.706L157.122 242.883C157.153 242.86 157.184 242.868 157.208 242.891C157.231 242.915 157.247 242.954 157.247 243.009V243.267C157.247 243.322 157.231 243.369 157.208 243.424C157.184 243.479 157.153 243.51 157.122 243.534L155.115 244.694C155.083 244.718 155.052 244.71 155.028 244.686C155.005 244.663 154.989 244.624 154.989 244.569V244.31C154.989 244.255 154.997 244.208 155.013 244.161C155.028 244.114 155.052 244.051 155.091 243.981L156.432 241.284Z" fill="#455A64"></path><path d="M160.116 238.689C160.116 238.9 160.124 239.104 160.124 239.292C160.124 239.481 160.124 239.684 160.116 239.904C160.116 240.186 160.084 240.46 160.037 240.727C159.99 240.994 159.92 241.245 159.818 241.48C159.724 241.715 159.598 241.919 159.449 242.107C159.3 242.295 159.128 242.444 158.924 242.562C158.72 242.679 158.54 242.734 158.399 242.718C158.25 242.703 158.132 242.632 158.03 242.515C157.936 242.397 157.858 242.225 157.811 242.013C157.764 241.801 157.74 241.558 157.732 241.276C157.732 241.064 157.725 240.86 157.725 240.672C157.725 240.484 157.725 240.28 157.732 240.061C157.732 239.778 157.764 239.504 157.811 239.237C157.858 238.971 157.928 238.72 158.03 238.485C158.124 238.25 158.25 238.038 158.399 237.858C158.548 237.669 158.72 237.513 158.924 237.395C159.128 237.277 159.308 237.23 159.449 237.246C159.598 237.262 159.716 237.332 159.818 237.458C159.912 237.575 159.983 237.748 160.037 237.96C160.092 238.163 160.116 238.406 160.116 238.689ZM158.179 241.017C158.187 241.464 158.25 241.762 158.375 241.903C158.501 242.044 158.689 242.044 158.924 241.903C159.167 241.762 159.347 241.55 159.473 241.26C159.598 240.97 159.669 240.602 159.669 240.139C159.669 239.92 159.677 239.716 159.677 239.528C159.677 239.339 159.677 239.136 159.669 238.924C159.661 238.469 159.598 238.171 159.473 238.03C159.347 237.889 159.167 237.881 158.924 238.022C158.681 238.163 158.501 238.375 158.375 238.665C158.25 238.955 158.179 239.332 158.179 239.786C158.179 240.006 158.171 240.21 158.171 240.398C158.179 240.602 158.179 240.805 158.179 241.017Z" fill="#455A64"></path><path d="M153.343 255.247L180.861 239.3C181.175 239.12 181.426 239.245 181.426 239.582C181.426 239.919 181.175 240.343 180.861 240.523L153.343 256.47C153.029 256.65 152.778 256.525 152.778 256.187C152.778 255.85 153.037 255.427 153.343 255.247Z" fill="#E0E0E0"></path><path d="M153.343 236.854L159.513 233.279C159.826 233.098 160.077 233.224 160.077 233.561C160.077 233.898 159.826 234.321 159.513 234.502L153.343 238.077C153.029 238.257 152.778 238.132 152.778 237.787C152.778 237.45 153.037 237.034 153.343 236.854Z" fill="#E0E0E0"></path><path d="M192.245 197.81C192.268 197.786 192.292 197.763 192.323 197.739C192.355 197.716 192.386 197.692 192.41 197.677C192.582 197.575 192.747 197.528 192.888 197.528C193.037 197.528 193.162 197.583 193.272 197.669C193.382 197.763 193.46 197.896 193.523 198.069C193.586 198.241 193.617 198.453 193.617 198.696C193.617 198.939 193.586 199.182 193.523 199.433C193.46 199.676 193.382 199.911 193.272 200.131C193.162 200.35 193.037 200.546 192.888 200.719C192.739 200.891 192.582 201.032 192.41 201.126C192.237 201.228 192.072 201.275 191.923 201.275C191.775 201.275 191.649 201.22 191.539 201.126C191.43 201.032 191.351 200.899 191.288 200.726C191.226 200.554 191.194 200.342 191.194 200.099C191.194 199.958 191.202 199.825 191.226 199.692C191.249 199.558 191.273 199.433 191.304 199.307C191.335 199.182 191.375 199.064 191.414 198.939C191.453 198.821 191.492 198.704 191.531 198.594L192.378 196.179C192.394 196.148 192.41 196.109 192.433 196.062C192.449 196.015 192.48 195.983 192.527 195.952L192.794 195.795C192.825 195.779 192.841 195.779 192.864 195.803C192.88 195.826 192.888 195.858 192.888 195.897C192.888 195.921 192.888 195.944 192.88 195.96C192.872 195.975 192.872 195.991 192.864 196.007L192.245 197.81ZM191.649 199.848C191.649 199.99 191.665 200.115 191.704 200.225C191.743 200.334 191.79 200.421 191.853 200.483C191.916 200.546 191.994 200.578 192.096 200.585C192.19 200.593 192.3 200.562 192.417 200.491C192.535 200.421 192.645 200.334 192.739 200.217C192.833 200.099 192.911 199.974 192.982 199.841C193.045 199.699 193.099 199.558 193.131 199.409C193.162 199.26 193.186 199.111 193.186 198.97C193.186 198.829 193.17 198.704 193.131 198.594C193.092 198.484 193.045 198.398 192.982 198.335C192.919 198.273 192.833 198.241 192.739 198.233C192.645 198.226 192.535 198.257 192.417 198.327C192.3 198.398 192.19 198.484 192.096 198.602C192.002 198.719 191.923 198.845 191.853 198.978C191.79 199.119 191.735 199.26 191.704 199.409C191.665 199.558 191.649 199.707 191.649 199.848Z" fill="#455A64"></path><path d="M195.475 196.658C195.569 196.478 195.639 196.305 195.687 196.14C195.734 195.976 195.757 195.788 195.757 195.576C195.757 195.325 195.71 195.137 195.616 195.019C195.522 194.91 195.365 194.91 195.161 195.027C195.051 195.09 194.957 195.168 194.887 195.255C194.808 195.349 194.746 195.451 194.699 195.56C194.644 195.67 194.605 195.796 194.573 195.921C194.542 196.046 194.518 196.172 194.503 196.297C194.495 196.352 194.479 196.407 194.456 196.446C194.432 196.485 194.409 196.517 194.385 196.532L194.173 196.658C194.142 196.674 194.118 196.674 194.103 196.65C194.079 196.627 194.071 196.595 194.071 196.556C194.071 196.376 194.103 196.18 194.15 195.968C194.197 195.756 194.275 195.552 194.362 195.349C194.456 195.145 194.565 194.957 194.707 194.784C194.84 194.612 194.997 194.471 195.169 194.376C195.342 194.275 195.491 194.235 195.624 194.235C195.757 194.243 195.859 194.29 195.953 194.376C196.039 194.463 196.11 194.588 196.149 194.753C196.196 194.917 196.22 195.098 196.22 195.309C196.22 195.466 196.212 195.607 196.196 195.741C196.18 195.874 196.157 196.007 196.118 196.14C196.086 196.274 196.039 196.407 195.977 196.548C195.922 196.681 195.851 196.83 195.773 196.987L194.73 199.08L196.157 198.257C196.188 198.234 196.22 198.242 196.243 198.265C196.267 198.289 196.282 198.328 196.282 198.383V198.641C196.282 198.696 196.267 198.743 196.243 198.798C196.22 198.853 196.188 198.884 196.157 198.908L194.15 200.068C194.118 200.092 194.087 200.084 194.064 200.06C194.04 200.037 194.024 199.998 194.024 199.943V199.684C194.024 199.629 194.032 199.582 194.048 199.535C194.064 199.488 194.087 199.425 194.126 199.355L195.475 196.658Z" fill="#455A64"></path><path d="M198.643 192.448C198.674 192.424 198.706 192.432 198.729 192.456C198.753 192.479 198.768 192.518 198.768 192.573V192.832C198.768 192.871 198.76 192.926 198.753 192.973C198.745 193.028 198.729 193.083 198.713 193.146L197.678 197.857C197.663 197.904 197.647 197.959 197.631 198.006C197.608 198.053 197.584 198.085 197.545 198.108L197.334 198.234C197.302 198.249 197.279 198.249 197.255 198.226C197.232 198.202 197.224 198.171 197.224 198.124C197.224 198.116 197.224 198.1 197.224 198.093C197.224 198.077 197.232 198.061 197.239 198.03L198.282 193.31L196.753 194.196C196.722 194.22 196.691 194.212 196.667 194.188C196.644 194.165 196.628 194.126 196.628 194.071V193.812C196.628 193.757 196.644 193.71 196.667 193.655C196.691 193.6 196.722 193.569 196.753 193.545L198.643 192.448Z" fill="#455A64"></path><path d="M191.563 211.099L219.081 195.153C219.395 194.972 219.645 195.098 219.645 195.435C219.645 195.772 219.395 196.195 219.081 196.376L191.563 212.322C191.249 212.503 190.998 212.377 190.998 212.032C190.998 211.695 191.249 211.28 191.563 211.099Z" fill="#E0E0E0"></path><path d="M191.563 192.699L197.733 189.124C198.046 188.944 198.297 189.069 198.297 189.414C198.297 189.751 198.046 190.175 197.733 190.355L191.563 193.93C191.249 194.11 190.998 193.985 190.998 193.64C190.998 193.303 191.249 192.879 191.563 192.699Z" fill="#E0E0E0"></path><path d="M192.457 221.361C192.441 221.377 192.418 221.393 192.394 221.409C192.363 221.424 192.347 221.44 192.331 221.448C192.182 221.534 192.033 221.581 191.9 221.589C191.759 221.597 191.634 221.557 191.524 221.479C191.414 221.401 191.328 221.275 191.257 221.103C191.187 220.93 191.155 220.711 191.155 220.436C191.155 220.193 191.187 219.95 191.249 219.707C191.312 219.464 191.398 219.237 191.5 219.025C191.61 218.813 191.728 218.625 191.877 218.453C192.018 218.288 192.167 218.155 192.323 218.061C192.504 217.959 192.668 217.904 192.81 217.912C192.951 217.912 193.076 217.959 193.178 218.053C193.28 218.147 193.358 218.28 193.413 218.453C193.468 218.625 193.492 218.837 193.492 219.08C193.492 219.198 193.484 219.331 193.452 219.464C193.429 219.597 193.398 219.739 193.358 219.872C193.319 220.005 193.28 220.138 193.233 220.272C193.186 220.405 193.147 220.523 193.115 220.632L192.269 223.047C192.253 223.078 192.237 223.118 192.214 223.165C192.198 223.212 192.167 223.251 192.12 223.274L191.853 223.431C191.822 223.447 191.806 223.447 191.782 223.423C191.767 223.4 191.759 223.368 191.759 223.329C191.759 223.306 191.759 223.282 191.767 223.267C191.775 223.251 191.775 223.235 191.782 223.22L192.457 221.361ZM193.06 219.331C193.06 219.182 193.045 219.056 193.006 218.947C192.966 218.837 192.919 218.759 192.857 218.696C192.794 218.641 192.715 218.61 192.629 218.61C192.543 218.61 192.441 218.641 192.339 218.704C192.229 218.766 192.135 218.853 192.041 218.955C191.955 219.057 191.877 219.174 191.814 219.307C191.751 219.433 191.704 219.574 191.665 219.723C191.626 219.872 191.61 220.021 191.61 220.17C191.61 220.327 191.626 220.452 191.665 220.562C191.696 220.672 191.751 220.75 191.814 220.805C191.877 220.86 191.955 220.891 192.041 220.891C192.127 220.891 192.229 220.86 192.339 220.797C192.441 220.734 192.543 220.656 192.629 220.546C192.723 220.444 192.794 220.327 192.857 220.193C192.919 220.06 192.966 219.927 193.006 219.778C193.045 219.637 193.06 219.488 193.06 219.331Z" fill="#455A64"></path><path d="M194.268 220.821C194.284 220.892 194.307 220.954 194.331 221.017C194.362 221.08 194.401 221.119 194.456 221.15C194.511 221.182 194.59 221.182 194.676 221.166C194.77 221.15 194.888 221.103 195.036 221.017C195.131 220.962 195.225 220.892 195.311 220.805C195.397 220.719 195.476 220.617 195.538 220.507C195.601 220.39 195.656 220.264 195.695 220.131C195.734 219.998 195.758 219.849 195.758 219.692C195.758 219.535 195.742 219.418 195.703 219.331C195.664 219.245 195.617 219.19 195.554 219.159C195.491 219.128 195.413 219.128 195.327 219.151C195.24 219.175 195.146 219.214 195.044 219.269L194.66 219.496C194.629 219.52 194.597 219.512 194.574 219.488C194.55 219.465 194.535 219.425 194.535 219.371V219.112C194.535 219.065 194.543 219.026 194.558 218.979C194.574 218.932 194.59 218.892 194.605 218.853L195.444 216.979L194.104 217.756C194.072 217.779 194.041 217.771 194.017 217.748C193.994 217.724 193.978 217.685 193.978 217.63V217.371C193.978 217.317 193.994 217.269 194.017 217.215C194.041 217.16 194.072 217.128 194.104 217.105L195.938 216.046C195.969 216.023 196.001 216.031 196.024 216.054C196.048 216.078 196.064 216.117 196.064 216.172V216.431C196.064 216.47 196.056 216.517 196.04 216.572C196.024 216.619 196.001 216.674 195.977 216.729L195.154 218.579C195.311 218.492 195.452 218.445 195.577 218.445C195.711 218.438 195.82 218.477 195.907 218.547C196.001 218.618 196.071 218.736 196.118 218.885C196.165 219.033 196.197 219.222 196.197 219.449C196.197 219.692 196.165 219.927 196.103 220.162C196.04 220.39 195.954 220.601 195.852 220.797C195.75 220.986 195.624 221.158 195.483 221.315C195.342 221.472 195.193 221.589 195.036 221.683C194.825 221.801 194.644 221.872 194.496 221.879C194.347 221.895 194.221 221.864 194.119 221.801C194.025 221.738 193.947 221.644 193.9 221.519C193.853 221.393 193.829 221.26 193.821 221.103C193.821 221.056 193.829 221.017 193.853 220.97C193.876 220.931 193.9 220.899 193.923 220.884L194.135 220.758C194.166 220.735 194.198 220.735 194.213 220.758C194.252 220.758 194.268 220.79 194.268 220.821Z" fill="#455A64"></path><path d="M191.563 233.138L219.081 217.192C219.395 217.011 219.645 217.137 219.645 217.474C219.645 217.811 219.395 218.234 219.081 218.415L191.563 234.361C191.249 234.542 190.998 234.416 190.998 234.079C190.998 233.742 191.249 233.319 191.563 233.138Z" fill="#E0E0E0"></path><path d="M191.563 214.745L197.733 211.17C198.046 210.99 198.297 211.115 198.297 211.452C198.297 211.79 198.046 212.213 197.733 212.393L191.563 215.968C191.249 216.149 190.998 216.023 190.998 215.686C190.998 215.341 191.249 214.926 191.563 214.745Z" fill="#E0E0E0"></path><path d="M229.305 196.665L235.475 193.09C235.788 192.91 236.039 193.035 236.039 193.38C236.039 193.725 235.788 194.14 235.475 194.321L229.305 197.896C228.991 198.076 228.74 197.951 228.74 197.606C228.74 197.261 228.991 196.845 229.305 196.665Z" fill="#455A64"></path><path d="M227.94 201.141L236.831 195.983C237.145 195.802 237.395 195.928 237.395 196.265C237.395 196.602 237.145 197.025 236.831 197.206L227.94 202.364C227.627 202.545 227.376 202.419 227.376 202.082C227.376 201.737 227.627 201.322 227.94 201.141Z" fill="#E0E0E0"></path><path d="M227.94 204.826L236.831 199.667C237.145 199.487 237.395 199.612 237.395 199.95C237.395 200.287 237.145 200.71 236.831 200.89L227.94 206.049C227.627 206.229 227.376 206.104 227.376 205.767C227.376 205.422 227.627 205.006 227.94 204.826Z" fill="#E0E0E0"></path><path d="M227.94 208.512L236.831 203.353C237.145 203.173 237.395 203.298 237.395 203.635C237.395 203.972 237.145 204.396 236.831 204.576L227.94 209.735C227.627 209.915 227.376 209.789 227.376 209.452C227.376 209.115 227.627 208.692 227.94 208.512Z" fill="#E0E0E0"></path><path d="M251.594 183.792L257.764 180.217C258.077 180.037 258.328 180.162 258.328 180.499C258.328 180.836 258.077 181.26 257.764 181.44L251.594 185.015C251.28 185.196 251.029 185.07 251.029 184.725C251.029 184.396 251.28 183.972 251.594 183.792Z" fill="#455A64"></path><path d="M250.238 188.269L259.128 183.11C259.442 182.93 259.693 183.056 259.693 183.401C259.693 183.738 259.442 184.161 259.128 184.341L250.238 189.5C249.924 189.68 249.673 189.555 249.673 189.218C249.665 188.873 249.924 188.449 250.238 188.269Z" fill="#E0E0E0"></path><path d="M250.238 191.954L259.128 186.795C259.442 186.615 259.693 186.74 259.693 187.077C259.693 187.415 259.442 187.838 259.128 188.018L250.238 193.177C249.924 193.357 249.673 193.232 249.673 192.887C249.665 192.558 249.924 192.134 250.238 191.954Z" fill="#E0E0E0"></path><path d="M250.238 195.639L259.128 190.48C259.442 190.299 259.693 190.425 259.693 190.762C259.693 191.099 259.442 191.523 259.128 191.703L250.238 196.862C249.924 197.042 249.673 196.916 249.673 196.571C249.665 196.242 249.924 195.819 250.238 195.639Z" fill="#E0E0E0"></path><path d="M254.557 287.477C254.659 284.459 252.66 280.719 250.096 279.119C248.834 278.328 247.666 278.218 246.796 278.665C241.551 281.299 204.687 304.937 202.335 306.097L202.304 306.113C201.865 306.348 201.582 306.873 201.559 307.634C201.504 309.155 202.515 311.044 203.801 311.844C204.452 312.244 205.048 312.298 205.487 312.063L205.518 312.047C209.25 309.993 245.627 294.486 253.068 290.503C253.068 290.503 253.068 290.503 253.075 290.503C253.946 290.025 254.51 288.982 254.557 287.477Z" fill="#307BC1"></path><path opacity="0.1" d="M253.107 282.381C252.315 281.032 251.272 279.848 250.096 279.119C248.834 278.335 247.674 278.218 246.803 278.657C246.631 278.751 246.576 278.782 246.694 278.712C241.903 281.158 214.471 298.664 205.244 304.348C205.22 304.364 205.204 304.372 205.181 304.388C205.055 304.466 204.93 304.544 204.805 304.615C204.765 304.638 204.726 304.662 204.695 304.685C204.624 304.733 204.554 304.772 204.483 304.811C204.397 304.858 204.318 304.913 204.232 304.96C204.224 304.968 204.217 304.968 204.217 304.968C203.237 305.564 202.578 305.956 202.327 306.081L202.296 306.097C202.217 306.136 202.147 306.199 202.076 306.261C201.77 306.544 201.567 306.99 201.543 307.61C201.535 307.782 201.551 307.963 201.567 308.135C201.574 308.206 201.59 308.268 201.598 308.339C201.614 308.449 201.637 308.551 201.661 308.66C201.684 308.747 201.7 308.833 201.731 308.919C201.763 309.021 201.794 309.123 201.833 309.225C201.857 309.303 201.888 309.374 201.912 309.452C201.919 309.468 201.919 309.476 201.927 309.491L253.107 282.381Z" fill="black"></path><path d="M203.793 311.836C202.507 311.036 201.504 309.154 201.559 307.641C201.606 306.128 202.696 305.548 203.981 306.348C205.267 307.147 206.271 309.029 206.216 310.542C206.161 312.063 205.079 312.635 203.793 311.836Z" fill="#307BC1"></path><path d="M192.778 312.855C192.739 314.015 193.507 315.457 194.495 316.077C194.989 316.383 195.436 316.43 195.773 316.249H195.781L204.695 311.506C204.695 311.506 204.695 311.506 204.702 311.506C205.04 311.326 205.251 310.926 205.275 310.346C205.314 309.185 204.546 307.743 203.558 307.124C203.064 306.818 202.609 306.771 202.272 306.951L193.358 311.694C193.021 311.867 192.801 312.267 192.778 312.855Z" fill="#37474F"></path><path d="M193.358 311.686C193.021 311.867 192.801 312.267 192.778 312.855C192.762 313.294 192.864 313.772 193.045 314.227L204.546 308.096C204.271 307.688 203.926 307.343 203.558 307.116C203.064 306.81 202.609 306.763 202.272 306.943L193.358 311.686Z" fill="#263238"></path><path d="M204.217 320.766C204.217 315.05 200.438 309.335 192.888 304.976C177.788 296.258 153.304 296.258 138.204 304.976C130.654 309.335 126.875 315.05 126.875 320.766V331.287C126.875 337.002 130.654 342.718 138.204 347.077C153.304 355.795 177.788 355.795 192.888 347.077C200.438 342.718 204.217 337.002 204.217 331.287V320.766ZM140.078 308.222C146.82 304.325 155.867 302.185 165.55 302.185C175.232 302.185 184.279 304.333 191.022 308.222C197.121 311.742 200.477 316.195 200.477 320.774C200.477 325.344 197.121 329.797 191.022 333.318C184.279 337.214 175.232 339.354 165.55 339.354C155.867 339.354 146.82 337.206 140.078 333.318C133.978 329.797 130.623 325.344 130.623 320.774C130.615 316.195 133.978 311.742 140.078 308.222Z" fill="#307BC1"></path><path opacity="0.3" d="M138.204 336.556C153.304 345.274 177.788 345.274 192.888 336.556C207.988 327.837 207.988 313.702 192.888 304.984C177.788 296.266 153.304 296.266 138.204 304.984C123.104 313.702 123.104 327.837 138.204 336.556ZM130.615 320.766C130.615 316.195 133.97 311.742 140.07 308.214C146.812 304.317 155.859 302.177 165.542 302.177C175.224 302.177 184.272 304.325 191.014 308.214C197.114 311.734 200.469 316.187 200.469 320.766C200.469 325.337 197.114 329.79 191.014 333.31C184.272 337.206 175.224 339.347 165.542 339.347C155.859 339.347 146.812 337.198 140.07 333.31C133.978 329.797 130.615 325.337 130.615 320.766Z" fill="white"></path><path d="M130.614 320.765C130.614 322.561 131.132 324.325 132.127 326.034C133.664 323.376 136.361 320.891 140.077 318.751C146.82 314.854 155.867 312.706 165.549 312.706C175.224 312.706 184.279 314.854 191.014 318.751C194.73 320.891 197.427 323.384 198.971 326.034C199.959 324.333 200.477 322.561 200.477 320.765C200.477 316.195 197.121 311.742 191.014 308.214C184.271 304.325 175.224 302.177 165.549 302.177C155.867 302.177 146.812 304.325 140.077 308.214C133.97 311.742 130.614 316.195 130.614 320.765Z" fill="#307BC1"></path><path opacity="0.1" d="M130.614 320.765C130.614 322.561 131.132 324.325 132.127 326.034C133.664 323.376 136.361 320.891 140.077 318.751C146.82 314.854 155.867 312.706 165.549 312.706C175.224 312.706 184.279 314.854 191.014 318.751C194.73 320.891 197.427 323.384 198.971 326.034C199.959 324.333 200.477 322.561 200.477 320.765C200.477 316.195 197.121 311.742 191.014 308.214C184.271 304.325 175.224 302.177 165.549 302.177C155.867 302.177 146.812 304.325 140.077 308.214C133.97 311.742 130.614 316.195 130.614 320.765Z" fill="black"></path><path opacity="0.4" d="M140.07 312.981C146.813 309.085 155.86 306.944 165.542 306.944C175.225 306.944 184.272 309.092 191.014 312.981C196.048 315.89 199.207 319.426 200.156 323.15C199.199 326.866 196.04 330.409 191.014 333.318C184.272 337.215 175.225 339.355 165.542 339.355C155.86 339.355 146.813 337.207 140.07 333.318C135.037 330.409 131.877 326.874 130.929 323.15C131.877 319.433 135.037 315.89 140.07 312.981Z" fill="white"></path><path opacity="0.1" d="M156.432 342.475V352.988C149.752 352.063 143.417 350.095 138.204 347.077C130.646 342.718 126.875 337.003 126.875 331.287V320.766C126.875 319.614 127.032 318.461 127.338 317.316H127.345C125.511 324.114 129.133 331.311 138.204 336.556C143.417 339.566 149.752 341.534 156.432 342.475Z" fill="black"></path><path d="M351.073 274.583C351.596 274.798 351.713 275.805 351.749 277.81C351.776 279.329 352.038 281.981 350.253 282.476C348.46 282.961 345.856 282.638 344.747 281.181C343.359 279.365 342.431 277.774 340.449 275.554C338.728 273.63 336.862 271.823 336.204 269.153C335.619 266.743 336.177 265.718 337.826 265.062C340.097 264.154 343.567 267.364 345.315 267.894C346.829 268.344 350.551 274.367 351.073 274.583Z" fill="#263238"></path><path d="M351.119 272.73L351.065 275.194C351.065 275.194 348.452 277.099 344.829 275.221C344.73 274.978 344.261 271.688 344.261 271.688L351.119 272.73Z" fill="#FFA8A7"></path><path d="M330.78 288.32C330.78 288.32 331.438 290.477 331.78 292.356C332.051 293.848 332.429 296.348 331.879 297.453C331.33 298.559 329.275 299.233 326.121 299.143C324.075 299.081 320.858 300.393 318.65 301.562C316.37 302.766 311.666 303.162 309.287 302.829C306.485 302.434 303.61 300.744 303.187 299.575C302.754 298.406 303.385 297.211 310.071 294.55C310.134 294.523 319.344 291.763 322.633 288.311L330.78 288.32Z" fill="#263238"></path><path d="M330.843 285.659C330.843 285.659 330.789 287.484 330.78 288.527C330.762 289.569 329.491 291.098 326.301 290.909C324.057 290.774 322.498 290.145 322.634 288.293L322.697 285.632L330.843 285.659Z" fill="#FFA8A7"></path><path d="M353.462 240.105C352.515 232.041 350.839 227.223 350.839 227.223C350.839 227.223 351.966 216.183 352.632 205.71C353.344 194.391 354.002 188.566 351.776 172.222C351.776 172.222 317.001 169.102 316.055 182.183C315.108 195.263 316.451 228.634 316.758 234.397C317.064 240.159 317.938 245.265 318.92 254.615C319.885 263.839 322.696 285.64 322.696 285.64C326.832 287.986 330.852 285.657 330.852 285.657C330.852 285.657 334.024 259.542 333.897 252.898C333.753 244.789 331.699 238.352 331.699 238.352C331.699 238.352 332.636 227.573 333.465 218.197C334.294 208.82 335.042 204.325 335.276 200.244L336.069 199.875C336.069 199.875 336.511 216.093 336.808 221.856C337.115 227.618 337.908 233.156 339.331 243.872C340.566 253.168 344.432 272.874 344.432 272.874C348.568 275.229 351.119 272.73 351.119 272.73C351.119 272.73 354.408 248.169 353.462 240.105Z" fill="#37474F"></path><path d="M335.268 200.244C335.268 200.244 344.253 196.073 348.794 192.234C348.794 192.234 344.532 197.943 339.053 200.397C339.053 200.397 336.674 220.481 336.692 220.076L336.025 200.226L335.268 200.244Z" fill="#263238"></path><path d="M329.041 125.609L330.392 137.584L341.729 137.018L340.476 123.038L329.041 125.609Z" fill="#FFB9BF"></path><path d="M346.009 130.195C350.226 129.997 352.371 130.636 354.272 134.268C356.165 137.9 356.913 148.751 357.571 154.351C358.228 159.943 358.4 163.899 356.084 164.474C353.777 165.049 344.783 165.301 344.783 165.301L346.009 130.195Z" fill="#DDDDDD"></path><path d="M353.128 136.398C352.515 133.045 348.099 129.521 343.963 130.195C342.999 130.348 342.071 130.51 341.151 130.671C340.656 132.685 335.123 133.944 329.833 132.703C328.238 133.117 322.993 134.097 321.669 134.537C317.866 135.796 316.298 139.527 315.712 151.897C315.712 151.897 316.018 179.901 315.865 185.474C325.246 189.421 335.096 189.529 340.566 188.468C351.947 186.257 353.425 181.591 353.425 181.591L351.731 168.78C351.731 168.789 354.516 143.986 353.128 136.398Z" fill="#E6E6E6"></path><path d="M329.482 129.557L329.563 130.312C329.563 130.312 332.843 131.13 336.529 130.312C340.215 129.494 340.954 128.46 340.954 128.46L340.873 127.606C340.873 127.606 341.792 127.264 342.269 128.675C342.747 130.087 342.801 130.393 342.801 130.393C342.801 130.393 343.225 132.964 338.89 134.276C332.654 136.164 328.103 133.099 328.103 133.099L326.409 133.458C326.409 133.458 327.878 130.078 328.32 129.395C328.761 128.711 329.383 128.81 329.383 128.81L329.482 129.557Z" fill="#37474F"></path><path d="M294.869 116.709L272.385 128.423L283.559 158.89L304.538 147.167L294.869 116.709Z" fill="#455A64"></path><path d="M293.841 119.693L274.971 129.519L284.866 155.716L302.465 145.881L293.841 119.693Z" fill="#F5F5F5"></path><path opacity="0.15" d="M289.858 122.525C289.858 122.525 289.696 122.112 289.489 121.59C289.291 121.078 287.714 121.383 285.984 122.273L282.658 123.982C280.919 124.872 279.684 126.013 279.883 126.535L280.252 127.47L289.858 122.525Z" fill="black"></path><path d="M289.489 118.794C289.363 118.471 288.678 118.525 287.966 118.911L286.668 119.613C286.668 119.613 285.866 117.599 282.874 118.992C279.883 120.386 280.568 122.723 280.568 122.723C280.568 122.723 279.946 123.065 279.189 123.478C278.423 123.901 277.882 124.503 277.972 124.827L278.143 125.42L289.723 119.388C289.723 119.397 289.615 119.118 289.489 118.794Z" fill="url(#paint0_linear_2191_6035)"></path><path d="M288.245 120.143C287.164 120.674 286.74 120.925 287.056 121.717C287.407 122.625 287.741 123.272 287.741 123.272L282.622 125.942C282.622 125.942 282.199 124.791 282.009 124.342C281.82 123.901 281.451 123.685 280.631 124.108L280.324 123.784L288.408 119.676L288.245 120.143Z" fill="#27DEBF"></path><path opacity="0.3" d="M288.245 120.143C287.164 120.674 286.74 120.925 287.056 121.717C287.407 122.625 287.741 123.272 287.741 123.272L282.622 125.942C282.622 125.942 282.199 124.791 282.009 124.342C281.82 123.901 281.451 123.685 280.631 124.108L280.324 123.784L288.408 119.676L288.245 120.143Z" fill="black"></path><path d="M290.075 122.57C290.075 122.57 289.913 122.157 289.706 121.635C289.508 121.123 287.931 121.428 286.2 122.318L282.875 124.026C281.136 124.917 279.901 126.058 280.1 126.58L280.469 127.515L290.075 122.57Z" fill="url(#paint1_linear_2191_6035)"></path><path d="M321.669 134.546C316.478 134.995 314.27 135.939 310.368 142.952C306.142 150.557 298.014 164.33 296.977 166.065C295.544 168.483 295.274 172.16 296.509 174.381C297.662 176.457 301.33 177.401 305.493 172.717C310.441 167.144 319.641 153.533 319.641 153.533C319.641 153.533 327.463 143.248 321.669 134.546Z" fill="#FFA8A7"></path><path d="M298.671 175.971C294.688 175.486 285.397 162.909 282.757 158.8C279.864 154.305 277.17 152.139 274.71 150.323C270.501 147.221 271.114 142.447 272.953 138.078C273.592 136.568 275.746 137.548 275.746 137.548L276.503 139.625L277.819 143.221C278.711 144.048 279.216 144.317 279.279 144.066C279.387 143.598 278.621 141.674 278.639 139.661C278.666 137.242 280.36 138.833 280.874 139.679C281.378 140.524 281.973 141.908 282.667 143.679C283.514 145.846 283.163 148.039 284.199 149.523C285.235 150.997 299.095 164.248 299.095 164.248L298.671 175.971Z" fill="#F4B7BC"></path><path d="M322.669 134.266C319.524 134.186 315.748 134.689 312.819 138.483C309.89 142.277 298.175 162.909 298.175 162.909L291.597 157.029C291.597 157.029 287.461 159.411 286.542 164.158C286.542 164.158 289.714 169.175 292.498 172.222C295.274 175.261 298.374 177.373 300.915 176.438C303.456 175.504 306.051 173.499 311.521 165.893C316.991 158.297 322.966 149.325 322.966 149.325C322.966 149.325 326.742 140.568 322.669 134.266Z" fill="#DDDDDD"></path><path d="M321.047 110.947C321.047 110.947 318.217 115.235 318.542 115.658C318.866 116.081 320.948 116.458 320.948 116.458L321.047 110.947Z" fill="#F28F8F"></path><path d="M322.372 113.698C320.516 113.698 319.002 112.188 319.002 110.336C319.002 108.484 320.516 106.974 322.372 106.974C324.229 106.974 325.743 108.484 325.743 110.336C325.752 112.188 324.238 113.698 322.372 113.698ZM322.372 107.711C320.921 107.711 319.75 108.888 319.75 110.327C319.75 111.774 320.93 112.943 322.372 112.943C323.823 112.943 324.995 111.765 324.995 110.327C324.995 108.888 323.823 107.711 322.372 107.711Z" fill="#263238"></path><path d="M328.914 99.0886C323.183 100.293 321.534 102.81 320.993 111.881C320.425 121.366 321.398 124.35 322.651 125.627C323.498 126.49 328.184 126.643 330.545 125.996C333.501 125.178 340.188 122.813 343.324 118.048C347.009 112.439 347.973 104.824 344.035 101.705C338.475 97.3086 331.239 98.5941 328.914 99.0886Z" fill="#F4B7BC"></path><path d="M329.112 126.266L328.851 124.521C328.851 124.521 326.094 126.104 322.976 125.852C324.066 126.382 326.914 126.535 329.112 126.266Z" fill="#F28F8F"></path><path d="M319.317 109.625L329.5 110.947L329.095 111.657L319.317 110.389V109.625Z" fill="#263238"></path><path d="M320.011 102.757C320.443 102.82 320.885 102.793 321.308 102.676C320.93 103.485 321.29 104.519 322.002 105.058C322.723 105.598 323.715 105.67 324.571 105.4C324.264 105.93 324.156 106.569 324.291 107.171C324.562 108.411 325.967 109.49 327.256 109.311C327.319 110.641 327.337 111.936 328.752 112.547C328.752 112.547 329.662 109.041 332.618 109.481C335.601 109.922 336.006 113.716 334.123 116.017C332.257 118.309 330.518 117.446 330.491 117.437C330.662 117.527 330.725 118.642 330.789 118.858C330.978 119.514 331.23 120.17 331.555 120.773C332.194 122.004 333.114 123.083 334.231 123.91C335.781 125.052 337.673 125.87 339.611 125.403C341.287 124.998 342.819 123.847 343.531 122.256C343.711 121.861 343.855 121.42 344.171 121.123C344.558 120.755 345.126 120.665 345.631 120.494C346.802 120.098 347.775 119.173 348.235 118.031C348.694 116.889 348.622 115.55 348.055 114.453C349.46 114.093 350.614 112.906 350.929 111.495C351.236 110.084 350.686 108.519 349.56 107.602C351.236 106.578 352.11 104.393 351.587 102.496C351.146 100.869 349.785 99.7092 348.199 99.2597C347.045 98.9271 347.487 98.7473 347.126 97.6145C346.883 96.8414 346.424 96.1402 345.793 95.6277C344.711 94.7467 343.17 94.459 341.846 94.8996C341.593 93.4252 340.413 92.2295 338.989 91.834C338.34 91.6542 337.628 91.5822 336.97 91.7531C336.493 91.8789 335.52 92.3194 335.339 92.7689C334.736 92.1756 334.537 91.3935 333.807 90.863C333.059 90.3147 332.14 90 331.203 90C329.662 90.009 328.157 90.89 327.409 92.2295C326.382 91.1597 324.895 90.4855 323.408 90.5484C321.921 90.6113 320.452 91.4564 319.758 92.7689C319.065 94.0815 319.227 95.8345 320.245 96.9223C319.326 97.3089 318.479 97.9472 318.028 98.8372C317.542 99.7991 317.605 101.004 318.344 101.822C318.695 102.217 318.929 102.478 319.461 102.649C319.641 102.685 319.831 102.73 320.011 102.757Z" fill="#263238"></path><path d="M328.699 114.535L328.807 110.57C327.708 110.543 326.797 111.406 326.761 112.503C326.734 113.591 327.599 114.508 328.699 114.535Z" fill="#263238"></path><defs><linearGradient id="paint0_linear_2191_6035" x1="283.843" y1="120.695" x2="283.844" y2="123.514" gradientUnits="userSpaceOnUse"><stop stop-color="#00B77E"></stop><stop offset="1" stop-color="#05C49D"></stop></linearGradient><linearGradient id="paint1_linear_2191_6035" x1="285.077" y1="123.33" x2="285.078" y2="125.826" gradientUnits="userSpaceOnUse"><stop stop-color="#00B77E"></stop><stop offset="1" stop-color="#05C49D"></stop></linearGradient></defs></svg>