<svg xmlns="http://www.w3.org/2000/svg" width="408" height="262" viewBox="0 0 408 262" fill="none"><path d="M401.006 249.743C339.681 217.618 47.8876 231.641 28.9565 241.174C10.0254 250.706 32.6435 257.123 81.3663 253.594C130.089 250.064 192.779 253.986 246.625 255.875C300.47 257.765 440.761 270.57 401.006 249.743Z" fill="#D9E4E1"></path><path d="M301.094 67.0906C301.321 65.0405 301.44 62.9562 301.44 60.8458C301.44 59.7319 301.403 58.6261 301.34 57.5285L291.17 54.19C290.544 49.8387 289.314 45.688 287.571 41.8244L294.314 33.404C292.755 30.6184 290.966 27.9828 288.972 25.525L278.801 28.8928C275.836 25.8202 272.449 23.17 268.732 21.0383L269.311 10.1944C266.473 8.8831 263.504 7.80996 260.433 7.00102L254.153 15.7966C251.705 15.379 249.192 15.1572 246.627 15.1572C244.878 15.1572 243.154 15.2616 241.457 15.459L235.642 6.33887C232.528 6.98145 229.508 7.89313 226.609 9.04782L226.622 19.9081C222.792 21.8391 219.272 24.3051 216.158 27.213L206.179 23.3053C204.06 25.6571 202.134 28.1915 200.434 30.8875L206.731 39.6602C204.781 43.4325 203.335 47.513 202.486 51.8138L192.159 54.6026C191.932 56.6527 191.813 58.737 191.813 60.8474C191.813 61.9614 191.849 63.0671 191.913 64.1647L202.083 67.5032C202.708 71.8545 203.937 76.0052 205.684 79.8689L198.941 88.2893C200.501 91.0749 202.289 93.7105 204.283 96.1683L214.454 92.8004C217.419 95.8731 220.805 98.5249 224.523 100.655L223.944 111.499C226.782 112.81 229.751 113.883 232.822 114.692L239.102 105.897C241.55 106.314 244.063 106.536 246.628 106.536C248.377 106.536 250.101 106.432 251.798 106.234L257.613 115.354C260.729 114.712 263.747 113.8 266.646 112.645L266.633 101.785C270.463 99.8541 273.983 97.3882 277.097 94.4802L287.076 98.3879C289.195 96.0362 291.121 93.5017 292.821 90.8058L286.524 82.0331C288.474 78.2608 289.92 74.1802 290.769 69.8795L301.094 67.0906ZM246.627 82.6626C234.753 82.6626 225.127 72.895 225.127 60.8458C225.127 48.7966 234.752 39.029 246.627 39.029C258.501 39.029 268.126 48.7966 268.126 60.8458C268.126 72.895 258.5 82.6626 246.627 82.6626Z" fill="#00B77E" fill-opacity="0.45"></path><path d="M276.32 86.2377C276.138 86.2377 275.957 86.1757 275.807 86.0485C275.466 85.7598 275.42 85.2461 275.703 84.9003C281.106 78.3065 284.082 69.9448 284.082 61.3547C284.082 57.2415 283.418 53.2018 282.112 49.3495C281.967 48.9239 282.19 48.4591 282.61 48.3123C283.029 48.1655 283.487 48.3922 283.632 48.8178C284.998 52.8413 285.691 57.0605 285.691 61.3547C285.691 70.3248 282.583 79.0584 276.94 85.9441C276.778 86.1365 276.55 86.2377 276.32 86.2377Z" fill="white"></path><path d="M273.207 34.7419C273.009 34.7419 272.811 34.6685 272.655 34.5201C269.025 31.0512 264.819 28.4205 260.155 26.7048C259.738 26.5515 259.522 26.0834 259.673 25.6593C259.824 25.2353 260.286 25.0168 260.703 25.1701C265.575 26.9641 269.967 29.7089 273.758 33.3312C274.081 33.6394 274.097 34.1564 273.792 34.4842C273.634 34.6555 273.42 34.7419 273.207 34.7419Z" fill="white"></path><path d="M238.657 25.6492C238.297 25.6492 237.97 25.4029 237.879 25.0327C237.77 24.5956 238.031 24.152 238.461 24.0427C241.487 23.2681 244.619 22.875 247.769 22.875C248.212 22.875 248.572 23.2403 248.572 23.6905C248.572 24.1406 248.212 24.5059 247.769 24.5059C244.751 24.5059 241.752 24.8827 238.854 25.6247C238.788 25.641 238.723 25.6492 238.657 25.6492Z" fill="white"></path><path d="M373.636 81.8202C373.792 80.3997 373.875 78.9563 373.875 77.495C373.875 76.7236 373.85 75.9571 373.806 75.1971L366.762 72.8844C366.328 69.8705 365.477 66.9952 364.268 64.3205L368.938 58.4883C367.858 56.5589 366.619 54.7339 365.239 53.0312L358.195 55.3635C356.141 53.2351 353.795 51.3987 351.222 49.9243L351.622 42.414C349.656 41.5055 347.601 40.7618 345.473 40.2024L341.123 46.2939C339.427 46.0036 337.687 45.8519 335.909 45.8519C334.698 45.8519 333.504 45.9237 332.329 46.0607L328.301 39.7441C326.143 40.1894 324.052 40.8205 322.045 41.6213L322.055 49.1431C319.403 50.4805 316.965 52.1881 314.807 54.2022L307.896 51.4965C306.427 53.1242 305.095 54.8807 303.915 56.7481L308.277 62.8249C306.927 65.4376 305.926 68.264 305.336 71.2421L298.183 73.1731C298.027 74.5936 297.943 76.037 297.943 77.4983C297.943 78.2697 297.969 79.0362 298.012 79.7963L305.056 82.1089C305.49 85.1228 306.342 87.9981 307.551 90.6729L302.88 96.505C303.96 98.4344 305.199 100.259 306.58 101.962L313.624 99.6299C315.678 101.758 318.024 103.595 320.597 105.069L320.197 112.579C322.162 113.488 324.218 114.231 326.346 114.791L330.696 108.699C332.391 108.99 334.132 109.141 335.909 109.141C337.121 109.141 338.315 109.07 339.49 108.933L343.517 115.249C345.676 114.804 347.766 114.173 349.774 113.374L349.764 105.852C352.416 104.514 354.854 102.807 357.012 100.793L363.923 103.498C365.391 101.871 366.724 100.114 367.903 98.2468L363.542 92.1717C364.892 89.5589 365.893 86.7325 366.483 83.7545L373.636 81.8202ZM335.909 92.6055C327.686 92.6055 321.018 85.8404 321.018 77.4934C321.018 69.148 327.684 62.3813 335.909 62.3813C344.134 62.3813 350.801 69.1464 350.801 77.4934C350.801 85.8388 344.134 92.6055 335.909 92.6055Z" fill="#8CDEC5"></path><path d="M356.221 94.977C356.039 94.977 355.858 94.915 355.708 94.7878C355.368 94.4991 355.321 93.9854 355.604 93.6396C359.31 89.1171 361.351 83.3828 361.351 77.4903C361.351 74.6688 360.896 71.8979 359.999 69.2558C359.855 68.8301 360.078 68.3653 360.498 68.2185C360.917 68.0717 361.375 68.2984 361.52 68.7241C362.474 71.5374 362.96 74.4861 362.96 77.4887C362.96 83.7612 360.787 89.8657 356.841 94.6802C356.681 94.8775 356.451 94.977 356.221 94.977Z" fill="white"></path><path d="M354.063 59.3114C353.865 59.3114 353.667 59.238 353.511 59.0896C351.02 56.71 348.137 54.9062 344.938 53.7287C344.52 53.5754 344.304 53.1073 344.455 52.6833C344.607 52.2593 345.068 52.0423 345.486 52.1957C348.891 53.4498 351.962 55.3694 354.612 57.9022C354.935 58.2105 354.951 58.7275 354.646 59.0553C354.49 59.2249 354.276 59.3114 354.063 59.3114Z" fill="white"></path><path d="M330.135 53.0134C329.775 53.0134 329.448 52.7671 329.357 52.3969C329.248 51.9598 329.51 51.5162 329.939 51.4069C332.055 50.8655 334.244 50.5898 336.447 50.5898C336.891 50.5898 337.251 50.9552 337.251 51.4053C337.251 51.8554 336.891 52.2208 336.447 52.2208C334.377 52.2208 332.32 52.4784 330.332 52.9873C330.266 53.0052 330.201 53.0134 330.135 53.0134Z" fill="white"></path><path d="M119.246 242.028C185.104 242.028 238.493 187.848 238.493 121.014C238.493 54.1799 185.104 0 119.246 0C53.3884 0 0 54.1799 0 121.014C0 187.848 53.3884 242.028 119.246 242.028Z" fill="url(#paint0_linear_4757_3676)"></path><path d="M119.089 220.032C172.285 220.032 215.41 176.269 215.41 122.283C215.41 68.2979 172.285 24.5342 119.089 24.5342C65.892 24.5342 22.7676 68.2979 22.7676 122.283C22.7676 176.269 65.892 220.032 119.089 220.032Z" fill="url(#paint1_linear_4757_3676)"></path><path d="M119.245 212.265C169.769 212.265 210.726 170.701 210.726 119.429C210.726 68.1562 169.769 26.5918 119.245 26.5918C68.7219 26.5918 27.7646 68.1562 27.7646 119.429C27.7646 170.701 68.7219 212.265 119.245 212.265Z" fill="white"></path><path d="M119.248 122.689C118.134 122.689 117.051 122.101 116.456 121.05C115.573 119.488 116.105 117.495 117.644 116.598L152.295 96.4169C153.834 95.5199 155.798 96.0598 156.682 97.6222C157.566 99.1846 157.034 101.178 155.494 102.075L120.844 122.256C120.339 122.551 119.79 122.689 119.248 122.689Z" fill="#3E6BAB"></path><path d="M119.248 121.874C118.409 121.874 117.594 121.429 117.151 120.636L90.5614 73.1862C89.9041 72.0119 90.3075 70.518 91.4646 69.851C92.6217 69.1823 94.0938 69.5933 94.7511 70.7676L121.34 118.219C121.998 119.393 121.594 120.887 120.437 121.554C120.061 121.771 119.651 121.874 119.248 121.874Z" fill="#F37168"></path><path d="M119.245 123.918C121.688 123.918 123.668 121.909 123.668 119.43C123.668 116.951 121.688 114.941 119.245 114.941C116.802 114.941 114.822 116.951 114.822 119.43C114.822 121.909 116.802 123.918 119.245 123.918Z" fill="#212D51"></path><path d="M114.54 56.5492H110.369V42.5184H106.347V39.529L114.54 38.2471V56.5492Z" fill="#212D51"></path><path d="M132.956 56.5498H120.344V53.787L126.136 47.6074C126.87 46.7528 127.41 45.9912 127.757 45.3209C128.105 44.6506 128.278 44.0683 128.278 43.5742C128.278 42.8712 128.103 42.3102 127.753 41.891C127.402 41.4719 126.875 41.2631 126.174 41.2631C125.548 41.2631 125.054 41.5339 124.696 42.0737C124.337 42.6135 124.157 43.3034 124.157 44.1401H120.072L120.048 44.0651C120.006 42.3738 120.551 40.9402 121.683 39.7627C122.812 38.5868 124.31 37.998 126.176 37.998C128.156 37.998 129.702 38.4922 130.811 39.4806C131.92 40.4689 132.476 41.8209 132.476 43.5383C132.476 44.6946 132.18 45.7156 131.59 46.6028C131 47.49 129.912 48.8094 128.329 50.5594L125.892 53.2096L125.929 53.2847H132.96V56.5498H132.956Z" fill="#212D51"></path><path d="M120.418 178.793C121.129 178.793 121.759 178.853 122.312 178.976C122.864 179.098 123.475 179.292 124.144 179.56L123.451 182.65C122.874 182.474 122.368 182.342 121.936 182.254C121.502 182.166 121.005 182.122 120.444 182.122C119.454 182.122 118.66 182.476 118.061 183.183C117.463 183.891 117.175 184.924 117.201 186.281L117.238 186.342C117.601 185.923 118.083 185.597 118.686 185.362C119.289 185.127 119.973 185.01 120.741 185.01C122.35 185.01 123.602 185.599 124.499 186.775C125.394 187.951 125.842 189.456 125.842 191.291C125.842 193.099 125.251 194.605 124.067 195.807C122.882 197.009 121.37 197.609 119.53 197.609C117.558 197.609 115.965 196.952 114.752 195.637C113.538 194.323 112.933 192.522 112.933 190.236V186.555C112.933 184.142 113.632 182.246 115.03 180.864C116.426 179.483 118.223 178.793 120.418 178.793ZM119.589 188.277C119.012 188.277 118.514 188.357 118.098 188.515C117.682 188.673 117.354 188.895 117.114 189.179V190.255C117.114 191.573 117.326 192.584 117.752 193.289C118.177 193.993 118.77 194.345 119.528 194.345C120.155 194.345 120.668 194.045 121.063 193.445C121.458 192.845 121.658 192.132 121.658 191.305C121.658 190.379 121.466 189.643 121.082 189.097C120.698 188.549 120.2 188.277 119.589 188.277Z" fill="#212D51"></path><path d="M45.7432 123.944C46.5772 123.944 47.2651 123.64 47.8099 123.034C48.3547 122.427 48.6263 121.587 48.6263 120.516V119.711C48.2213 120.214 47.752 120.592 47.2153 120.848C46.6785 121.104 46.1096 121.232 45.5069 121.232C43.8645 121.232 42.5804 120.669 41.6515 119.542C40.7226 118.415 40.2598 116.877 40.2598 114.926C40.2598 113.11 40.8464 111.567 42.0179 110.298C43.1895 109.029 44.7002 108.395 46.5483 108.395C48.3627 108.395 49.8589 109.06 51.0353 110.392C52.2117 111.723 52.7999 113.553 52.7999 115.882V120.228C52.7999 122.339 52.1314 124.03 50.7943 125.304C49.4572 126.576 47.7745 127.214 45.7448 127.214C45.126 127.214 44.4848 127.145 43.8195 127.007C43.1557 126.868 42.5209 126.674 41.9199 126.423L42.3538 123.396C42.9308 123.588 43.4788 123.728 43.9946 123.817C44.5073 123.9 45.0907 123.944 45.7432 123.944ZM46.4246 118.178C46.8955 118.178 47.3181 118.095 47.6926 117.927C48.0686 117.759 48.3788 117.529 48.6263 117.236V115.352C48.6263 114.155 48.4302 113.24 48.0381 112.607C47.646 111.974 47.1446 111.66 46.5339 111.66C45.891 111.66 45.38 111.991 45.0055 112.651C44.6294 113.313 44.443 114.07 44.443 114.925C44.443 115.929 44.6086 116.724 44.938 117.304C45.2691 117.886 45.7641 118.178 46.4246 118.178Z" fill="#212D51"></path><path d="M189.465 116.031H191.434C192.184 116.031 192.763 115.825 193.166 115.416C193.571 115.005 193.772 114.436 193.772 113.708C193.772 113.131 193.591 112.645 193.227 112.252C192.864 111.859 192.335 111.662 191.643 111.662C191.098 111.662 190.619 111.821 190.208 112.139C189.795 112.457 189.589 112.868 189.589 113.371H185.529L185.505 113.296C185.455 111.839 186.021 110.659 187.201 109.753C188.38 108.85 189.812 108.396 191.495 108.396C193.451 108.396 195.014 108.852 196.186 109.76C197.358 110.668 197.944 111.957 197.944 113.622C197.944 114.45 197.69 115.215 197.182 115.915C196.675 116.615 195.996 117.161 195.146 117.554C196.112 117.915 196.867 118.461 197.411 119.193C197.955 119.925 198.227 120.803 198.227 121.824C198.227 123.499 197.595 124.815 196.334 125.774C195.071 126.733 193.459 127.212 191.495 127.212C189.803 127.212 188.324 126.762 187.058 125.862C185.791 124.962 185.179 123.657 185.219 121.949L185.243 121.874H189.328C189.328 122.46 189.553 122.952 190.003 123.35C190.453 123.748 191 123.947 191.644 123.947C192.379 123.947 192.964 123.739 193.402 123.319C193.84 122.9 194.058 122.373 194.058 121.737C194.058 120.85 193.83 120.203 193.372 119.797C192.914 119.391 192.268 119.187 191.435 119.187H189.467V116.031H189.465Z" fill="#212D51"></path><path d="M324.034 145.569C316.602 145.569 310.554 139.432 310.554 131.889C310.554 124.346 316.602 118.209 324.034 118.209C331.467 118.209 337.515 124.346 337.515 131.889C337.515 139.432 331.467 145.569 324.034 145.569ZM324.034 121.471C318.374 121.471 313.768 126.145 313.768 131.889C313.768 137.633 318.374 142.307 324.034 142.307C329.695 142.307 334.301 137.633 334.301 131.889C334.301 126.145 329.696 121.471 324.034 121.471Z" fill="#9BD6E8"></path><path d="M307.129 145.569C299.696 145.569 293.648 139.432 293.648 131.889C293.648 124.346 299.696 118.209 307.129 118.209C314.562 118.209 320.609 124.346 320.609 131.889C320.609 139.432 314.562 145.569 307.129 145.569ZM307.129 121.471C301.469 121.471 296.863 126.145 296.863 131.889C296.863 137.633 301.469 142.307 307.129 142.307C312.789 142.307 317.395 137.633 317.395 131.889C317.395 126.145 312.789 121.471 307.129 121.471Z" fill="#9BD6E8"></path><path d="M288.79 145.569C281.357 145.569 275.31 139.432 275.31 131.889C275.31 124.346 281.357 118.209 288.79 118.209C296.223 118.209 302.27 124.346 302.27 131.889C302.27 139.432 296.223 145.569 288.79 145.569ZM288.79 121.471C283.13 121.471 278.524 126.145 278.524 131.889C278.524 137.633 283.13 142.307 288.79 142.307C294.45 142.307 299.056 137.633 299.056 131.889C299.054 126.145 294.45 121.471 288.79 121.471Z" fill="#9BD6E8"></path><path d="M271.882 145.569C264.449 145.569 258.401 139.432 258.401 131.889C258.401 124.346 264.449 118.209 271.882 118.209C279.314 118.209 285.362 124.346 285.362 131.889C285.362 139.432 279.314 145.569 271.882 145.569ZM271.882 121.471C266.221 121.471 261.616 126.145 261.616 131.889C261.616 137.633 266.221 142.307 271.882 142.307C277.542 142.307 282.148 137.633 282.148 131.889C282.148 126.145 277.542 121.471 271.882 121.471Z" fill="#9BD6E8"></path><path d="M254.314 145.569C246.881 145.569 240.833 139.432 240.833 131.889C240.833 124.346 246.881 118.209 254.314 118.209C261.747 118.209 267.792 124.346 267.792 131.889C267.792 139.432 261.747 145.569 254.314 145.569ZM254.314 121.471C248.654 121.471 244.048 126.145 244.048 131.889C244.048 137.633 248.654 142.307 254.314 142.307C259.974 142.307 264.58 137.633 264.58 131.889C264.578 126.145 259.974 121.471 254.314 121.471Z" fill="#9BD6E8"></path><path d="M237.406 145.569C229.973 145.569 223.925 139.432 223.925 131.889C223.925 124.346 229.973 118.209 237.406 118.209C244.838 118.209 250.886 124.346 250.886 131.889C250.886 139.432 244.838 145.569 237.406 145.569ZM237.406 121.471C231.745 121.471 227.139 126.145 227.139 131.889C227.139 137.633 231.745 142.307 237.406 142.307C243.066 142.307 247.672 137.633 247.672 131.889C247.672 126.145 243.066 121.471 237.406 121.471Z" fill="#9BD6E8"></path><path d="M218.515 145.569C211.082 145.569 205.034 139.432 205.034 131.889C205.034 124.346 211.082 118.209 218.515 118.209C225.947 118.209 231.995 124.346 231.995 131.889C231.995 139.432 225.947 145.569 218.515 145.569ZM218.515 121.471C212.854 121.471 208.248 126.145 208.248 131.889C208.248 137.633 212.854 142.307 218.515 142.307C224.175 142.307 228.781 137.633 228.781 131.889C228.779 126.145 224.175 121.471 218.515 121.471Z" fill="#9BD6E8"></path><path d="M337.704 249.85H150.35C148.208 249.85 146.798 248.089 147.2 245.915L167.556 135.828C167.957 133.654 170.019 131.893 172.162 131.893H359.515C361.657 131.893 363.067 133.654 362.665 135.828L342.309 245.915C341.908 248.087 339.846 249.85 337.704 249.85Z" fill="#212D51"></path><path d="M341.208 249.85H153.855C151.712 249.85 150.303 248.089 150.705 245.915L171.06 135.828C171.462 133.654 173.524 131.893 175.666 131.893H363.019C365.162 131.893 366.571 133.654 366.169 135.828L345.814 245.915C345.412 248.087 343.35 249.85 341.208 249.85Z" fill="#307BC1"></path><path d="M379.011 249.85H191.656C189.514 249.85 187.471 248.089 187.093 245.915L167.966 135.828C167.588 133.654 169.018 131.893 171.161 131.893H358.514C360.656 131.893 362.699 133.654 363.077 135.828L382.204 245.915C382.583 248.087 381.153 249.85 379.011 249.85Z" fill="#212D51"></path><path d="M382.915 249.85H195.562C193.419 249.85 191.377 248.089 190.999 245.915L171.872 135.828C171.494 133.654 172.924 131.893 175.066 131.893H362.42C364.562 131.893 366.605 133.654 366.982 135.828L386.11 245.915C386.488 248.087 385.057 249.85 382.915 249.85Z" fill="#3E6BAB"></path><path d="M332.934 142.643C333.58 144.473 333.016 145.957 331.672 145.957C330.329 145.957 328.719 144.473 328.071 142.643C327.423 140.813 327.989 139.329 329.333 139.329C330.676 139.329 332.288 140.812 332.934 142.643Z" fill="#212D51"></path><path d="M315.779 142.643C316.425 144.473 315.861 145.957 314.518 145.957C313.174 145.957 311.564 144.473 310.916 142.643C310.269 140.813 310.834 139.329 312.178 139.329C313.521 139.329 315.133 140.812 315.779 142.643Z" fill="#212D51"></path><path d="M296.73 142.643C297.376 144.473 296.812 145.957 295.469 145.957C294.125 145.957 292.515 144.473 291.867 142.643C291.22 140.813 291.785 139.329 293.129 139.329C294.472 139.329 296.084 140.812 296.73 142.643Z" fill="#212D51"></path><path d="M279.573 142.643C280.219 144.473 279.655 145.957 278.311 145.957C276.968 145.957 275.357 144.473 274.71 142.643C274.062 140.813 274.628 139.329 275.971 139.329C277.315 139.329 278.927 140.812 279.573 142.643Z" fill="#212D51"></path><path d="M262.99 142.953C263.637 144.783 263.072 146.267 261.729 146.267C260.385 146.267 258.775 144.783 258.127 142.953C257.481 141.123 258.045 139.639 259.389 139.639C260.732 139.639 262.343 141.123 262.99 142.953Z" fill="#212D51"></path><path d="M246.727 142.953C247.373 144.783 246.809 146.267 245.465 146.267C244.122 146.267 242.511 144.783 241.864 142.953C241.218 141.123 241.782 139.639 243.125 139.639C244.469 139.639 246.079 141.123 246.727 142.953Z" fill="#212D51"></path><path d="M228.603 142.953C229.249 144.783 228.685 146.267 227.341 146.267C225.999 146.267 224.387 144.783 223.74 142.953C223.094 141.123 223.658 139.639 225.001 139.639C226.345 139.639 227.957 141.123 228.603 142.953Z" fill="#212D51"></path><path d="M329.705 144.11C329.136 144.11 328.583 143.801 328.292 143.258C327.868 142.467 328.155 141.477 328.935 141.047C332.244 139.218 334.301 135.71 334.301 131.889C334.301 126.145 329.695 121.471 324.035 121.471C323.148 121.471 322.428 120.74 322.428 119.84C322.428 118.94 323.148 118.209 324.035 118.209C331.468 118.209 337.515 124.346 337.515 131.889C337.515 136.904 334.817 141.512 330.473 143.911C330.227 144.046 329.963 144.11 329.705 144.11Z" fill="#9BD6E8"></path><path d="M312.727 144.148C312.154 144.148 311.599 143.835 311.31 143.287C310.891 142.493 311.186 141.505 311.967 141.079C315.315 139.259 317.394 135.738 317.394 131.889C317.394 126.316 313.102 121.744 307.62 121.482C306.733 121.439 306.048 120.676 306.09 119.776C306.132 118.876 306.887 118.184 307.771 118.223C314.969 118.567 320.609 124.569 320.609 131.887C320.609 136.941 317.88 141.565 313.486 143.953C313.243 144.086 312.983 144.148 312.727 144.148Z" fill="#9BD6E8"></path><path d="M293.84 144.428C293.237 144.428 292.659 144.082 292.386 143.492C292.008 142.676 292.352 141.704 293.155 141.321C296.739 139.608 299.055 135.906 299.055 131.889C299.055 126.31 294.758 121.738 289.271 121.482C288.384 121.442 287.699 120.678 287.739 119.778C287.78 118.878 288.527 118.178 289.419 118.224C296.625 118.56 302.269 124.563 302.269 131.889C302.269 137.164 299.23 142.024 294.525 144.271C294.303 144.377 294.07 144.428 293.84 144.428Z" fill="#9BD6E8"></path><path d="M276.591 144.586C275.969 144.586 275.377 144.218 275.115 143.603C274.764 142.776 275.138 141.815 275.953 141.458C279.715 139.806 282.146 136.052 282.146 131.891C282.146 126.312 277.847 121.74 272.361 121.484C271.474 121.444 270.789 120.68 270.829 119.78C270.869 118.88 271.623 118.18 272.509 118.226C279.715 118.562 285.361 124.563 285.361 131.891C285.361 137.353 282.169 142.282 277.229 144.451C277.021 144.542 276.805 144.586 276.591 144.586Z" fill="#9BD6E8"></path><path d="M259.674 144.276C259.087 144.276 258.522 143.95 258.239 143.383C257.837 142.579 258.154 141.598 258.946 141.191C262.42 139.405 264.579 135.841 264.579 131.891C264.579 126.341 260.305 121.771 254.849 121.487C253.962 121.442 253.281 120.675 253.327 119.775C253.372 118.875 254.131 118.186 255.015 118.231C262.181 118.604 267.795 124.604 267.795 131.893C267.795 137.079 264.961 141.757 260.399 144.102C260.166 144.219 259.918 144.276 259.674 144.276Z" fill="#9BD6E8"></path><path d="M243.326 143.969C242.77 143.969 242.23 143.675 241.933 143.152C241.49 142.37 241.755 141.374 242.523 140.924C245.7 139.066 247.672 135.605 247.672 131.89C247.672 126.482 243.677 122.023 238.378 121.517C237.494 121.433 236.845 120.638 236.929 119.741C237.011 118.844 237.795 118.184 238.679 118.27C242.005 118.587 245.086 120.144 247.351 122.654C249.631 125.182 250.886 128.46 250.886 131.89C250.886 136.768 248.296 141.314 244.127 143.75C243.874 143.899 243.598 143.969 243.326 143.969Z" fill="#9BD6E8"></path><path d="M225.019 143.602C224.495 143.602 223.983 143.343 223.674 142.867C223.187 142.113 223.394 141.102 224.135 140.608C227.043 138.672 228.778 135.413 228.778 131.891C228.778 126.668 224.936 122.226 219.841 121.559C218.96 121.443 218.34 120.626 218.453 119.732C218.567 118.838 219.372 118.209 220.253 118.323C226.946 119.199 231.992 125.031 231.992 131.889C231.992 136.514 229.715 140.792 225.9 143.333C225.628 143.516 225.323 143.602 225.019 143.602Z" fill="#9BD6E8"></path><path d="M376.808 246.235H200.415C198.549 246.235 196.77 244.7 196.44 242.807L181.061 154.29C180.731 152.397 181.978 150.862 183.844 150.862H360.237C362.103 150.862 363.882 152.397 364.211 154.29L379.591 242.807C379.921 244.7 378.674 246.235 376.808 246.235Z" fill="white"></path><path d="M372.832 240.465H202.387L202.363 240.33L187.819 156.626H358.264L358.288 156.761L372.832 240.465ZM202.657 240.139H372.45L357.996 156.954H188.203L202.657 240.139Z" fill="#9EC8FF"></path><path d="M369.74 223.437H199.621V223.763H369.74V223.437Z" fill="#9EC8FF"></path><path d="M366.837 206.734H196.718V207.061H366.837V206.734Z" fill="#9EC8FF"></path><path d="M363.933 190.032H193.814V190.358H363.933V190.032Z" fill="#9EC8FF"></path><path d="M361.032 173.331H190.913V173.657H361.032V173.331Z" fill="#9EC8FF"></path><path d="M348.473 240.26L333.967 156.749L333.651 156.806L348.157 240.316L348.473 240.26Z" fill="#9EC8FF"></path><path d="M324.17 240.259L309.664 156.748L309.348 156.805L323.854 240.315L324.17 240.259Z" fill="#9EC8FF"></path><path d="M299.871 240.26L285.365 156.749L285.048 156.806L299.554 240.316L299.871 240.26Z" fill="#9EC8FF"></path><path d="M275.567 240.26L261.061 156.749L260.744 156.806L275.25 240.316L275.567 240.26Z" fill="#9EC8FF"></path><path d="M251.266 240.26L236.76 156.749L236.444 156.806L250.95 240.316L251.266 240.26Z" fill="#9EC8FF"></path><path d="M226.965 240.26L212.459 156.749L212.142 156.806L226.649 240.316L226.965 240.26Z" fill="#9EC8FF"></path><path d="M353.597 167.337H347.878C345.695 167.337 343.597 165.525 343.211 163.312C342.825 161.099 344.296 159.287 346.478 159.287H352.198C354.38 159.287 356.479 161.099 356.865 163.312C357.25 165.527 355.78 167.337 353.597 167.337Z" fill="#F39892"></path><path d="M361.531 201.041H351.66C350.62 201.041 349.619 200.177 349.436 199.122L348.704 194.909C348.521 193.854 349.222 192.989 350.262 192.989H360.132C361.172 192.989 362.173 193.854 362.357 194.909L363.088 199.122C363.271 200.178 362.57 201.041 361.531 201.041Z" fill="#F39892"></path><path d="M236.268 187.748H222.844C221.36 187.748 219.932 186.515 219.67 185.01L218.556 178.596C218.294 177.09 219.294 175.857 220.778 175.857H234.203C235.686 175.857 237.115 177.09 237.377 178.596L238.49 185.01C238.751 186.515 237.751 187.748 236.268 187.748Z" fill="#9EC8FF"></path><path d="M234.085 186.073H224.442C223.377 186.073 222.35 185.188 222.162 184.106L221.361 179.499C221.173 178.418 221.892 177.532 222.957 177.532H232.6C233.665 177.532 234.692 178.418 234.88 179.499L235.681 184.106C235.87 185.188 235.15 186.073 234.085 186.073Z" fill="white"></path><path d="M342.376 237.742H328.952C327.469 237.742 326.04 236.509 325.778 235.003L324.664 228.589C324.402 227.084 325.402 225.851 326.887 225.851H340.311C341.794 225.851 343.223 227.082 343.485 228.589L344.599 235.003C344.859 236.51 343.859 237.742 342.376 237.742Z" fill="#9EC8FF"></path><path d="M340.193 236.067H330.551C329.485 236.067 328.458 235.181 328.27 234.1L327.47 229.492C327.282 228.411 328 227.525 329.066 227.525H338.708C339.774 227.525 340.801 228.411 340.989 229.492L341.789 234.1C341.979 235.183 341.259 236.067 340.193 236.067Z" fill="white"></path><path d="M285.106 179.322H274.589C273.879 179.322 273.196 178.731 273.07 178.01C272.945 177.29 273.424 176.699 274.134 176.699H284.651C285.361 176.699 286.044 177.29 286.17 178.01C286.295 178.733 285.816 179.322 285.106 179.322Z" fill="#9EC8FF"></path><path d="M285.821 183.442H275.304C274.594 183.442 273.911 182.851 273.786 182.131C273.66 181.41 274.139 180.819 274.849 180.819H285.366C286.077 180.819 286.76 181.41 286.885 182.131C287.01 182.851 286.531 183.442 285.821 183.442Z" fill="#9EC8FF"></path><path d="M270.494 229.035H259.977C259.267 229.035 258.584 228.444 258.458 227.723C258.333 227.002 258.812 226.412 259.522 226.412H270.039C270.749 226.412 271.432 227.002 271.558 227.723C271.683 228.446 271.204 229.035 270.494 229.035Z" fill="#9EC8FF"></path><path d="M271.21 233.154H260.693C259.983 233.154 259.3 232.563 259.175 231.843C259.049 231.122 259.528 230.531 260.239 230.531H270.755C271.466 230.531 272.149 231.122 272.274 231.843C272.4 232.563 271.921 233.154 271.21 233.154Z" fill="#9EC8FF"></path><path d="M210.553 197.861H200.036C199.326 197.861 198.643 197.27 198.517 196.55C198.392 195.829 198.871 195.238 199.581 195.238H210.098C210.809 195.238 211.492 195.829 211.617 196.55C211.742 197.27 211.263 197.861 210.553 197.861Z" fill="#9EC8FF"></path><path d="M211.271 201.979H200.754C200.044 201.979 199.361 201.389 199.236 200.668C199.11 199.947 199.589 199.356 200.3 199.356H210.816C211.527 199.356 212.21 199.947 212.335 200.668C212.461 201.39 211.982 201.979 211.271 201.979Z" fill="#9EC8FF"></path><path d="M243.803 221.732H228.224C226.875 221.732 225.578 220.613 225.34 219.245L224.106 212.145C223.868 210.777 224.776 209.658 226.125 209.658H241.704C243.052 209.658 244.349 210.777 244.587 212.145L245.821 219.245C246.059 220.611 245.151 221.732 243.803 221.732Z" fill="#00B77E"></path><path d="M234.35 218.826C234.268 218.826 234.189 218.793 234.128 218.736L230.629 215.376C230.501 215.253 230.494 215.045 230.617 214.915C230.739 214.784 230.943 214.778 231.071 214.902L234.322 218.025L239.255 212.105C239.369 211.968 239.573 211.95 239.708 212.066C239.843 212.181 239.861 212.387 239.746 212.526L234.596 218.708C234.538 218.777 234.456 218.819 234.367 218.824C234.361 218.826 234.356 218.826 234.35 218.826Z" fill="white"></path><path d="M307.757 170.895H292.178C290.83 170.895 289.533 169.776 289.295 168.408L288.061 161.308C287.823 159.94 288.731 158.821 290.079 158.821H305.658C307.007 158.821 308.304 159.94 308.542 161.308L309.776 168.408C310.014 169.775 309.106 170.895 307.757 170.895Z" fill="#00B77E"></path><path d="M298.303 167.987C298.221 167.987 298.142 167.954 298.081 167.897L294.583 164.538C294.454 164.414 294.448 164.207 294.57 164.076C294.692 163.946 294.896 163.939 295.024 164.063L298.276 167.186L303.208 161.266C303.322 161.129 303.526 161.111 303.661 161.227C303.796 161.343 303.814 161.548 303.7 161.687L298.549 167.87C298.491 167.938 298.409 167.98 298.321 167.985C298.316 167.987 298.309 167.987 298.303 167.987Z" fill="white"></path><path d="M312.664 215.274C313.202 218.376 311.161 220.891 308.104 220.891C305.048 220.891 302.132 218.376 301.592 215.274C301.052 212.172 303.095 209.657 306.152 209.657C309.21 209.657 312.125 212.172 312.664 215.274Z" fill="#9EC8FF"></path><path d="M243.959 232.406C244.497 235.508 242.456 238.023 239.399 238.023C236.343 238.023 233.427 235.508 232.887 232.406C232.349 229.304 234.39 226.789 237.447 226.789C240.503 226.789 243.419 229.304 243.959 232.406Z" fill="#9EC8FF"></path><path d="M336.531 109.041C340.851 100.27 352.154 96.2924 355.361 106.063C358.569 115.834 359.681 116.454 364.197 120.541C379.866 134.722 356.036 143.224 347.65 146.949C339.265 150.675 335.909 134.885 335.269 122.337C334.77 112.531 335.266 111.608 336.531 109.041Z" fill="#303C60"></path><path d="M349.28 241.361C350.125 244.848 348.457 247.613 346.222 249.628C344.404 251.268 338.82 251.964 339.09 252.783C339.36 253.601 345.953 253.862 348.174 253.52C350.395 253.179 351.001 252.086 353.766 252.086C355.577 252.088 355.914 250.592 355.106 248.743C354.299 246.895 354.016 245.872 354.746 244.215C355.475 242.558 349.28 241.361 349.28 241.361Z" fill="#4476BD"></path><path d="M382.233 241.361C382.098 244.98 381.685 247.678 382.56 249.354C385.938 252.223 388.747 255.48 387.673 255.705C382.56 256.777 380.607 253.666 377.714 252.782C374.163 251.698 378.05 247.169 376.66 241.361C375.887 238.132 382.021 238.907 382.021 238.907L382.233 241.361Z" fill="#4476BD"></path><path d="M358.099 158.759C355.855 177.881 351.778 192.016 351.323 201.081C350.868 210.146 349.052 245.84 349.052 245.84C349.052 245.84 354.049 245.486 354.504 244.718C354.958 243.95 363.891 223.823 363.436 211.377C362.981 198.932 372.357 180.01 372.357 180.01L370.097 161.443L358.099 158.759Z" fill="#F37168"></path><path d="M360.253 167.083L356.745 168.574C355.79 174.637 354.733 180.09 353.804 184.924C359.388 188.587 362.273 200.792 363.509 208.256C364.139 199.905 368.022 189.816 370.429 184.237L360.253 167.083Z" fill="#D54A41"></path><path d="M376.455 156.83C376.455 156.83 384.018 166.619 383.78 177.725C383.418 194.633 381.602 199.459 384.764 217.187C385.998 224.11 382.038 246.761 382.038 246.761C382.038 246.761 378.655 247.03 376.839 246.111C376.99 244.448 374.653 217.376 370.1 204.931C367.895 198.905 364.797 182.028 363.132 172.348C361.467 162.669 361.163 160.671 361.769 160.671C362.375 160.671 376.455 156.83 376.455 156.83Z" fill="#F37168"></path><path d="M309.101 179.152L298.653 180.376C297.948 180.459 297.202 179.952 296.996 179.25C296.79 178.549 297.199 177.906 297.906 177.825L308.353 176.602C309.059 176.519 309.805 177.026 310.01 177.727C310.216 178.428 309.808 179.069 309.101 179.152Z" fill="#85BAFF"></path><path d="M310.279 183.162L299.831 184.385C299.125 184.469 298.38 183.961 298.174 183.26C297.968 182.559 298.376 181.916 299.083 181.835L309.531 180.611C310.237 180.528 310.982 181.036 311.188 181.737C311.394 182.438 310.984 183.081 310.279 183.162Z" fill="#85BAFF"></path><path d="M317.051 173.19C313.919 174.197 312.032 174.409 309.816 174.251C307.601 174.092 306.139 175.417 304.834 175.947C303.529 176.477 303.006 177.31 305.199 177.007C307.391 176.703 308.45 176.703 308.45 176.703C308.45 176.703 310.031 177.061 310.762 177.591C311.114 177.845 311.376 178.083 311.915 178.608C312.565 179.244 312.532 180.466 311.979 181.192C311.381 181.978 310.992 182.845 310.375 183.154C309.216 183.733 310.308 184.429 311.461 183.733C312.557 183.071 313.184 182.131 314.02 181.19C315.216 179.843 316.316 177.669 317.412 176.702C318.513 175.733 317.051 173.19 317.051 173.19Z" fill="#F09959"></path><path d="M348.338 135.306C343.258 145.905 338.456 157.243 332.086 162.542C325.717 167.839 315.547 173.495 315.547 173.495C315.547 173.495 316.947 177.481 317.573 177.587C318.2 177.693 333.341 172.257 337.725 169.307C342.109 166.357 351.377 156.377 351.377 156.377L348.338 135.306Z" fill="#A2DFF2"></path><path d="M347.854 160.132C352.026 156.319 356.128 150.038 355.999 149.376C355.827 148.489 349.67 132.102 349.67 132.102C348.338 135.282 347.186 138.09 346.191 140.543C346.81 147.97 349.55 155.298 347.854 160.132Z" fill="#96CFE0"></path><path d="M357.272 121.189C357.272 121.189 368.573 122.551 373.727 130.403C378.881 138.254 376.488 151.162 377.75 157.122C379.011 163.081 361.899 170.481 359.736 164.401C357.661 158.572 348.883 147.801 348.009 144.557C345.957 136.949 353.386 123.986 353.386 123.986L357.272 121.189Z" fill="#A2DFF2"></path><path d="M350.519 111.047L359.201 122.396C359.201 122.396 356.036 127.439 351.469 138.453C349.804 132.847 352.212 125.189 352.212 125.189L344.785 114.188L350.519 111.047Z" fill="#F09959"></path><path d="M354.568 116.341L350.518 111.047L344.784 114.19L352.211 125.19C352.211 125.19 352.082 125.792 351.908 126.728C354.054 123.448 354.873 120.046 354.568 116.341Z" fill="#E38540"></path><path d="M349.29 114.778C349.637 119.275 346.148 123.099 342.797 123.367C339.446 123.634 337.502 120.242 337.155 115.744C336.807 111.247 339.242 107.385 342.593 107.118C345.944 106.852 348.941 110.282 349.29 114.778Z" fill="#F09959"></path><path d="M357.324 153.668C358.739 162.762 353.488 182.22 353.488 182.22C353.488 182.22 356.62 182.943 366.008 182.02C375.395 181.098 379.533 171.59 380.947 171.324C382.36 171.058 383.086 180.172 383.784 180.893C384.481 181.613 384.587 169.383 382.765 164.577C379.534 156.055 380.168 152.44 381.375 147.276C383.52 138.096 357.324 153.668 357.324 153.668Z" fill="#A2DFF2"></path><path d="M383.525 167.544C383.321 166.409 383.069 165.388 382.762 164.578C379.531 156.056 380.165 152.44 381.372 147.277C381.466 146.869 373.873 134.489 373.873 134.489L364.004 123.725C354.533 139.329 365.971 146.716 365.082 152.758C364.193 158.802 359.61 163.398 359.61 163.398L359.933 165.543C360.376 168.485 363.063 170.527 365.967 170.118C370.059 169.542 375.425 168.384 377.813 166.135C380.126 163.961 382.173 165.646 383.525 167.544Z" fill="#96CFE0"></path><path d="M360.249 164.876C360.249 164.876 356.131 166.841 355.66 167.203C355.189 167.565 355.144 169.064 355.144 169.064C355.144 169.064 353.033 171.667 354.108 172.277C355.183 172.887 357.2 174.552 359.286 173.261C360.567 172.468 360.78 167.166 361.676 166.97C362.569 166.776 360.249 164.876 360.249 164.876Z" fill="#F09959"></path><path d="M365.881 122.965C370.529 122.308 376.123 130.045 378.802 137.128C381.48 144.213 384.749 154.375 384.749 154.375C384.749 154.375 378.103 161.823 370.827 164.911C364.48 167.605 361.208 168.792 361.208 168.792L359.233 165.194L373.477 153.072C373.477 153.072 365.82 142.953 363.852 134.668C361.883 126.383 362.349 123.464 365.881 122.965Z" fill="#A2DFF2"></path><path d="M336.328 110.856C339.428 118.796 348.45 114.795 350.806 113.371C353.162 111.948 353.75 131.439 358.931 130.679C362.735 130.119 360.738 125.347 364.465 123.379C367.21 121.929 369.371 123.938 369.371 123.938C369.371 123.938 368.511 122.353 366.75 121.624C364.989 120.896 358.007 116.128 355.193 111.132C352.381 106.137 344.951 104.961 343.077 105.527C341.204 106.092 337.464 109.858 337.464 109.858L336.328 110.856Z" fill="#303C60"></path><path d="M358.743 132.798C355.3 132.798 353.799 125.934 352.07 118.029C351.726 116.453 351.369 114.824 350.997 113.257C350.945 113.043 351.075 112.829 351.286 112.777C351.496 112.725 351.707 112.857 351.758 113.069C352.133 114.643 352.491 116.275 352.837 117.856C354.4 125.007 356.017 132.395 359.016 131.984C360.829 131.732 361.179 127.729 360.903 124.068C360.887 123.849 361.047 123.659 361.263 123.641C361.48 123.623 361.666 123.787 361.684 124.006C361.873 126.508 362.002 132.369 359.124 132.77C358.992 132.788 358.865 132.798 358.743 132.798Z" fill="#303C60"></path><path d="M358.882 134.887C358.551 134.887 358.22 134.802 357.891 134.634C353.473 132.375 350.543 114.207 350.421 113.434C350.387 113.217 350.532 113.013 350.746 112.979C350.961 112.943 351.16 113.092 351.194 113.308C352.012 118.459 354.871 132.201 358.244 133.925C358.68 134.148 359.101 134.145 359.53 133.92C361.015 133.14 361.155 130.586 361.278 128.334C361.404 126.057 361.523 123.908 362.985 123.43C363.191 123.363 363.411 123.477 363.479 123.686C363.544 123.895 363.432 124.118 363.226 124.187C362.275 124.497 362.172 126.382 362.061 128.378C361.926 130.844 361.772 133.638 359.89 134.626C359.556 134.801 359.22 134.887 358.882 134.887Z" fill="#303C60"></path><path d="M349.659 116.31C350.437 116.565 351.35 115.889 351.698 114.799C352.046 113.709 351.697 112.618 350.92 112.363C350.142 112.107 349.23 112.783 348.881 113.873C348.533 114.963 348.882 116.054 349.659 116.31Z" fill="#F09959"></path><path d="M95.6745 237.143C95.6745 237.143 65.8002 216.085 53.1637 228.227C43.0727 237.923 60.9838 249.312 83.8977 246.249C100.027 244.093 101.854 247.224 104.679 247.157C125.7 245.523 154.025 239.139 140.241 229.113C121.462 215.452 108.761 229.935 102.219 233.539C95.6745 237.143 95.6745 237.143 95.6745 237.143Z" fill="#232E4F"></path><path d="M134.301 228.604C126.448 226.96 96.537 238.217 96.537 238.217C96.537 238.217 70.4892 230.248 64.2569 229.49C58.0246 228.731 55.1592 231.134 55.1592 231.134C55.1592 231.134 58.1001 227.771 61.5152 227.466C64.9319 227.161 69.8657 226.327 69.8657 226.327C69.8657 226.327 119.719 223.925 126.325 225.442C132.93 226.96 134.301 228.604 134.301 228.604Z" fill="#1B243D"></path><path d="M91.9346 187.629C90.7501 187.818 72.3344 195.971 72.1095 199.385C71.8845 202.798 77.1541 230.502 87.3495 234.108C97.5433 237.713 108.947 234.108 108.947 234.108C108.947 234.108 120.912 204.134 117.359 198.442C113.807 192.75 97.7297 187.629 97.7297 187.629H91.9346Z" fill="#FFD24F"></path><path d="M78.4 194.08C60.8071 203.647 56.4856 220.92 61.1398 224.727C64.4006 227.395 76.6932 233.296 87.3499 232.916C98.0065 232.536 108.012 233.555 108.012 233.555C108.012 233.555 126.291 229.781 129.938 224.221C133.583 218.661 123.469 200.604 114.4 195.383C105.33 190.164 78.4 194.08 78.4 194.08Z" fill="#FFD24F"></path><path d="M95.1773 198.443C92.7441 198.443 90.7529 196.422 90.7529 193.953V178.84C90.7529 176.37 92.7441 174.35 95.1773 174.35C97.6104 174.35 99.6016 176.37 99.6016 178.84V193.953C99.6016 196.422 97.6104 198.443 95.1773 198.443Z" fill="#F09959"></path><path d="M95.1773 174.35C92.7441 174.35 90.7529 176.37 90.7529 178.84V191.197C93.3612 193.409 95.8876 192.251 99.6016 189.328V178.838C99.6016 176.37 97.6104 174.35 95.1773 174.35Z" fill="#E38540"></path><path d="M104.886 179.449C104.159 180.956 102.978 181.791 102.249 181.315C101.519 180.839 101.517 179.232 102.244 177.725C102.97 176.218 104.151 175.383 104.881 175.859C105.611 176.336 105.614 177.942 104.886 179.449Z" fill="#F09959"></path><path d="M87.7687 177.838C88.6092 179.208 88.7715 180.865 88.1287 181.537C87.4874 182.209 86.2853 181.643 85.4448 180.273C84.6043 178.903 84.442 177.246 85.0848 176.574C85.7277 175.902 86.9282 176.468 87.7687 177.838Z" fill="#F09959"></path><path d="M95.3752 189.295C99.5779 189.295 102.985 184.843 102.985 179.351C102.985 173.859 99.5779 169.407 95.3752 169.407C91.1725 169.407 87.7656 173.859 87.7656 179.351C87.7656 184.843 91.1725 189.295 95.3752 189.295Z" fill="#F09959"></path><path d="M111.966 203.961C116.951 206.658 121.295 216.884 121.295 216.884C121.295 216.884 110.077 218.656 107.752 220.425C105.425 222.196 108.084 219.75 109.414 214.86C110.744 209.969 111.966 203.961 111.966 203.961Z" fill="#EDC055"></path><path d="M77.2595 203.226C78.423 208.622 83.99 223.689 83.99 223.689C83.99 223.689 78.8344 217.729 73.3542 217.392C67.8757 217.054 65.8411 216.969 65.8764 218.32C65.8829 218.586 66.7909 212.333 71.0288 208.454C75.2651 204.576 77.2595 203.226 77.2595 203.226Z" fill="#EDC055"></path><path d="M110.677 237.2H80.5744C79.3611 237.2 78.3261 236.311 78.1252 235.096L74.4948 213.111C74.2409 211.575 75.4076 210.176 76.944 210.176H114.306C115.841 210.176 117.009 211.575 116.755 213.111L113.125 235.096C112.924 236.311 111.889 237.2 110.677 237.2Z" fill="#2A66C6"></path><path d="M110.677 237.201H80.5744C79.3611 237.201 78.3261 236.343 78.1252 235.174L74.4948 213.983C74.2409 212.502 75.4076 211.153 76.944 211.153H114.306C115.841 211.153 117.009 212.502 116.755 213.983L113.125 235.174C112.924 236.343 111.889 237.201 110.677 237.201Z" fill="#307BC1"></path><path d="M99.6018 245.86C99.4218 245.829 80.1592 240.937 75.8602 244.541C71.5612 248.145 90.2549 248.207 93.6202 247.418C96.9838 246.629 99.6018 245.86 99.6018 245.86Z" fill="#1B243D"></path><path d="M103.9 246.738C103.9 246.738 108.013 243.593 113.434 244.163C118.854 244.732 123.528 245.932 118.854 247.418C114.181 248.905 109.321 249.095 107.078 248.905C104.836 248.715 103.9 246.738 103.9 246.738Z" fill="#1B243D"></path><path d="M92.9466 165.335C88.0031 166.857 89.7243 180.977 95.3749 180.513C101.025 180.048 101.255 173.942 100.853 169.987C100.452 166.032 98.0459 163.765 92.9466 165.335Z" fill="#0F2D5C"></path><path d="M91.1699 175.803C89.7943 174.466 87.9043 178.675 88.6484 180.525C89.3925 182.374 88.3511 183.451 89.3587 185.442C90.3664 187.433 87.5009 184.176 87.1008 181.792C86.7006 179.408 86.4708 175.28 85.8971 173.419C85.3233 171.558 85.926 168.332 88.4797 167.662C91.0333 166.991 91.628 165.801 92.6019 165.742C93.5758 165.683 98.217 166.15 100.51 167.429C102.802 168.707 104.064 170.627 103.892 173.535C103.72 176.443 102.974 183.886 102.288 185.108C101.6 186.329 101.245 186.039 101.451 185.341C101.658 184.643 102.402 180.455 101.828 178.943C101.254 177.431 101.542 173.709 100.052 173.419C98.5626 173.129 98.9065 175.707 97.1307 175.9C95.3532 176.094 91.1699 175.803 91.1699 175.803Z" fill="#0F2D5C"></path><defs><linearGradient id="paint0_linear_4757_3676" x1="119.246" y1="0" x2="119.246" y2="242.028" gradientUnits="userSpaceOnUse"><stop stop-color="#00B77E"></stop><stop offset="1" stop-color="#C3E7DA"></stop></linearGradient><linearGradient id="paint1_linear_4757_3676" x1="133.664" y1="236.02" x2="127.433" y2="46.1453" gradientUnits="userSpaceOnUse"><stop stop-color="#232E4F"></stop><stop offset="1" stop-color="#232E4F" stop-opacity="0"></stop></linearGradient></defs></svg>