<svg xmlns="http://www.w3.org/2000/svg" width="360" height="323" viewBox="0 0 360 323" fill="none"><path d="M135.794 317.607C95.4687 306.213 61.4732 280.001 40.0912 243.802C39.3409 242.489 37.6529 242.067 36.34 242.817C35.027 243.567 34.605 245.255 35.3553 246.568C46.2338 264.949 60.3478 280.939 77.2752 294.068C94.3902 307.338 113.615 317.045 134.388 322.906L134.763 323H135.138C136.638 323 137.858 321.78 137.858 320.233C137.858 318.967 136.967 317.889 135.794 317.607Z" fill="#C3E7DA"></path><path d="M228.45 0.112668C226.996 -0.309345 225.449 0.487795 225.027 1.94139C224.605 3.39499 225.402 4.94238 226.855 5.36439C263.289 16.2898 294.94 39.9226 315.994 71.8549C316.51 72.652 317.401 73.074 318.292 73.074C318.807 73.074 319.323 72.9333 319.792 72.6051C321.058 71.7611 321.386 70.073 320.589 68.807C298.879 35.7962 266.15 11.3663 228.45 0.112668Z" fill="#C3E7DA"></path><path d="M5.53306 161.087C5.53306 160.008 5.53305 158.93 5.57995 157.852V157.758C5.57995 156.257 4.3608 155.038 2.81342 155.038C1.31293 155.038 0.0937763 156.257 0.046886 157.711C-4.29364e-06 158.836 0 159.962 0 161.087C0 205.914 16.5523 248.819 46.6559 282.017L47.4999 282.908H48.719C50.2195 282.908 51.4387 281.689 51.4387 280.141C51.4387 279.391 51.1573 278.735 50.6884 278.219C21.5695 246.146 5.53306 204.507 5.53306 161.087Z" fill="#C7E8DC"></path><path d="M359.179 142.331C354.866 100.787 335.969 61.727 306.006 32.4206C304.927 31.3421 303.192 31.389 302.114 32.4674C301.035 33.5459 301.082 35.2809 302.161 36.3594C331.233 64.8218 349.52 102.662 353.693 142.941C353.834 144.348 355.053 145.426 356.413 145.426C356.507 145.426 356.6 145.426 356.694 145.426C358.242 145.192 359.32 143.832 359.179 142.331Z" fill="#C3E7DA"></path><path d="M180.34 309.918C262.536 309.918 329.169 243.284 329.169 161.088C329.169 78.8912 262.536 12.2578 180.34 12.2578C98.1432 12.2578 31.5098 78.8912 31.5098 161.088C31.5098 243.284 98.1432 309.918 180.34 309.918Z" fill="white"></path><path d="M180.34 3.62988C93.8745 3.62988 23.8203 73.684 23.8203 160.15C23.8203 246.616 93.8745 316.67 180.34 316.67C266.806 316.67 336.86 246.616 336.86 160.15C336.86 73.684 266.759 3.62988 180.34 3.62988ZM180.34 290.974C108.082 290.974 49.5162 232.408 49.5162 160.15C49.5162 87.8918 108.082 29.3258 180.34 29.3258C252.598 29.3258 311.164 87.8918 311.164 160.15C311.164 232.408 252.598 290.974 180.34 290.974Z" fill="#DEF8EF"></path><path d="M180.34 22.2451C104.19 22.2451 42.4355 83.9997 42.4355 160.15C42.4355 236.299 104.19 298.054 180.34 298.054C256.49 298.054 318.244 236.346 318.244 160.15C318.244 83.9528 256.49 22.2451 180.34 22.2451ZM180.34 290.974C108.082 290.974 49.516 232.408 49.516 160.15C49.516 87.8916 108.082 29.3256 180.34 29.3256C252.598 29.3256 311.164 87.8916 311.164 160.15C311.164 232.408 252.598 290.974 180.34 290.974Z" fill="#C3E7DA"></path><path d="M180.435 34.3908C178.7 34.3439 177.293 35.7506 177.293 37.4387V44.8004C177.293 46.4885 178.653 47.8014 180.341 47.8014C180.341 47.8014 180.341 47.8014 180.388 47.8014C180.388 47.8014 180.388 47.8014 180.435 47.8014C182.123 47.8014 183.482 46.4416 183.482 44.8004V37.5793C183.389 35.8913 182.123 34.4377 180.435 34.3908Z" fill="#307BC1"></path><path d="M180.388 274.422C180.341 274.422 180.341 274.422 180.388 274.422C180.341 274.422 180.341 274.422 180.341 274.422C178.653 274.422 177.293 275.782 177.293 277.423V282.909C177.293 284.644 178.7 286.004 180.435 285.957C182.123 285.91 183.389 284.456 183.389 282.768V277.423C183.389 275.735 182.029 274.422 180.388 274.422Z" fill="#307BC1"></path><path d="M64.0524 157.103H57.7222C56.1748 157.103 54.7681 158.228 54.5805 159.775C54.3461 161.651 55.7997 163.245 57.6284 163.245H64.0524C65.6935 163.245 67.0534 161.885 67.0534 160.244C67.0534 160.197 67.0534 160.197 67.0534 160.15C67.0534 158.462 65.6935 157.103 64.0524 157.103Z" fill="#307BC1"></path><path d="M306.1 159.775C305.912 158.228 304.506 157.103 302.958 157.103H296.628C294.94 157.103 293.58 158.462 293.627 160.15C293.627 160.197 293.627 160.197 293.627 160.244C293.627 161.885 294.987 163.245 296.628 163.245H303.052C304.881 163.198 306.334 161.604 306.1 159.775Z" fill="#307BC1"></path><path d="M95.7038 71.2005C94.5316 69.9813 92.5622 69.9813 91.3899 71.2005C90.1708 72.4196 90.1708 74.3422 91.3899 75.5144L96.4072 80.5317C97.5795 81.7039 99.502 81.7039 100.674 80.5317L100.721 80.4848C101.893 79.3125 101.94 77.39 100.768 76.2178L95.7038 71.2005Z" fill="#307BC1"></path><path d="M265.213 240.708C264.04 239.536 262.118 239.536 260.946 240.755L260.899 240.802C259.726 241.974 259.726 243.897 260.899 245.069L264.978 249.149C266.15 250.368 268.12 250.368 269.292 249.149C270.511 247.929 270.511 246.007 269.292 244.835L265.213 240.708Z" fill="#307BC1"></path><path d="M99.7364 240.756C98.5642 239.583 96.6417 239.536 95.4694 240.709L91.3899 244.788C90.1708 245.96 90.1708 247.93 91.3899 249.102C92.6091 250.321 94.5316 250.321 95.7038 249.102L99.7833 245.023C100.956 243.85 100.956 241.975 99.7364 240.756Z" fill="#307BC1"></path><path d="M264.978 71.1995L259.96 76.2168C258.788 77.389 258.788 79.3115 260.007 80.4838L260.054 80.5307C261.226 81.7029 263.149 81.7029 264.321 80.5307L269.338 75.5134C270.558 74.3412 270.558 72.3718 269.338 71.1995C268.072 70.0272 266.15 70.0272 264.978 71.1995Z" fill="#307BC1"></path><path d="M31.5098 164.275C29.728 164.275 28.3213 162.869 28.3213 161.087C28.3213 120.48 44.1233 82.311 72.8671 53.6142C101.564 24.9173 139.733 9.06836 180.34 9.06836C182.122 9.06836 183.528 10.4751 183.528 12.2569C183.528 14.0387 182.122 15.4454 180.34 15.4454C100.017 15.4454 34.6984 80.7637 34.6984 161.087C34.6984 162.869 33.2448 164.275 31.5098 164.275Z" fill="#C3E7DA"></path><path d="M120.087 77.6224L173.73 148.38L176.215 151.615L181.56 158.696H181.607L177.715 162.588L167.353 154.757L96.595 101.114L92.7031 73.7305L120.087 77.6224Z" fill="#C3E7DA"></path><path d="M265.823 159.727L244.113 174.873L192.862 166.526L182.358 164.838L182.265 163.103L182.171 159.352L189.392 157.758L193.284 156.914L243.316 145.801L265.823 159.727Z" fill="#C3E7DA"></path><path d="M180.341 170.606C185.546 170.606 189.766 166.386 189.766 161.181C189.766 155.976 185.546 151.756 180.341 151.756C175.136 151.756 170.916 155.976 170.916 161.181C170.916 166.386 175.136 170.606 180.341 170.606Z" fill="#BBDFFF"></path><path d="M180.34 165.449C182.697 165.449 184.607 163.539 184.607 161.182C184.607 158.825 182.697 156.915 180.34 156.915C177.984 156.915 176.073 158.825 176.073 161.182C176.073 163.539 177.984 165.449 180.34 165.449Z" fill="white"></path><path d="M271.916 236.252C271.4 235.877 271.025 235.314 270.978 234.704C270.603 231.61 268.259 218.996 260.006 218.058L260.287 209.993L274.636 209.899C276.558 209.853 278.059 211.494 277.824 213.416L275.339 234.704C275.198 236.299 273.323 237.19 271.916 236.252Z" fill="#CF4920"></path><path d="M127.306 259.885C127.306 259.885 126.978 266.731 125.29 274.327C124.962 275.875 123.461 276.812 122.055 276.484C116.944 275.265 104.143 269.076 100.532 262.23C99.9694 261.151 100.485 259.744 101.564 259.322L101.657 259.275C102.126 259.088 102.642 259.135 103.064 259.322C105.174 260.26 115.818 265.887 120.789 259.088L127.306 259.885Z" fill="#CF4920"></path><path d="M178.792 189.409C183.997 196.864 198.955 212.385 205.473 218.762C208.005 221.247 211.475 222.607 215.038 222.467L262.913 221.904C266.336 216.043 263.007 209.243 263.007 209.243C250.394 205.727 217.008 206.336 217.008 206.336L197.032 172.528L178.792 189.409Z" fill="#263238"></path><path d="M187.701 159.023L194.922 169.433C199.658 176.748 197.595 186.501 190.327 191.237L150.751 211.963L130.401 262.557C130.401 262.557 122.336 265.183 116.896 258.572L133.589 207.133C134.762 204.085 136.544 201.365 138.888 199.115L167.726 174.075L165.428 167.886L187.701 159.023Z" fill="#263238"></path><path d="M183.201 195.596C183.294 195.596 183.388 195.55 183.482 195.503L191.875 190.579C196.752 187.719 199.284 182.045 198.112 176.512L197.549 173.792C197.502 173.464 197.174 173.277 196.846 173.324C196.517 173.37 196.33 173.699 196.377 174.027L196.939 176.747C197.971 181.811 195.673 186.922 191.266 189.548L182.872 194.471C182.591 194.659 182.497 194.987 182.638 195.268C182.779 195.503 182.966 195.596 183.201 195.596Z" fill="#333437"></path><path d="M125.712 257.68L145.125 208.868L145.219 208.68L183.247 185.469C185.169 184.297 186.154 182.234 186.06 180.124C185.779 180.218 185.404 180.264 184.935 180.311C184.184 180.358 183.2 180.264 182.168 179.842C179.683 178.858 177.62 176.419 176.072 172.574C175.932 172.246 176.119 171.918 176.401 171.777C176.729 171.637 177.057 171.824 177.198 172.106C178.604 175.622 180.433 177.826 182.637 178.717C184.091 179.28 185.31 179.092 185.919 178.952C185.826 178.623 185.685 178.248 185.544 177.92L184.466 175.575C184.325 175.294 184.466 174.919 184.747 174.778C185.028 174.638 185.404 174.778 185.544 175.06L186.623 177.404C188.17 180.686 186.998 184.578 183.903 186.501L146.25 209.524L126.931 258.149C126.838 258.384 126.65 258.524 126.416 258.524C126.322 258.524 126.228 258.524 126.181 258.478C125.712 258.337 125.572 258.009 125.712 257.68Z" fill="#333437"></path><path d="M152.581 84.7019C152.815 80.3411 153.049 76.0272 153.284 71.6664C153.378 70.0721 150.846 69.7439 150.752 71.3851C150.517 75.7459 150.283 80.0598 150.048 84.4206C149.955 86.0149 152.487 86.3431 152.581 84.7019Z" fill="#BBDFFF"></path><path d="M144.843 88.4065C141.045 86.2964 137.247 84.1395 133.448 82.0294C132.042 81.2323 130.682 83.3423 132.089 84.1395C135.887 86.2495 139.685 88.4065 143.483 90.5165C144.89 91.3137 146.25 89.2036 144.843 88.4065Z" fill="#BBDFFF"></path><path d="M147.797 84.9375C146.062 80.9518 146.297 81.5145 144.515 77.5757C143.859 76.0752 141.514 76.9661 142.17 78.4666C143.905 82.4523 143.671 81.8896 145.453 85.8284C146.109 87.3289 148.454 86.4379 147.797 84.9375Z" fill="#BBDFFF"></path><path d="M132.886 151.381C132.651 151.568 132.464 151.756 132.276 151.85C131.807 152.131 131.479 152.131 131.151 152.037C130.448 151.803 129.885 150.959 128.572 151.099C127.212 151.287 127.634 152.787 127.634 153.35C127.634 154.288 126.931 154.429 127.071 155.46C127.259 156.726 126.368 155.976 126.649 157.195C126.696 157.476 127.118 157.992 126.884 158.18C125.758 158.977 127.025 161.556 137.481 158.836C138.419 154.1 138.091 155.46 134.855 151.568C134.386 150.959 133.495 150.865 132.886 151.381Z" fill="#FAB093"></path><path d="M132.324 151.851C131.855 152.132 131.526 152.132 131.198 152.038C131.714 152.319 132.183 152.695 132.605 153.117C133.73 154.383 133.543 155.93 132.746 157.337C132.511 157.759 133.215 158.087 133.449 157.665C134.293 156.118 134.527 154.383 133.402 152.929C133.074 152.507 132.699 152.179 132.324 151.851Z" fill="#E08162"></path><path d="M136.356 162.822V162.869C144.14 164.604 156.612 162.916 158.676 163.056H158.863C158.91 163.056 158.957 163.056 158.957 163.056C158.957 163.056 164.021 155.319 159.145 149.224C159.145 149.224 148.922 155.648 137.716 153.397C137.669 153.444 137.481 153.678 137.247 154.053C135.512 156.585 135.23 159.915 136.356 162.822Z" fill="#00B77E"></path><path d="M190.045 161.65L170.257 170.888C169.366 170.888 168.522 170.794 167.678 170.606C167.678 170.606 166.834 169.622 165.521 167.84C165.475 167.793 165.428 167.746 165.381 167.652C164.49 166.105 151.032 143.457 150.845 123.388C150.845 123.388 158.394 112.978 180.667 116.729C180.667 116.729 180.292 139.049 188.169 157.712C188.826 159.071 189.389 160.384 190.045 161.65Z" fill="#F5F5F5"></path><path d="M190.046 161.651L170.258 170.888L167.117 172.342L165.429 167.84L165.522 167.793L188.217 157.665C188.827 159.072 189.39 160.385 190.046 161.651Z" fill="#30323C"></path><path d="M154.55 120.151C154.597 120.105 154.69 120.058 154.784 120.011L154.972 125.544C155.159 131.358 156.144 137.126 157.926 142.659L165.663 166.854L165.71 167.042C166.507 169.621 167.304 172.012 168.148 174.169L162.287 179.046L154.128 146.316L149.626 132.108C148.173 127.513 150.142 122.496 154.362 120.245C154.409 120.198 154.456 120.198 154.55 120.151Z" fill="#00B77E"></path><path d="M155.066 119.918C155.066 119.918 155.066 119.965 155.066 120.012L154.737 120.059C154.972 119.965 155.066 119.918 155.066 119.918Z" fill="#00B77E"></path><path d="M164.725 116.448C164.771 116.448 164.818 116.448 164.818 116.401C164.771 116.448 164.725 116.448 164.725 116.448Z" fill="#00B77E"></path><path d="M162.428 117.526C162.428 117.526 162.428 117.573 162.428 117.62C162.428 117.667 162.428 117.714 162.428 117.761C162.709 120.621 167.586 151.475 181.559 173.56C182.45 174.967 184.044 175.717 185.685 175.483L189.155 174.967L199.752 173.466C201.3 173.232 202.05 171.45 201.159 170.184C194.641 161.275 182.356 141.956 182.028 127.936C190.984 123.481 198.533 120.808 198.533 120.808C203.316 124.513 207.958 145.754 207.958 145.754C211.475 146.364 214.335 144.019 214.335 144.019C212.835 129.765 209.177 118.37 206.974 113.353C205.895 110.915 203.457 109.414 200.784 109.461C184.091 109.883 167.961 115.416 165.1 116.307C164.96 116.354 164.866 116.401 164.772 116.401C164.678 116.401 164.678 116.448 164.678 116.448C163.881 116.729 163.084 117.057 162.428 117.526Z" fill="#00B77E"></path><path d="M186.529 175.81C186.67 175.81 186.811 175.811 186.951 175.764L197.548 174.451C197.877 174.404 198.111 174.122 198.064 173.794C198.017 173.466 197.736 173.232 197.408 173.278L186.811 174.591C184.841 174.826 182.872 173.888 181.793 172.2L178.511 166.948C178.323 166.667 177.948 166.573 177.667 166.761C177.386 166.948 177.292 167.323 177.479 167.605L180.762 172.856C181.981 174.826 184.232 175.951 186.529 175.81Z" fill="#23CE99"></path><path d="M177.572 130.422C177.619 130.422 177.713 130.422 177.76 130.375L182.261 128.499C182.543 128.359 182.73 128.03 182.59 127.702C182.449 127.421 182.121 127.233 181.793 127.374L177.291 129.25C177.01 129.39 176.822 129.719 176.963 130.047C177.104 130.281 177.338 130.422 177.572 130.422Z" fill="#23CE99"></path><path d="M194.688 167.184C195.016 167.184 195.251 166.902 195.251 166.574C195.251 166.246 194.97 165.964 194.641 166.011C190.421 166.105 186.201 164.089 183.622 160.76C183.435 160.478 183.059 160.431 182.778 160.666C182.497 160.853 182.45 161.228 182.684 161.51C185.451 165.12 190.046 167.277 194.688 167.184Z" fill="#23CE99"></path><path d="M164.209 117.995C164.303 117.667 164.678 117.527 164.96 117.62C165.991 117.995 166.788 118.371 167.585 118.746C168.383 119.121 169.133 119.496 170.118 119.824L170.727 120.059L170.446 120.668C169.977 121.606 169.508 122.544 169.086 123.482C168.711 124.232 168.336 124.982 168.007 125.732C168.664 126.107 169.32 126.529 169.977 126.905C170.774 127.373 171.571 127.889 172.415 128.311L172.65 128.452L178.276 161.369C178.323 161.697 178.136 161.979 177.808 162.072H177.761C177.479 162.072 177.198 161.885 177.151 161.557L171.618 129.202C170.868 128.78 170.118 128.311 169.414 127.889C168.617 127.42 167.82 126.905 166.976 126.483L166.46 126.201L166.695 125.685C167.163 124.795 167.585 123.857 168.054 122.966C168.429 122.216 168.758 121.465 169.133 120.762C168.383 120.481 167.773 120.152 167.117 119.871C166.319 119.496 165.569 119.121 164.584 118.793C164.256 118.652 164.069 118.277 164.209 117.995Z" fill="#23CE99"></path><path d="M168.477 174.263L162.615 179.328C162.522 179.421 162.381 179.468 162.24 179.468C162.053 179.468 161.865 179.421 161.771 179.281C161.537 179.046 161.584 178.671 161.818 178.437L167.023 173.888L166.554 172.622C166.929 172.435 167.257 172.247 167.633 172.06L168.477 174.263Z" fill="#23CE99"></path><path d="M157.223 158.978C157.269 158.978 157.316 158.978 157.316 158.978C157.645 158.884 157.832 158.556 157.738 158.274C157.691 158.087 152.862 139.002 153.893 129.765C153.94 129.437 153.706 129.155 153.378 129.109C153.049 129.062 152.768 129.296 152.721 129.624C151.689 139.049 156.425 157.758 156.613 158.556C156.707 158.79 156.941 158.978 157.223 158.978Z" fill="#23CE99"></path><path d="M216.727 150.35L208.333 152.179C205.379 152.836 203.457 155.743 204.113 158.697L206.317 158.228C205.942 156.493 207.067 154.758 208.802 154.383L217.195 152.554C218.93 152.179 220.665 153.304 221.041 155.039L223.244 154.571C222.635 151.616 219.681 149.694 216.727 150.35Z" fill="#323426"></path><path d="M231.778 156.258L197.173 163.714C196.188 163.948 195.532 164.933 195.766 165.918L200.409 187.534C200.643 188.519 201.628 189.175 202.612 188.941L237.217 181.485C238.202 181.251 238.859 180.266 238.624 179.282L233.982 157.665C233.748 156.68 232.81 156.071 231.778 156.258Z" fill="#616161"></path><path d="M223.431 154.056L220.711 154.619C220.196 154.713 219.914 155.228 220.008 155.697L224.51 154.713C224.416 154.291 223.9 153.962 223.431 154.056Z" fill="#307BC1"></path><path d="M206.457 157.713L203.738 158.276C203.222 158.37 202.941 158.886 203.034 159.355L207.536 158.37C207.442 157.948 206.973 157.62 206.457 157.713Z" fill="#307BC1"></path><path d="M213.631 171.873C213.631 171.873 215.741 181.626 224.51 185.096C224.51 185.096 219.024 193.911 207.676 195.6C207.676 195.6 201.018 187.112 199.986 174.78L213.631 171.873Z" fill="#BBDFFF"></path><path d="M232.2 153.164L195.532 160.994C194.735 161.182 194.266 161.932 194.407 162.729L196.517 172.576C196.845 174.124 198.392 175.108 199.94 174.78L233.794 167.512C235.342 167.184 236.327 165.637 235.998 164.089L233.888 154.242C233.748 153.492 232.95 152.976 232.2 153.164Z" fill="#323426"></path><path d="M218.79 168.263L219.165 169.951C219.165 169.951 217.993 170.607 218.508 172.201L215.929 172.764C215.695 171.076 214.382 170.982 214.382 170.982L214.007 169.294L218.79 168.263Z" fill="#307BC1"></path><path d="M214.569 172.062L214.991 173.984C215.132 174.641 215.788 175.063 216.445 174.922L218.883 174.406C219.54 174.266 219.962 173.609 219.821 172.953L219.399 171.03L214.569 172.062Z" fill="#307BC1"></path><path d="M229.667 180.689C229.667 180.689 228.214 189.927 219.258 194.475C219.258 194.475 227.417 206.338 246.97 203.009C246.97 203.009 257.098 196.632 253.113 184.441C251.659 184.722 238.999 189.692 229.667 180.689Z" fill="#BBDFFF"></path><path d="M207.911 152.319C207.958 152.366 207.817 152.366 209.224 152.084C209.693 152.835 209.271 153.585 209.224 154.288C209.74 156.492 210.818 156.398 211.569 154.992C211.756 154.71 212.037 154.523 212.366 154.523C213.35 154.57 212.835 153.679 213.96 153.96C214.335 154.054 214.757 153.913 214.992 153.585C215.554 152.788 218.555 155.039 213.679 144.535C212.741 145.098 210.912 145.989 208.755 145.895C208.333 148.146 207.161 151.24 207.911 152.319Z" fill="#FAB093"></path><path d="M165.313 167.175C166.478 166.677 166.791 166.528 167.956 166.031C168.18 165.931 168.494 166.08 168.539 166.379C169.031 167.921 169.524 169.413 169.972 170.955C170.062 171.254 169.928 171.502 169.659 171.602C168.583 172.199 168.27 172.348 167.194 172.945C166.657 173.243 166.343 172.248 166.881 171.95C167.822 171.453 167.956 171.353 168.942 170.806C168.539 169.612 168.18 168.418 167.777 167.225C166.791 167.672 166.567 167.722 165.582 168.17C165.044 168.418 164.73 167.423 165.313 167.175Z" fill="#307BC1"></path><path d="M160.833 114.149L151.783 119.542L155.066 123.621L162.568 116.822L160.833 114.149Z" fill="#E3E5E7"></path><path d="M153.096 110.164L154.268 121.324L164.396 115.651L161.817 109.18C160.223 103.318 153.096 110.164 153.096 110.164Z" fill="#FAB093"></path><path d="M153.472 113.587L153.941 118.041C156.801 116.166 157.082 111.008 157.082 111.008L153.472 113.587Z" fill="#E08162"></path><path d="M145.781 106.882L147.328 107.632C147.281 111.102 147.61 114.103 150.095 115.088C152.861 116.213 156.753 113.822 158.207 109.883C160.786 106.273 162.427 102.099 162.521 97.6447C156.941 96.0973 150.845 96.4724 148.313 96.7538C148.266 96.7538 148.219 96.7538 148.172 96.7538C147.703 97.8791 147.516 99.0514 147.422 99.9892C147.281 101.583 147.516 102.756 147.516 102.756L145.593 106.366C145.5 106.601 145.593 106.788 145.781 106.882Z" fill="#FAB093"></path><path d="M149.532 104.585C149.843 104.585 150.095 104.144 150.095 103.6C150.095 103.056 149.843 102.615 149.532 102.615C149.222 102.615 148.97 103.056 148.97 103.6C148.97 104.144 149.222 104.585 149.532 104.585Z" fill="#30323C"></path><path d="M148.781 99.5672C149.813 99.8016 150.704 100.364 151.313 101.208C151.595 101.583 150.985 101.959 150.704 101.583C150.188 100.88 149.485 100.411 148.641 100.224C148.172 100.177 148.312 99.4734 148.781 99.5672Z" fill="#30323C"></path><path d="M157.316 106.788C157.363 106.788 157.456 106.741 157.456 106.694C157.785 106.132 157.831 105.757 157.644 105.522C157.55 105.382 157.316 105.288 156.847 105.428C156.425 103.787 157.597 103.178 157.597 103.178C157.691 103.131 157.738 103.037 157.691 102.943C157.644 102.849 157.55 102.803 157.456 102.849C157.456 102.849 156.05 103.6 156.519 105.522C156.519 105.616 156.612 105.71 156.706 105.757C156.8 105.804 156.894 105.804 156.987 105.804C157.222 105.71 157.363 105.757 157.363 105.804C157.363 105.804 157.456 105.944 157.128 106.554C157.081 106.648 157.128 106.741 157.222 106.788C157.222 106.788 157.269 106.788 157.316 106.788Z" fill="#E08162"></path><path d="M154.83 126.249C157.925 147.35 186.997 145.849 186.997 145.849L191.358 139.754L185.121 134.455C185.121 134.455 185.121 134.455 185.075 134.455C183.902 134.924 162.989 143.036 156.049 125.405L156.612 120.763L154.315 119.685C151.642 121.982 154.83 126.249 154.83 126.249Z" fill="#307BC1"></path><mask id="mask0_4751_3572" style="mask-type:luminance" maskUnits="userSpaceOnUse" x="153" y="119" width="39" height="27"><path d="M154.829 126.251C157.924 147.352 186.996 145.851 186.996 145.851L191.357 139.756L185.121 134.457C185.121 134.457 185.121 134.457 185.074 134.457C183.901 134.926 162.988 143.038 156.049 125.407L156.611 120.765L154.314 119.687C151.641 121.984 154.829 126.251 154.829 126.251Z" fill="white"></path></mask><g mask="url(#mask0_4751_3572)"><path d="M174.523 135.395C174.852 138.255 177.196 140.506 180.197 140.178C182.87 139.896 184.933 137.458 184.792 134.785C184.652 132.019 182.12 129.815 179.353 129.956C176.446 130.143 174.476 132.581 174.523 135.395ZM175.789 135.301C175.742 130.331 183.198 129.862 183.526 134.832C183.808 139.849 176.352 140.225 175.789 135.301Z" fill="#78B2E8"></path><path d="M165.662 145.898C165.99 148.758 168.335 151.009 171.336 150.681C174.009 150.399 176.072 147.961 175.931 145.288C175.79 142.522 173.258 140.318 170.492 140.459C167.585 140.646 165.662 143.131 165.662 145.898ZM166.928 145.851C166.881 140.881 174.337 140.412 174.665 145.382C174.946 150.352 167.491 150.774 166.928 145.851Z" fill="#78B2E8"></path><path d="M185.965 143.883C186.293 146.743 188.638 148.994 191.639 148.666C194.311 148.385 196.374 145.946 196.234 143.274C196.093 140.507 193.561 138.303 190.795 138.444C187.887 138.631 185.965 141.07 185.965 143.883ZM187.231 143.789C187.184 138.819 194.64 138.35 194.968 143.32C195.249 148.338 187.794 148.713 187.231 143.789Z" fill="#78B2E8"></path><path d="M159.144 133.473C159.473 136.333 161.817 138.584 164.818 138.256C167.491 137.974 169.554 135.536 169.413 132.863C169.273 130.097 166.741 127.893 163.974 128.034C161.02 128.221 159.098 130.706 159.144 133.473ZM160.364 133.426C160.317 128.456 167.772 127.987 168.1 132.957C168.429 137.928 160.926 138.35 160.364 133.426Z" fill="#78B2E8"></path><path d="M147.562 126.439C147.89 129.299 150.234 131.55 153.235 131.222C155.908 130.94 157.971 128.502 157.831 125.829C157.69 123.063 155.158 120.859 152.391 121C149.484 121.187 147.562 123.625 147.562 126.439ZM148.828 126.345C148.781 121.375 156.236 120.906 156.564 125.876C156.846 130.893 149.39 131.269 148.828 126.345Z" fill="#78B2E8"></path></g><path d="M164.115 113.399L154.268 119.542L157.081 123.903L165.709 116.072L164.115 113.399Z" fill="#E2E2E2"></path><path d="M151.033 109.039C151.736 109.789 151.97 110.914 152.205 111.946C152.392 112.837 152.58 113.728 152.768 114.619C152.814 114.853 152.861 115.134 152.768 115.369C152.58 115.885 151.97 116.025 151.455 116.119C150.751 116.213 150.001 116.307 149.298 116.072C148.407 115.697 147.891 114.712 147.61 113.775C147.141 112.368 146.953 110.914 147.047 109.414C147.094 108.945 147 107.82 147.516 107.726C148.032 107.632 148.829 107.913 149.345 108.054C149.954 108.242 150.564 108.523 151.033 109.039Z" fill="#30323C"></path><path d="M147.938 110.258C147.797 110.633 148.125 111.008 148.5 111.008C148.688 111.008 148.922 111.055 149.11 111.149C149.297 111.242 149.485 111.336 149.672 111.383C149.86 111.43 150.094 111.43 150.282 111.336C150.517 111.149 150.563 110.82 150.47 110.539C150.282 109.836 149.532 109.367 148.782 109.507C148.406 109.601 148.078 109.882 147.938 110.258Z" fill="white"></path><path d="M158.91 106.507C158.91 106.507 157.831 109.226 156.659 108.195C156.659 108.195 157.409 110.399 159.238 107.726C159.238 107.726 160.223 106.554 158.91 106.507Z" fill="#E08162"></path><path d="M147 94.4558C147.046 95.1591 147.14 95.8625 147.562 96.4251C147.984 97.0347 148.734 97.4099 149.485 97.5505C150.235 97.6912 150.891 97.7381 151.642 97.6912C151.829 100.458 154.455 102.005 154.455 102.005L153.986 106.319L155.487 106.225L155.299 103.646C155.534 103.271 155.815 102.896 156.143 102.615C156.471 102.286 156.893 102.052 157.315 102.005C157.972 101.958 158.581 102.333 158.91 102.849C159.238 103.365 159.332 104.021 159.285 104.678C159.238 105.287 159.097 105.991 158.863 106.6C159.238 108.664 160.691 110.445 162.614 111.289C163.411 109.508 165.099 107.679 165.568 105.756C166.037 103.881 166.178 101.818 165.615 99.9888C165.099 98.2539 164.021 96.5658 162.38 95.7218C162.708 94.0337 160.973 92.3457 157.222 91.5486C152.579 90.6107 150.891 90.7514 152.439 91.5017C151.454 91.5017 150.423 91.5486 149.438 91.6423C148.875 91.6892 148.406 91.6892 147.89 91.5954C147.562 91.5486 147.281 91.7361 147.187 92.0644C147.046 92.7677 146.953 93.6117 147 94.4558Z" fill="#30323C"></path></svg>